<svg width="21" height="22" viewBox="0 0 21 22" fill="none" xmlns="http://www.w3.org/2000/svg">
<path d="M8.27179 16.8739L8.21394 16.8616L8.16325 16.8921L5.45167 18.522L5.48739 15.892L5.48856 15.8059L5.4147 15.7615C3.19569 14.4272 1.75303 12.2294 1.75303 9.75C1.75303 5.71182 5.58085 2.4 10.353 2.4C15.1252 2.4 18.953 5.71182 18.953 9.75C18.953 13.7888 15.1252 17.1 10.353 17.1C9.63473 17.1 8.94025 17.0164 8.27179 16.8739ZM3.95303 21V21.2665L4.18084 21.1282L8.51417 18.4988C9.1103 18.5945 9.72388 18.65 10.353 18.65C15.9389 18.65 20.503 14.6835 20.503 9.75C20.503 4.8171 15.9389 0.85 10.353 0.85C4.76712 0.85 0.203027 4.8171 0.203027 9.75C0.203027 12.5419 1.67122 15.0242 3.95303 16.652V21ZM14.728 7.725H5.97803C5.55018 7.725 5.20303 8.07216 5.20303 8.5C5.20303 8.92857 5.55028 9.275 5.97803 9.275H14.728C15.1558 9.275 15.503 8.92857 15.503 8.5C15.503 8.07216 15.1559 7.725 14.728 7.725ZM13.478 11.475H7.22803C6.80028 11.475 6.45303 11.8214 6.45303 12.25C6.45303 12.6786 6.80028 13.025 7.22803 13.025H13.478C13.9058 13.025 14.253 12.6786 14.253 12.25C14.253 11.8214 13.9058 11.475 13.478 11.475Z" fill="#545454" stroke="#545454" stroke-width="0.3"/>
</svg>
