<svg width="176" height="188" viewBox="0 0 176 188" fill="none" xmlns="http://www.w3.org/2000/svg">
<mask id="path-1-outside-1_48_35" maskUnits="userSpaceOnUse" x="14" y="7" width="156" height="175" fill="black">
<rect fill="white" x="14" y="7" width="156" height="175"/>
<path d="M78.83 16.4V89H63.65V16.4H78.83ZM31.64 16.4V89H16.46V16.4H31.64ZM71.57 46.21V58.42H24.05V46.21H71.57ZM103.828 26.08C100.675 26.08 98.3284 25.42 96.7884 24.1C95.2484 22.7067 94.4784 20.69 94.4784 18.05C94.4784 15.3367 95.2484 13.32 96.7884 12C98.3284 10.6067 100.675 9.91 103.828 9.91C106.982 9.91 109.328 10.6067 110.868 12C112.408 13.32 113.178 15.3367 113.178 18.05C113.178 20.69 112.408 22.7067 110.868 24.1C109.328 25.42 106.982 26.08 103.828 26.08ZM111.308 34V89H96.2384V34H111.308ZM134.653 72.17C137 72.17 138.943 72.7567 140.483 73.93C142.023 75.03 143.197 76.5333 144.003 78.44C144.81 80.2733 145.213 82.3267 145.213 84.6C145.213 87.6067 144.59 90.5033 143.343 93.29C142.17 96.0767 140.52 98.57 138.393 100.77C136.267 102.97 133.847 104.693 131.133 105.94L124.643 100.77C126.623 99.9633 128.42 98.9733 130.033 97.8C131.72 96.6267 133.15 95.3067 134.323 93.84C135.497 92.3733 136.34 90.87 136.853 89.33L136.303 89C135.937 89.22 135.497 89.4033 134.983 89.55C134.47 89.77 133.737 89.88 132.783 89.88C131.61 89.88 130.437 89.5867 129.263 89C128.09 88.34 127.1 87.4233 126.293 86.25C125.487 85.0033 125.083 83.4633 125.083 81.63C125.083 79.65 125.523 77.9633 126.403 76.57C127.283 75.1767 128.457 74.1133 129.923 73.38C131.39 72.5733 132.967 72.17 134.653 72.17ZM31.64 107.4V180H16.46V107.4H31.64ZM56.7827 103.66C59.1294 103.66 61.0727 104.247 62.6127 105.42C64.1527 106.52 65.3261 108.023 66.1327 109.93C66.9394 111.763 67.3427 113.817 67.3427 116.09C67.3427 119.097 66.7194 121.993 65.4727 124.78C64.2994 127.567 62.6494 130.06 60.5227 132.26C58.3961 134.46 55.9761 136.183 53.2627 137.43L46.7727 132.26C48.7527 131.453 50.5494 130.463 52.1627 129.29C53.8494 128.117 55.2794 126.797 56.4527 125.33C57.6261 123.863 58.4694 122.36 58.9827 120.82L58.4327 120.49C58.0661 120.71 57.6261 120.93 57.1127 121.15C56.5994 121.297 55.8661 121.37 54.9127 121.37C53.7394 121.37 52.5661 121.077 51.3927 120.49C50.2194 119.83 49.2294 118.913 48.4227 117.74C47.6161 116.493 47.2127 114.953 47.2127 113.12C47.2127 111.14 47.6527 109.453 48.5327 108.06C49.4127 106.667 50.5861 105.603 52.0527 104.87C53.5194 104.063 55.0961 103.66 56.7827 103.66ZM79.1583 180V125H92.6883L93.2383 134.9C95.0716 131.233 97.5649 128.483 100.718 126.65C103.945 124.817 107.502 123.9 111.388 123.9C115.348 123.9 118.905 124.817 122.058 126.65C125.285 128.483 127.705 131.197 129.318 134.79C130.492 132.37 132.068 130.353 134.048 128.74C136.028 127.127 138.228 125.917 140.648 125.11C143.068 124.303 145.525 123.9 148.018 123.9C151.612 123.9 154.875 124.633 157.808 126.1C160.815 127.567 163.198 129.767 164.958 132.7C166.718 135.633 167.598 139.373 167.598 143.92V180H152.528V146.89C152.528 142.857 151.648 139.997 149.888 138.31C148.128 136.623 145.855 135.78 143.068 135.78C140.868 135.78 138.815 136.33 136.908 137.43C135.075 138.53 133.608 140.18 132.508 142.38C131.482 144.507 130.968 147.183 130.968 150.41V180H115.898V146.89C115.898 142.857 114.982 139.997 113.148 138.31C111.388 136.623 109.115 135.78 106.328 135.78C104.422 135.78 102.515 136.293 100.608 137.32C98.7749 138.347 97.2349 139.96 95.9883 142.16C94.8149 144.36 94.2283 147.257 94.2283 150.85V180H79.1583Z"/>
</mask>
<path d="M78.83 16.4V89H63.65V16.4H78.83ZM31.64 16.4V89H16.46V16.4H31.64ZM71.57 46.21V58.42H24.05V46.21H71.57ZM103.828 26.08C100.675 26.08 98.3284 25.42 96.7884 24.1C95.2484 22.7067 94.4784 20.69 94.4784 18.05C94.4784 15.3367 95.2484 13.32 96.7884 12C98.3284 10.6067 100.675 9.91 103.828 9.91C106.982 9.91 109.328 10.6067 110.868 12C112.408 13.32 113.178 15.3367 113.178 18.05C113.178 20.69 112.408 22.7067 110.868 24.1C109.328 25.42 106.982 26.08 103.828 26.08ZM111.308 34V89H96.2384V34H111.308ZM134.653 72.17C137 72.17 138.943 72.7567 140.483 73.93C142.023 75.03 143.197 76.5333 144.003 78.44C144.81 80.2733 145.213 82.3267 145.213 84.6C145.213 87.6067 144.59 90.5033 143.343 93.29C142.17 96.0767 140.52 98.57 138.393 100.77C136.267 102.97 133.847 104.693 131.133 105.94L124.643 100.77C126.623 99.9633 128.42 98.9733 130.033 97.8C131.72 96.6267 133.15 95.3067 134.323 93.84C135.497 92.3733 136.34 90.87 136.853 89.33L136.303 89C135.937 89.22 135.497 89.4033 134.983 89.55C134.47 89.77 133.737 89.88 132.783 89.88C131.61 89.88 130.437 89.5867 129.263 89C128.09 88.34 127.1 87.4233 126.293 86.25C125.487 85.0033 125.083 83.4633 125.083 81.63C125.083 79.65 125.523 77.9633 126.403 76.57C127.283 75.1767 128.457 74.1133 129.923 73.38C131.39 72.5733 132.967 72.17 134.653 72.17ZM31.64 107.4V180H16.46V107.4H31.64ZM56.7827 103.66C59.1294 103.66 61.0727 104.247 62.6127 105.42C64.1527 106.52 65.3261 108.023 66.1327 109.93C66.9394 111.763 67.3427 113.817 67.3427 116.09C67.3427 119.097 66.7194 121.993 65.4727 124.78C64.2994 127.567 62.6494 130.06 60.5227 132.26C58.3961 134.46 55.9761 136.183 53.2627 137.43L46.7727 132.26C48.7527 131.453 50.5494 130.463 52.1627 129.29C53.8494 128.117 55.2794 126.797 56.4527 125.33C57.6261 123.863 58.4694 122.36 58.9827 120.82L58.4327 120.49C58.0661 120.71 57.6261 120.93 57.1127 121.15C56.5994 121.297 55.8661 121.37 54.9127 121.37C53.7394 121.37 52.5661 121.077 51.3927 120.49C50.2194 119.83 49.2294 118.913 48.4227 117.74C47.6161 116.493 47.2127 114.953 47.2127 113.12C47.2127 111.14 47.6527 109.453 48.5327 108.06C49.4127 106.667 50.5861 105.603 52.0527 104.87C53.5194 104.063 55.0961 103.66 56.7827 103.66ZM79.1583 180V125H92.6883L93.2383 134.9C95.0716 131.233 97.5649 128.483 100.718 126.65C103.945 124.817 107.502 123.9 111.388 123.9C115.348 123.9 118.905 124.817 122.058 126.65C125.285 128.483 127.705 131.197 129.318 134.79C130.492 132.37 132.068 130.353 134.048 128.74C136.028 127.127 138.228 125.917 140.648 125.11C143.068 124.303 145.525 123.9 148.018 123.9C151.612 123.9 154.875 124.633 157.808 126.1C160.815 127.567 163.198 129.767 164.958 132.7C166.718 135.633 167.598 139.373 167.598 143.92V180H152.528V146.89C152.528 142.857 151.648 139.997 149.888 138.31C148.128 136.623 145.855 135.78 143.068 135.78C140.868 135.78 138.815 136.33 136.908 137.43C135.075 138.53 133.608 140.18 132.508 142.38C131.482 144.507 130.968 147.183 130.968 150.41V180H115.898V146.89C115.898 142.857 114.982 139.997 113.148 138.31C111.388 136.623 109.115 135.78 106.328 135.78C104.422 135.78 102.515 136.293 100.608 137.32C98.7749 138.347 97.2349 139.96 95.9883 142.16C94.8149 144.36 94.2283 147.257 94.2283 150.85V180H79.1583Z" fill="#89B5AF"/>
<path d="M78.83 16.4H80.83V14.4H78.83V16.4ZM78.83 89V91H80.83V89H78.83ZM63.65 89H61.65V91H63.65V89ZM63.65 16.4V14.4H61.65V16.4H63.65ZM31.64 16.4H33.64V14.4H31.64V16.4ZM31.64 89V91H33.64V89H31.64ZM16.46 89H14.46V91H16.46V89ZM16.46 16.4V14.4H14.46V16.4H16.46ZM71.57 46.21H73.57V44.21H71.57V46.21ZM71.57 58.42V60.42H73.57V58.42H71.57ZM24.05 58.42H22.05V60.42H24.05V58.42ZM24.05 46.21V44.21H22.05V46.21H24.05ZM76.83 16.4V89H80.83V16.4H76.83ZM78.83 87H63.65V91H78.83V87ZM65.65 89V16.4H61.65V89H65.65ZM63.65 18.4H78.83V14.4H63.65V18.4ZM29.64 16.4V89H33.64V16.4H29.64ZM31.64 87H16.46V91H31.64V87ZM18.46 89V16.4H14.46V89H18.46ZM16.46 18.4H31.64V14.4H16.46V18.4ZM69.57 46.21V58.42H73.57V46.21H69.57ZM71.57 56.42H24.05V60.42H71.57V56.42ZM26.05 58.42V46.21H22.05V58.42H26.05ZM24.05 48.21H71.57V44.21H24.05V48.21ZM96.7884 24.1L95.4465 25.5831L95.4664 25.6011L95.4868 25.6185L96.7884 24.1ZM96.7884 12L98.0899 13.5185L98.1103 13.5011L98.1302 13.4831L96.7884 12ZM110.868 12L109.527 13.4831L109.546 13.5011L109.567 13.5185L110.868 12ZM110.868 24.1L112.17 25.6185L112.19 25.6011L112.21 25.5831L110.868 24.1ZM111.308 34H113.308V32H111.308V34ZM111.308 89V91H113.308V89H111.308ZM96.2384 89H94.2384V91H96.2384V89ZM96.2384 34V32H94.2384V34H96.2384ZM103.828 24.08C100.9 24.08 99.1134 23.4587 98.0899 22.5815L95.4868 25.6185C97.5434 27.3813 100.45 28.08 103.828 28.08V24.08ZM98.1302 22.6169C97.1169 21.7002 96.4784 20.2885 96.4784 18.05H92.4784C92.4784 21.0915 93.3798 23.7132 95.4465 25.5831L98.1302 22.6169ZM96.4784 18.05C96.4784 15.7119 97.1303 14.341 98.0899 13.5185L95.4868 10.4815C93.3664 12.299 92.4784 14.9615 92.4784 18.05H96.4784ZM98.1302 13.4831C99.1522 12.5584 100.922 11.91 103.828 11.91V7.91C100.428 7.91 97.5046 8.6549 95.4465 10.5169L98.1302 13.4831ZM103.828 11.91C106.735 11.91 108.505 12.5584 109.527 13.4831L112.21 10.5169C110.152 8.6549 107.228 7.91 103.828 7.91V11.91ZM109.567 13.5185C110.526 14.341 111.178 15.7119 111.178 18.05H115.178C115.178 14.9615 114.29 12.299 112.17 10.4815L109.567 13.5185ZM111.178 18.05C111.178 20.2885 110.54 21.7002 109.527 22.6169L112.21 25.5831C114.277 23.7132 115.178 21.0915 115.178 18.05H111.178ZM109.567 22.5815C108.543 23.4587 106.757 24.08 103.828 24.08V28.08C107.207 28.08 110.113 27.3813 112.17 25.6185L109.567 22.5815ZM109.308 34V89H113.308V34H109.308ZM111.308 87H96.2384V91H111.308V87ZM98.2384 89V34H94.2384V89H98.2384ZM96.2384 36H111.308V32H96.2384V36ZM140.483 73.93L139.271 75.5209L139.296 75.5395L139.321 75.5575L140.483 73.93ZM144.003 78.44L142.161 79.2193L142.167 79.2324L142.173 79.2455L144.003 78.44ZM143.343 93.29L141.518 92.4733L141.509 92.4935L141.5 92.5139L143.343 93.29ZM138.393 100.77L136.955 99.38L138.393 100.77ZM131.133 105.94L129.887 107.504L130.85 108.271L131.968 107.757L131.133 105.94ZM124.643 100.77L123.889 98.9178L120.726 100.206L123.397 102.334L124.643 100.77ZM130.033 97.8L128.891 96.1582L128.874 96.1702L128.857 96.1825L130.033 97.8ZM134.323 93.84L135.885 95.0894L135.885 95.0894L134.323 93.84ZM136.853 89.33L138.751 89.9625L139.258 88.4404L137.882 87.615L136.853 89.33ZM136.303 89L137.332 87.285L136.303 86.6676L135.274 87.285L136.303 89ZM134.983 89.55L134.434 87.627L134.312 87.6618L134.195 87.7117L134.983 89.55ZM129.263 89L128.283 90.7432L128.325 90.7671L128.369 90.7889L129.263 89ZM126.293 86.25L124.614 87.3365L124.629 87.36L124.645 87.3831L126.293 86.25ZM126.403 76.57L124.712 75.502L124.712 75.502L126.403 76.57ZM129.923 73.38L130.818 75.1689L130.853 75.1513L130.887 75.1324L129.923 73.38ZM134.653 74.17C136.657 74.17 138.148 74.6655 139.271 75.5209L141.695 72.3391C139.738 70.8479 137.342 70.17 134.653 70.17V74.17ZM139.321 75.5575C140.532 76.4229 141.485 77.6196 142.161 79.2193L145.845 77.6607C144.909 75.4471 143.514 73.6371 141.646 72.3025L139.321 75.5575ZM142.173 79.2455C142.853 80.7929 143.213 82.5666 143.213 84.6H147.213C147.213 82.0867 146.766 79.7538 145.834 77.6345L142.173 79.2455ZM143.213 84.6C143.213 87.3208 142.651 89.9395 141.518 92.4733L145.169 94.1067C146.529 91.0672 147.213 87.8926 147.213 84.6H143.213ZM141.5 92.5139C140.424 95.0698 138.912 97.3556 136.955 99.38L139.831 102.16C142.128 99.7844 143.916 97.0835 145.187 94.0661L141.5 92.5139ZM136.955 99.38C134.997 101.406 132.78 102.982 130.298 104.123L131.968 107.757C134.913 106.404 137.536 104.534 139.831 102.16L136.955 99.38ZM132.379 104.376L125.889 99.2057L123.397 102.334L129.887 107.504L132.379 104.376ZM125.398 102.622C127.517 101.759 129.457 100.692 131.21 99.4175L128.857 96.1825C127.383 97.2543 125.73 98.1677 123.889 98.9178L125.398 102.622ZM131.175 99.4418C133.005 98.1688 134.581 96.7198 135.885 95.0894L132.762 92.5906C131.719 93.8936 130.435 95.0845 128.891 96.1582L131.175 99.4418ZM135.885 95.0894C137.183 93.467 138.152 91.7584 138.751 89.9625L134.956 88.6975C134.528 89.9816 133.81 91.2797 132.762 92.5906L135.885 95.0894ZM137.882 87.615L137.332 87.285L135.274 90.715L135.824 91.045L137.882 87.615ZM135.274 87.285C135.089 87.3959 134.819 87.517 134.434 87.627L135.533 91.473C136.175 91.2897 136.784 91.0441 137.332 90.715L135.274 87.285ZM134.195 87.7117C134.048 87.7751 133.631 87.88 132.783 87.88V91.88C133.843 91.88 134.892 91.7649 135.771 91.3883L134.195 87.7117ZM132.783 87.88C131.955 87.88 131.086 87.6755 130.158 87.2111L128.369 90.7889C129.787 91.4978 131.264 91.88 132.783 91.88V87.88ZM130.244 87.2568C129.352 86.7552 128.585 86.0535 127.941 85.1169L124.645 87.3831C125.615 88.7932 126.828 89.9248 128.283 90.7432L130.244 87.2568ZM127.972 85.1635C127.42 84.3091 127.083 83.1685 127.083 81.63H123.083C123.083 83.7581 123.554 85.6976 124.614 87.3365L127.972 85.1635ZM127.083 81.63C127.083 79.9512 127.454 78.6524 128.094 77.638L124.712 75.502C123.593 77.2743 123.083 79.3488 123.083 81.63H127.083ZM128.094 77.638C128.78 76.5515 129.679 75.7382 130.818 75.1689L129.029 71.5911C127.234 72.4885 125.786 73.8019 124.712 75.502L128.094 77.638ZM130.887 75.1324C132.056 74.4895 133.301 74.17 134.653 74.17V70.17C132.632 70.17 130.724 70.6572 128.959 71.6276L130.887 75.1324ZM31.64 107.4H33.64V105.4H31.64V107.4ZM31.64 180V182H33.64V180H31.64ZM16.46 180H14.46V182H16.46V180ZM16.46 107.4V105.4H14.46V107.4H16.46ZM29.64 107.4V180H33.64V107.4H29.64ZM31.64 178H16.46V182H31.64V178ZM18.46 180V107.4H14.46V180H18.46ZM16.46 109.4H31.64V105.4H16.46V109.4ZM62.6127 105.42L61.4007 107.011L61.4252 107.03L61.4503 107.047L62.6127 105.42ZM66.1327 109.93L64.2908 110.709L64.2964 110.722L64.3021 110.735L66.1327 109.93ZM65.4727 124.78L63.6471 123.963L63.6381 123.983L63.6295 124.004L65.4727 124.78ZM60.5227 132.26L59.0848 130.87L59.0848 130.87L60.5227 132.26ZM53.2627 137.43L52.0166 138.994L52.9793 139.761L54.0977 139.247L53.2627 137.43ZM46.7727 132.26L46.0181 130.408L42.8553 131.696L45.5266 133.824L46.7727 132.26ZM52.1627 129.29L51.0206 127.648L51.0034 127.66L50.9864 127.673L52.1627 129.29ZM56.4527 125.33L58.0145 126.579L58.0145 126.579L56.4527 125.33ZM58.9827 120.82L60.8801 121.452L61.3874 119.93L60.0117 119.105L58.9827 120.82ZM58.4327 120.49L59.4617 118.775L58.4327 118.158L57.4038 118.775L58.4327 120.49ZM57.1127 121.15L57.6622 123.073L57.7841 123.038L57.9006 122.988L57.1127 121.15ZM51.3927 120.49L50.4122 122.233L50.4547 122.257L50.4983 122.279L51.3927 120.49ZM48.4227 117.74L46.7436 118.826L46.7588 118.85L46.7746 118.873L48.4227 117.74ZM52.0527 104.87L52.9472 106.659L52.9822 106.641L53.0166 106.622L52.0527 104.87ZM56.7827 105.66C58.7869 105.66 60.2779 106.155 61.4007 107.011L63.8248 103.829C61.8675 102.338 59.4719 101.66 56.7827 101.66V105.66ZM61.4503 107.047C62.6619 107.913 63.614 109.11 64.2908 110.709L67.9747 109.151C67.0381 106.937 65.6436 105.127 63.7752 103.793L61.4503 107.047ZM64.3021 110.735C64.983 112.283 65.3427 114.057 65.3427 116.09H69.3427C69.3427 113.577 68.8959 111.244 67.9634 109.125L64.3021 110.735ZM65.3427 116.09C65.3427 118.811 64.7806 121.429 63.6471 123.963L67.2984 125.597C68.6582 122.557 69.3427 119.383 69.3427 116.09H65.3427ZM63.6295 124.004C62.5533 126.56 61.0416 128.846 59.0848 130.87L61.9607 133.65C64.2572 131.274 66.0455 128.573 67.316 125.556L63.6295 124.004ZM59.0848 130.87C57.1264 132.896 54.9097 134.472 52.4277 135.613L54.0977 139.247C57.0425 137.894 59.6657 136.024 61.9607 133.65L59.0848 130.87ZM54.5089 135.866L48.0189 130.696L45.5266 133.824L52.0166 138.994L54.5089 135.866ZM47.5273 134.112C49.6462 133.249 51.5862 132.182 53.3391 130.907L50.9864 127.673C49.5126 128.744 47.8593 129.658 46.0181 130.408L47.5273 134.112ZM53.3049 130.932C55.1348 129.659 56.7102 128.21 58.0145 126.579L54.891 124.081C53.8486 125.384 52.564 126.575 51.0206 127.648L53.3049 130.932ZM58.0145 126.579C59.3124 124.957 60.2814 123.248 60.8801 121.452L57.0854 120.188C56.6574 121.472 55.9397 122.77 54.891 124.081L58.0145 126.579ZM60.0117 119.105L59.4617 118.775L57.4038 122.205L57.9538 122.535L60.0117 119.105ZM57.4038 118.775C57.1339 118.937 56.7787 119.117 56.3249 119.312L57.9006 122.988C58.4734 122.743 58.9983 122.483 59.4617 122.205L57.4038 118.775ZM56.5633 119.227C56.3164 119.297 55.8015 119.37 54.9127 119.37V123.37C55.9306 123.37 56.8824 123.296 57.6622 123.073L56.5633 119.227ZM54.9127 119.37C54.0849 119.37 53.2159 119.166 52.2872 118.701L50.4983 122.279C51.9162 122.988 53.3939 123.37 54.9127 123.37V119.37ZM52.3733 118.747C51.4814 118.245 50.7147 117.543 50.0708 116.607L46.7746 118.873C47.7441 120.283 48.9574 121.415 50.4122 122.233L52.3733 118.747ZM50.1019 116.653C49.549 115.799 49.2127 114.659 49.2127 113.12H45.2127C45.2127 115.248 45.6831 117.188 46.7436 118.826L50.1019 116.653ZM49.2127 113.12C49.2127 111.441 49.583 110.142 50.2237 109.128L46.8418 106.992C45.7224 108.764 45.2127 110.839 45.2127 113.12H49.2127ZM50.2237 109.128C50.9099 108.041 51.8085 107.228 52.9472 106.659L51.1583 103.081C49.3636 103.978 47.9155 105.292 46.8418 106.992L50.2237 109.128ZM53.0166 106.622C54.1856 105.979 55.4304 105.66 56.7827 105.66V101.66C54.7618 101.66 52.8532 102.147 51.0889 103.118L53.0166 106.622ZM79.1583 180H77.1583V182H79.1583V180ZM79.1583 125V123H77.1583V125H79.1583ZM92.6883 125L94.6852 124.889L94.5803 123H92.6883V125ZM93.2383 134.9L91.2414 135.011L91.6591 142.53L95.0271 135.794L93.2383 134.9ZM100.718 126.65L99.7303 124.911L99.7216 124.916L99.713 124.921L100.718 126.65ZM122.058 126.65L121.053 128.379L121.062 128.384L121.07 128.389L122.058 126.65ZM129.318 134.79L127.494 135.609L129.249 139.518L131.118 135.663L129.318 134.79ZM134.048 128.74L135.312 130.29L135.312 130.29L134.048 128.74ZM140.648 125.11L141.281 127.007L141.281 127.007L140.648 125.11ZM157.808 126.1L156.914 127.889L156.923 127.893L156.931 127.898L157.808 126.1ZM164.958 132.7L163.243 133.729L163.243 133.729L164.958 132.7ZM167.598 180V182H169.598V180H167.598ZM152.528 180H150.528V182H152.528V180ZM136.908 137.43L135.909 135.698L135.894 135.706L135.879 135.715L136.908 137.43ZM132.508 142.38L130.719 141.486L130.713 141.498L130.707 141.511L132.508 142.38ZM130.968 180V182H132.968V180H130.968ZM115.898 180H113.898V182H115.898V180ZM113.148 138.31L111.764 139.754L111.779 139.768L111.794 139.782L113.148 138.31ZM100.608 137.32L99.6601 135.559L99.6455 135.567L99.6311 135.575L100.608 137.32ZM95.9883 142.16L94.2482 141.174L94.2356 141.196L94.2236 141.219L95.9883 142.16ZM94.2283 180V182H96.2283V180H94.2283ZM81.1583 180V125H77.1583V180H81.1583ZM79.1583 127H92.6883V123H79.1583V127ZM90.6914 125.111L91.2414 135.011L95.2352 134.789L94.6852 124.889L90.6914 125.111ZM95.0271 135.794C96.7085 132.432 98.9478 129.993 101.724 128.379L99.713 124.921C96.1821 126.974 93.4347 130.035 91.4494 134.006L95.0271 135.794ZM101.706 128.389C104.617 126.735 107.831 125.9 111.388 125.9V121.9C107.172 121.9 103.273 122.898 99.7303 124.911L101.706 128.389ZM111.388 125.9C115.026 125.9 118.231 126.738 121.053 128.379L123.064 124.921C119.579 122.895 115.67 121.9 111.388 121.9V125.9ZM121.07 128.389C123.904 129.999 126.043 132.378 127.494 135.609L131.143 133.971C129.367 130.015 126.666 126.968 123.046 124.911L121.07 128.389ZM131.118 135.663C132.171 133.491 133.57 131.71 135.312 130.29L132.785 127.19C130.567 128.997 128.812 131.249 127.519 133.917L131.118 135.663ZM135.312 130.29C137.104 128.83 139.091 127.737 141.281 127.007L140.016 123.213C137.366 124.096 134.952 125.424 132.785 127.19L135.312 130.29ZM141.281 127.007C143.502 126.267 145.745 125.9 148.018 125.9V121.9C145.305 121.9 142.635 122.34 140.016 123.213L141.281 127.007ZM148.018 125.9C151.331 125.9 154.284 126.574 156.914 127.889L158.703 124.311C155.466 122.693 151.892 121.9 148.018 121.9V125.9ZM156.931 127.898C159.582 129.191 161.678 131.12 163.243 133.729L166.673 131.671C164.719 128.414 162.048 125.943 158.685 124.302L156.931 127.898ZM163.243 133.729C164.765 136.265 165.598 139.62 165.598 143.92H169.598C169.598 139.127 168.672 135.001 166.673 131.671L163.243 133.729ZM165.598 143.92V180H169.598V143.92H165.598ZM167.598 178H152.528V182H167.598V178ZM154.528 180V146.89H150.528V180H154.528ZM154.528 146.89C154.528 142.652 153.618 139.114 151.272 136.866L148.504 139.754C149.679 140.879 150.528 143.061 150.528 146.89H154.528ZM151.272 136.866C149.086 134.771 146.291 133.78 143.068 133.78V137.78C145.419 137.78 147.171 138.476 148.504 139.754L151.272 136.866ZM143.068 133.78C140.517 133.78 138.119 134.422 135.909 135.698L137.908 139.162C139.511 138.238 141.219 137.78 143.068 137.78V133.78ZM135.879 135.715C133.673 137.039 131.963 138.998 130.719 141.486L134.297 143.274C135.253 141.362 136.477 140.021 137.937 139.145L135.879 135.715ZM130.707 141.511C129.511 143.989 128.968 146.987 128.968 150.41H132.968C132.968 147.38 133.452 145.025 134.309 143.249L130.707 141.511ZM128.968 150.41V180H132.968V150.41H128.968ZM130.968 178H115.898V182H130.968V178ZM117.898 180V146.89H113.898V180H117.898ZM117.898 146.89C117.898 142.633 116.942 139.083 114.502 136.838L111.794 139.782C113.021 140.91 113.898 143.08 113.898 146.89H117.898ZM114.532 136.866C112.346 134.771 109.551 133.78 106.328 133.78V137.78C108.679 137.78 110.431 138.476 111.764 139.754L114.532 136.866ZM106.328 133.78C104.048 133.78 101.818 134.397 99.6601 135.559L101.556 139.081C103.212 138.19 104.795 137.78 106.328 137.78V133.78ZM99.6311 135.575C97.4195 136.813 95.6383 138.721 94.2482 141.174L97.7283 143.146C98.8316 141.199 100.13 139.88 101.585 139.065L99.6311 135.575ZM94.2236 141.219C92.8426 143.808 92.2283 147.064 92.2283 150.85H96.2283C96.2283 147.45 96.7872 144.912 97.753 143.101L94.2236 141.219ZM92.2283 150.85V180H96.2283V150.85H92.2283ZM94.2283 178H79.1583V182H94.2283V178Z" fill="#545454" mask="url(#path-1-outside-1_48_35)"/>
<mask id="path-3-outside-2_48_35" maskUnits="userSpaceOnUse" x="7" y="1" width="156" height="175" fill="black">
<rect fill="white" x="7" y="1" width="156" height="175"/>
<path d="M71.83 10.4V83H56.65V10.4H71.83ZM24.64 10.4V83H9.46V10.4H24.64ZM64.57 40.21V52.42H17.05V40.21H64.57ZM96.8284 20.08C93.675 20.08 91.3284 19.42 89.7884 18.1C88.2484 16.7067 87.4784 14.69 87.4784 12.05C87.4784 9.33666 88.2484 7.32 89.7884 5.99999C91.3284 4.60666 93.675 3.91 96.8284 3.91C99.9817 3.91 102.328 4.60666 103.868 5.99999C105.408 7.32 106.178 9.33666 106.178 12.05C106.178 14.69 105.408 16.7067 103.868 18.1C102.328 19.42 99.9817 20.08 96.8284 20.08ZM104.308 28V83H89.2384V28H104.308ZM127.653 66.17C130 66.17 131.943 66.7567 133.483 67.93C135.023 69.03 136.197 70.5333 137.003 72.44C137.81 74.2733 138.213 76.3267 138.213 78.6C138.213 81.6067 137.59 84.5033 136.343 87.29C135.17 90.0767 133.52 92.57 131.393 94.77C129.267 96.97 126.847 98.6933 124.133 99.94L117.643 94.77C119.623 93.9633 121.42 92.9733 123.033 91.8C124.72 90.6267 126.15 89.3067 127.323 87.84C128.497 86.3733 129.34 84.87 129.853 83.33L129.303 83C128.937 83.22 128.497 83.4033 127.983 83.55C127.47 83.77 126.737 83.88 125.783 83.88C124.61 83.88 123.437 83.5867 122.263 83C121.09 82.34 120.1 81.4233 119.293 80.25C118.487 79.0033 118.083 77.4633 118.083 75.63C118.083 73.65 118.523 71.9633 119.403 70.57C120.283 69.1767 121.457 68.1133 122.923 67.38C124.39 66.5733 125.967 66.17 127.653 66.17ZM24.64 101.4V174H9.46V101.4H24.64ZM49.7827 97.66C52.1294 97.66 54.0727 98.2467 55.6127 99.42C57.1527 100.52 58.3261 102.023 59.1327 103.93C59.9394 105.763 60.3427 107.817 60.3427 110.09C60.3427 113.097 59.7194 115.993 58.4727 118.78C57.2994 121.567 55.6494 124.06 53.5227 126.26C51.3961 128.46 48.9761 130.183 46.2627 131.43L39.7727 126.26C41.7527 125.453 43.5494 124.463 45.1627 123.29C46.8494 122.117 48.2794 120.797 49.4527 119.33C50.6261 117.863 51.4694 116.36 51.9827 114.82L51.4327 114.49C51.0661 114.71 50.6261 114.93 50.1127 115.15C49.5994 115.297 48.8661 115.37 47.9127 115.37C46.7394 115.37 45.5661 115.077 44.3927 114.49C43.2194 113.83 42.2294 112.913 41.4227 111.74C40.6161 110.493 40.2127 108.953 40.2127 107.12C40.2127 105.14 40.6527 103.453 41.5327 102.06C42.4127 100.667 43.5861 99.6033 45.0527 98.87C46.5194 98.0633 48.0961 97.66 49.7827 97.66ZM72.1583 174V119H85.6883L86.2383 128.9C88.0716 125.233 90.5649 122.483 93.7183 120.65C96.9449 118.817 100.502 117.9 104.388 117.9C108.348 117.9 111.905 118.817 115.058 120.65C118.285 122.483 120.705 125.197 122.318 128.79C123.492 126.37 125.068 124.353 127.048 122.74C129.028 121.127 131.228 119.917 133.648 119.11C136.068 118.303 138.525 117.9 141.018 117.9C144.612 117.9 147.875 118.633 150.808 120.1C153.815 121.567 156.198 123.767 157.958 126.7C159.718 129.633 160.598 133.373 160.598 137.92V174H145.528V140.89C145.528 136.857 144.648 133.997 142.888 132.31C141.128 130.623 138.855 129.78 136.068 129.78C133.868 129.78 131.815 130.33 129.908 131.43C128.075 132.53 126.608 134.18 125.508 136.38C124.482 138.507 123.968 141.183 123.968 144.41V174H108.898V140.89C108.898 136.857 107.982 133.997 106.148 132.31C104.388 130.623 102.115 129.78 99.3283 129.78C97.4216 129.78 95.5149 130.293 93.6083 131.32C91.7749 132.347 90.2349 133.96 88.9883 136.16C87.8149 138.36 87.2283 141.257 87.2283 144.85V174H72.1583Z"/>
</mask>
<path d="M71.83 10.4V83H56.65V10.4H71.83ZM24.64 10.4V83H9.46V10.4H24.64ZM64.57 40.21V52.42H17.05V40.21H64.57ZM96.8284 20.08C93.675 20.08 91.3284 19.42 89.7884 18.1C88.2484 16.7067 87.4784 14.69 87.4784 12.05C87.4784 9.33666 88.2484 7.32 89.7884 5.99999C91.3284 4.60666 93.675 3.91 96.8284 3.91C99.9817 3.91 102.328 4.60666 103.868 5.99999C105.408 7.32 106.178 9.33666 106.178 12.05C106.178 14.69 105.408 16.7067 103.868 18.1C102.328 19.42 99.9817 20.08 96.8284 20.08ZM104.308 28V83H89.2384V28H104.308ZM127.653 66.17C130 66.17 131.943 66.7567 133.483 67.93C135.023 69.03 136.197 70.5333 137.003 72.44C137.81 74.2733 138.213 76.3267 138.213 78.6C138.213 81.6067 137.59 84.5033 136.343 87.29C135.17 90.0767 133.52 92.57 131.393 94.77C129.267 96.97 126.847 98.6933 124.133 99.94L117.643 94.77C119.623 93.9633 121.42 92.9733 123.033 91.8C124.72 90.6267 126.15 89.3067 127.323 87.84C128.497 86.3733 129.34 84.87 129.853 83.33L129.303 83C128.937 83.22 128.497 83.4033 127.983 83.55C127.47 83.77 126.737 83.88 125.783 83.88C124.61 83.88 123.437 83.5867 122.263 83C121.09 82.34 120.1 81.4233 119.293 80.25C118.487 79.0033 118.083 77.4633 118.083 75.63C118.083 73.65 118.523 71.9633 119.403 70.57C120.283 69.1767 121.457 68.1133 122.923 67.38C124.39 66.5733 125.967 66.17 127.653 66.17ZM24.64 101.4V174H9.46V101.4H24.64ZM49.7827 97.66C52.1294 97.66 54.0727 98.2467 55.6127 99.42C57.1527 100.52 58.3261 102.023 59.1327 103.93C59.9394 105.763 60.3427 107.817 60.3427 110.09C60.3427 113.097 59.7194 115.993 58.4727 118.78C57.2994 121.567 55.6494 124.06 53.5227 126.26C51.3961 128.46 48.9761 130.183 46.2627 131.43L39.7727 126.26C41.7527 125.453 43.5494 124.463 45.1627 123.29C46.8494 122.117 48.2794 120.797 49.4527 119.33C50.6261 117.863 51.4694 116.36 51.9827 114.82L51.4327 114.49C51.0661 114.71 50.6261 114.93 50.1127 115.15C49.5994 115.297 48.8661 115.37 47.9127 115.37C46.7394 115.37 45.5661 115.077 44.3927 114.49C43.2194 113.83 42.2294 112.913 41.4227 111.74C40.6161 110.493 40.2127 108.953 40.2127 107.12C40.2127 105.14 40.6527 103.453 41.5327 102.06C42.4127 100.667 43.5861 99.6033 45.0527 98.87C46.5194 98.0633 48.0961 97.66 49.7827 97.66ZM72.1583 174V119H85.6883L86.2383 128.9C88.0716 125.233 90.5649 122.483 93.7183 120.65C96.9449 118.817 100.502 117.9 104.388 117.9C108.348 117.9 111.905 118.817 115.058 120.65C118.285 122.483 120.705 125.197 122.318 128.79C123.492 126.37 125.068 124.353 127.048 122.74C129.028 121.127 131.228 119.917 133.648 119.11C136.068 118.303 138.525 117.9 141.018 117.9C144.612 117.9 147.875 118.633 150.808 120.1C153.815 121.567 156.198 123.767 157.958 126.7C159.718 129.633 160.598 133.373 160.598 137.92V174H145.528V140.89C145.528 136.857 144.648 133.997 142.888 132.31C141.128 130.623 138.855 129.78 136.068 129.78C133.868 129.78 131.815 130.33 129.908 131.43C128.075 132.53 126.608 134.18 125.508 136.38C124.482 138.507 123.968 141.183 123.968 144.41V174H108.898V140.89C108.898 136.857 107.982 133.997 106.148 132.31C104.388 130.623 102.115 129.78 99.3283 129.78C97.4216 129.78 95.5149 130.293 93.6083 131.32C91.7749 132.347 90.2349 133.96 88.9883 136.16C87.8149 138.36 87.2283 141.257 87.2283 144.85V174H72.1583Z" fill="white"/>
<path d="M71.83 10.4H73.83V8.4H71.83V10.4ZM71.83 83V85H73.83V83H71.83ZM56.65 83H54.65V85H56.65V83ZM56.65 10.4V8.4H54.65V10.4H56.65ZM24.64 10.4H26.64V8.4H24.64V10.4ZM24.64 83V85H26.64V83H24.64ZM9.46 83H7.46V85H9.46V83ZM9.46 10.4V8.4H7.46V10.4H9.46ZM64.57 40.21H66.57V38.21H64.57V40.21ZM64.57 52.42V54.42H66.57V52.42H64.57ZM17.05 52.42H15.05V54.42H17.05V52.42ZM17.05 40.21V38.21H15.05V40.21H17.05ZM69.83 10.4V83H73.83V10.4H69.83ZM71.83 81H56.65V85H71.83V81ZM58.65 83V10.4H54.65V83H58.65ZM56.65 12.4H71.83V8.4H56.65V12.4ZM22.64 10.4V83H26.64V10.4H22.64ZM24.64 81H9.46V85H24.64V81ZM11.46 83V10.4H7.46V83H11.46ZM9.46 12.4H24.64V8.4H9.46V12.4ZM62.57 40.21V52.42H66.57V40.21H62.57ZM64.57 50.42H17.05V54.42H64.57V50.42ZM19.05 52.42V40.21H15.05V52.42H19.05ZM17.05 42.21H64.57V38.21H17.05V42.21ZM89.7884 18.1L88.4465 19.5831L88.4664 19.6011L88.4868 19.6185L89.7884 18.1ZM89.7884 5.99999L91.0899 7.51851L91.1103 7.50106L91.1302 7.48307L89.7884 5.99999ZM103.868 5.99999L102.527 7.48307L102.546 7.50106L102.567 7.51851L103.868 5.99999ZM103.868 18.1L105.17 19.6185L105.19 19.6011L105.21 19.5831L103.868 18.1ZM104.308 28H106.308V26H104.308V28ZM104.308 83V85H106.308V83H104.308ZM89.2384 83H87.2384V85H89.2384V83ZM89.2384 28V26H87.2384V28H89.2384ZM96.8284 18.08C93.9001 18.08 92.1134 17.4587 91.0899 16.5815L88.4868 19.6185C90.5434 21.3813 93.4499 22.08 96.8284 22.08V18.08ZM91.1302 16.6169C90.1169 15.7002 89.4784 14.2885 89.4784 12.05H85.4784C85.4784 15.0915 86.3798 17.7132 88.4465 19.5831L91.1302 16.6169ZM89.4784 12.05C89.4784 9.71186 90.1303 8.34103 91.0899 7.51851L88.4868 4.48148C86.3664 6.29896 85.4784 8.96146 85.4784 12.05H89.4784ZM91.1302 7.48307C92.1522 6.55842 93.9218 5.91 96.8284 5.91V1.91C93.4282 1.91 90.5046 2.6549 88.4465 4.51692L91.1302 7.48307ZM96.8284 5.91C99.7349 5.91 101.505 6.55842 102.527 7.48307L105.21 4.51692C103.152 2.6549 100.228 1.91 96.8284 1.91V5.91ZM102.567 7.51851C103.526 8.34103 104.178 9.71186 104.178 12.05H108.178C108.178 8.96146 107.29 6.29896 105.17 4.48148L102.567 7.51851ZM104.178 12.05C104.178 14.2885 103.54 15.7002 102.527 16.6169L105.21 19.5831C107.277 17.7132 108.178 15.0915 108.178 12.05H104.178ZM102.567 16.5815C101.543 17.4587 99.7566 18.08 96.8284 18.08V22.08C100.207 22.08 103.113 21.3813 105.17 19.6185L102.567 16.5815ZM102.308 28V83H106.308V28H102.308ZM104.308 81H89.2384V85H104.308V81ZM91.2384 83V28H87.2384V83H91.2384ZM89.2384 30H104.308V26H89.2384V30ZM133.483 67.93L132.271 69.5209L132.296 69.5395L132.321 69.5575L133.483 67.93ZM137.003 72.44L135.161 73.2193L135.167 73.2324L135.173 73.2455L137.003 72.44ZM136.343 87.29L134.518 86.4733L134.509 86.4935L134.5 86.5139L136.343 87.29ZM131.393 94.77L129.955 93.38L131.393 94.77ZM124.133 99.94L122.887 101.504L123.85 102.271L124.968 101.757L124.133 99.94ZM117.643 94.77L116.889 92.9178L113.726 94.2064L116.397 96.3343L117.643 94.77ZM123.033 91.8L121.891 90.1582L121.874 90.1702L121.857 90.1825L123.033 91.8ZM127.323 87.84L128.885 89.0894L128.885 89.0894L127.323 87.84ZM129.853 83.33L131.751 83.9625L132.258 82.4404L130.882 81.615L129.853 83.33ZM129.303 83L130.332 81.285L129.303 80.6676L128.274 81.285L129.303 83ZM127.983 83.55L127.434 81.627L127.312 81.6618L127.195 81.7117L127.983 83.55ZM122.263 83L121.283 84.7432L121.325 84.7671L121.369 84.7889L122.263 83ZM119.293 80.25L117.614 81.3365L117.629 81.36L117.645 81.3831L119.293 80.25ZM119.403 70.57L117.712 69.502L117.712 69.502L119.403 70.57ZM122.923 67.38L123.818 69.1689L123.853 69.1513L123.887 69.1324L122.923 67.38ZM127.653 68.17C129.657 68.17 131.148 68.6655 132.271 69.5209L134.695 66.3391C132.738 64.8479 130.342 64.17 127.653 64.17V68.17ZM132.321 69.5575C133.532 70.4229 134.485 71.6196 135.161 73.2193L138.845 71.6607C137.909 69.4471 136.514 67.6371 134.646 66.3025L132.321 69.5575ZM135.173 73.2455C135.853 74.7929 136.213 76.5666 136.213 78.6H140.213C140.213 76.0867 139.766 73.7538 138.834 71.6345L135.173 73.2455ZM136.213 78.6C136.213 81.3208 135.651 83.9395 134.518 86.4733L138.169 88.1067C139.529 85.0672 140.213 81.8926 140.213 78.6H136.213ZM134.5 86.5139C133.424 89.0698 131.912 91.3556 129.955 93.38L132.831 96.16C135.128 93.7844 136.916 91.0835 138.187 88.0661L134.5 86.5139ZM129.955 93.38C127.997 95.4058 125.78 96.9823 123.298 98.1226L124.968 101.757C127.913 100.404 130.536 98.5342 132.831 96.16L129.955 93.38ZM125.379 98.3757L118.889 93.2057L116.397 96.3343L122.887 101.504L125.379 98.3757ZM118.398 96.6222C120.517 95.7589 122.457 94.6923 124.21 93.4175L121.857 90.1825C120.383 91.2543 118.73 92.1677 116.889 92.9178L118.398 96.6222ZM124.175 93.4418C126.005 92.1688 127.581 90.7198 128.885 89.0894L125.762 86.5906C124.719 87.8936 123.435 89.0845 121.891 90.1582L124.175 93.4418ZM128.885 89.0894C130.183 87.467 131.152 85.7584 131.751 83.9625L127.956 82.6975C127.528 83.9816 126.81 85.2797 125.762 86.5906L128.885 89.0894ZM130.882 81.615L130.332 81.285L128.274 84.715L128.824 85.045L130.882 81.615ZM128.274 81.285C128.089 81.3959 127.819 81.517 127.434 81.627L128.533 85.473C129.175 85.2897 129.784 85.0441 130.332 84.715L128.274 81.285ZM127.195 81.7117C127.048 81.7751 126.631 81.88 125.783 81.88V85.88C126.843 85.88 127.892 85.7649 128.771 85.3883L127.195 81.7117ZM125.783 81.88C124.955 81.88 124.086 81.6755 123.158 81.2111L121.369 84.7889C122.787 85.4978 124.264 85.88 125.783 85.88V81.88ZM123.244 81.2568C122.352 80.7552 121.585 80.0535 120.941 79.1169L117.645 81.3831C118.615 82.7932 119.828 83.9248 121.283 84.7432L123.244 81.2568ZM120.972 79.1635C120.42 78.3091 120.083 77.1685 120.083 75.63H116.083C116.083 77.7581 116.554 79.6976 117.614 81.3365L120.972 79.1635ZM120.083 75.63C120.083 73.9512 120.454 72.6524 121.094 71.638L117.712 69.502C116.593 71.2743 116.083 73.3488 116.083 75.63H120.083ZM121.094 71.638C121.78 70.5515 122.679 69.7382 123.818 69.1689L122.029 65.5911C120.234 66.4885 118.786 67.8019 117.712 69.502L121.094 71.638ZM123.887 69.1324C125.056 68.4895 126.301 68.17 127.653 68.17V64.17C125.632 64.17 123.724 64.6572 121.959 65.6276L123.887 69.1324ZM24.64 101.4H26.64V99.4H24.64V101.4ZM24.64 174V176H26.64V174H24.64ZM9.46 174H7.46V176H9.46V174ZM9.46 101.4V99.4H7.46V101.4H9.46ZM22.64 101.4V174H26.64V101.4H22.64ZM24.64 172H9.46V176H24.64V172ZM11.46 174V101.4H7.46V174H11.46ZM9.46 103.4H24.64V99.4H9.46V103.4ZM55.6127 99.42L54.4007 101.011L54.4252 101.03L54.4503 101.047L55.6127 99.42ZM59.1327 103.93L57.2908 104.709L57.2964 104.722L57.3021 104.735L59.1327 103.93ZM58.4727 118.78L56.6471 117.963L56.6381 117.983L56.6295 118.004L58.4727 118.78ZM53.5227 126.26L52.0848 124.87L52.0848 124.87L53.5227 126.26ZM46.2627 131.43L45.0166 132.994L45.9793 133.761L47.0977 133.247L46.2627 131.43ZM39.7727 126.26L39.0181 124.408L35.8553 125.696L38.5266 127.824L39.7727 126.26ZM45.1627 123.29L44.0206 121.648L44.0034 121.66L43.9864 121.673L45.1627 123.29ZM49.4527 119.33L51.0145 120.579L51.0145 120.579L49.4527 119.33ZM51.9827 114.82L53.8801 115.452L54.3874 113.93L53.0117 113.105L51.9827 114.82ZM51.4327 114.49L52.4617 112.775L51.4327 112.158L50.4038 112.775L51.4327 114.49ZM50.1127 115.15L50.6622 117.073L50.7841 117.038L50.9006 116.988L50.1127 115.15ZM44.3927 114.49L43.4122 116.233L43.4547 116.257L43.4983 116.279L44.3927 114.49ZM41.4227 111.74L39.7436 112.826L39.7588 112.85L39.7746 112.873L41.4227 111.74ZM45.0527 98.87L45.9472 100.659L45.9822 100.641L46.0166 100.622L45.0527 98.87ZM49.7827 99.66C51.7869 99.66 53.2779 100.155 54.4007 101.011L56.8248 97.8291C54.8675 96.3379 52.4719 95.66 49.7827 95.66V99.66ZM54.4503 101.047C55.6619 101.913 56.614 103.11 57.2908 104.709L60.9747 103.151C60.0381 100.937 58.6436 99.1271 56.7752 97.7925L54.4503 101.047ZM57.3021 104.735C57.983 106.283 58.3427 108.057 58.3427 110.09H62.3427C62.3427 107.577 61.8959 105.244 60.9634 103.125L57.3021 104.735ZM58.3427 110.09C58.3427 112.811 57.7806 115.429 56.6471 117.963L60.2984 119.597C61.6582 116.557 62.3427 113.383 62.3427 110.09H58.3427ZM56.6295 118.004C55.5533 120.56 54.0416 122.846 52.0848 124.87L54.9607 127.65C57.2572 125.274 59.0455 122.573 60.316 119.556L56.6295 118.004ZM52.0848 124.87C50.1264 126.896 47.9097 128.472 45.4277 129.613L47.0977 133.247C50.0425 131.894 52.6657 130.024 54.9607 127.65L52.0848 124.87ZM47.5089 129.866L41.0189 124.696L38.5266 127.824L45.0166 132.994L47.5089 129.866ZM40.5273 128.112C42.6462 127.249 44.5862 126.182 46.3391 124.907L43.9864 121.673C42.5126 122.744 40.8593 123.658 39.0181 124.408L40.5273 128.112ZM46.3049 124.932C48.1348 123.659 49.7102 122.21 51.0145 120.579L47.891 118.081C46.8486 119.384 45.564 120.575 44.0206 121.648L46.3049 124.932ZM51.0145 120.579C52.3124 118.957 53.2814 117.248 53.8801 115.452L50.0854 114.188C49.6574 115.472 48.9397 116.77 47.891 118.081L51.0145 120.579ZM53.0117 113.105L52.4617 112.775L50.4038 116.205L50.9538 116.535L53.0117 113.105ZM50.4038 112.775C50.1339 112.937 49.7787 113.117 49.3249 113.312L50.9006 116.988C51.4734 116.743 51.9983 116.483 52.4617 116.205L50.4038 112.775ZM49.5633 113.227C49.3164 113.297 48.8015 113.37 47.9127 113.37V117.37C48.9306 117.37 49.8824 117.296 50.6622 117.073L49.5633 113.227ZM47.9127 113.37C47.0849 113.37 46.2159 113.166 45.2872 112.701L43.4983 116.279C44.9162 116.988 46.3939 117.37 47.9127 117.37V113.37ZM45.3733 112.747C44.4814 112.245 43.7147 111.543 43.0708 110.607L39.7746 112.873C40.7441 114.283 41.9574 115.415 43.4122 116.233L45.3733 112.747ZM43.1019 110.653C42.549 109.799 42.2127 108.659 42.2127 107.12H38.2127C38.2127 109.248 38.6831 111.188 39.7436 112.826L43.1019 110.653ZM42.2127 107.12C42.2127 105.441 42.583 104.142 43.2237 103.128L39.8418 100.992C38.7224 102.764 38.2127 104.839 38.2127 107.12H42.2127ZM43.2237 103.128C43.9099 102.041 44.8085 101.228 45.9472 100.659L44.1583 97.0811C42.3636 97.9785 40.9155 99.2919 39.8418 100.992L43.2237 103.128ZM46.0166 100.622C47.1856 99.9795 48.4304 99.66 49.7827 99.66V95.66C47.7618 95.66 45.8532 96.1472 44.0889 97.1176L46.0166 100.622ZM72.1583 174H70.1583V176H72.1583V174ZM72.1583 119V117H70.1583V119H72.1583ZM85.6883 119L87.6852 118.889L87.5803 117H85.6883V119ZM86.2383 128.9L84.2414 129.011L84.6591 136.53L88.0271 129.794L86.2383 128.9ZM93.7183 120.65L92.7303 118.911L92.7216 118.916L92.713 118.921L93.7183 120.65ZM115.058 120.65L114.053 122.379L114.062 122.384L114.07 122.389L115.058 120.65ZM122.318 128.79L120.494 129.609L122.249 133.518L124.118 129.663L122.318 128.79ZM127.048 122.74L128.312 124.29L128.312 124.29L127.048 122.74ZM133.648 119.11L134.281 121.007L134.281 121.007L133.648 119.11ZM150.808 120.1L149.914 121.889L149.923 121.893L149.931 121.898L150.808 120.1ZM157.958 126.7L156.243 127.729L156.243 127.729L157.958 126.7ZM160.598 174V176H162.598V174H160.598ZM145.528 174H143.528V176H145.528V174ZM129.908 131.43L128.909 129.698L128.894 129.706L128.879 129.715L129.908 131.43ZM125.508 136.38L123.719 135.486L123.713 135.498L123.707 135.511L125.508 136.38ZM123.968 174V176H125.968V174H123.968ZM108.898 174H106.898V176H108.898V174ZM106.148 132.31L104.764 133.754L104.779 133.768L104.794 133.782L106.148 132.31ZM93.6083 131.32L92.6601 129.559L92.6455 129.567L92.6311 129.575L93.6083 131.32ZM88.9883 136.16L87.2482 135.174L87.2356 135.196L87.2236 135.219L88.9883 136.16ZM87.2283 174V176H89.2283V174H87.2283ZM74.1583 174V119H70.1583V174H74.1583ZM72.1583 121H85.6883V117H72.1583V121ZM83.6914 119.111L84.2414 129.011L88.2352 128.789L87.6852 118.889L83.6914 119.111ZM88.0271 129.794C89.7085 126.432 91.9478 123.993 94.7235 122.379L92.713 118.921C89.1821 120.974 86.4347 124.035 84.4494 128.006L88.0271 129.794ZM94.7063 122.389C97.6173 120.735 100.831 119.9 104.388 119.9V115.9C100.172 115.9 96.2726 116.898 92.7303 118.911L94.7063 122.389ZM104.388 119.9C108.026 119.9 111.231 120.738 114.053 122.379L116.064 118.921C112.579 116.895 108.67 115.9 104.388 115.9V119.9ZM114.07 122.389C116.904 123.999 119.043 126.378 120.494 129.609L124.143 127.971C122.367 124.015 119.666 120.968 116.046 118.911L114.07 122.389ZM124.118 129.663C125.171 127.491 126.57 125.71 128.312 124.29L125.785 121.19C123.567 122.997 121.812 125.249 120.519 127.917L124.118 129.663ZM128.312 124.29C130.104 122.83 132.091 121.737 134.281 121.007L133.016 117.213C130.366 118.096 127.952 119.424 125.785 121.19L128.312 124.29ZM134.281 121.007C136.502 120.267 138.745 119.9 141.018 119.9V115.9C138.305 115.9 135.635 116.34 133.016 117.213L134.281 121.007ZM141.018 119.9C144.331 119.9 147.284 120.574 149.914 121.889L151.703 118.311C148.466 116.693 144.892 115.9 141.018 115.9V119.9ZM149.931 121.898C152.582 123.191 154.678 125.12 156.243 127.729L159.673 125.671C157.719 122.414 155.048 119.943 151.685 118.302L149.931 121.898ZM156.243 127.729C157.765 130.265 158.598 133.62 158.598 137.92H162.598C162.598 133.127 161.672 129.001 159.673 125.671L156.243 127.729ZM158.598 137.92V174H162.598V137.92H158.598ZM160.598 172H145.528V176H160.598V172ZM147.528 174V140.89H143.528V174H147.528ZM147.528 140.89C147.528 136.652 146.618 133.114 144.272 130.866L141.504 133.754C142.679 134.879 143.528 137.061 143.528 140.89H147.528ZM144.272 130.866C142.086 128.771 139.291 127.78 136.068 127.78V131.78C138.419 131.78 140.171 132.476 141.504 133.754L144.272 130.866ZM136.068 127.78C133.517 127.78 131.119 128.422 128.909 129.698L130.908 133.162C132.511 132.238 134.219 131.78 136.068 131.78V127.78ZM128.879 129.715C126.673 131.039 124.963 132.998 123.719 135.486L127.297 137.274C128.253 135.362 129.477 134.021 130.937 133.145L128.879 129.715ZM123.707 135.511C122.511 137.989 121.968 140.987 121.968 144.41H125.968C125.968 141.38 126.452 139.025 127.309 137.249L123.707 135.511ZM121.968 144.41V174H125.968V144.41H121.968ZM123.968 172H108.898V176H123.968V172ZM110.898 174V140.89H106.898V174H110.898ZM110.898 140.89C110.898 136.633 109.942 133.083 107.502 130.838L104.794 133.782C106.021 134.91 106.898 137.08 106.898 140.89H110.898ZM107.532 130.866C105.346 128.771 102.551 127.78 99.3283 127.78V131.78C101.679 131.78 103.431 132.476 104.764 133.754L107.532 130.866ZM99.3283 127.78C97.048 127.78 94.8181 128.397 92.6601 129.559L94.5565 133.081C96.2118 132.19 97.7953 131.78 99.3283 131.78V127.78ZM92.6311 129.575C90.4195 130.813 88.6383 132.721 87.2482 135.174L90.7283 137.146C91.8316 135.199 93.1304 133.88 94.5855 133.065L92.6311 129.575ZM87.2236 135.219C85.8426 137.808 85.2283 141.064 85.2283 144.85H89.2283C89.2283 141.45 89.7872 138.912 90.753 137.101L87.2236 135.219ZM85.2283 144.85V174H89.2283V144.85H85.2283ZM87.2283 172H72.1583V176H87.2283V172Z" fill="#545454" mask="url(#path-3-outside-2_48_35)"/>
</svg>
