<svg width="380" height="97" viewBox="0 0 380 97" fill="none" xmlns="http://www.w3.org/2000/svg">
<mask id="path-1-outside-1_48_38" maskUnits="userSpaceOnUse" x="14" y="7" width="368" height="86" fill="black">
<rect fill="white" x="14" y="7" width="368" height="86"/>
<path d="M78.83 16.4V89H63.65V16.4H78.83ZM31.64 16.4V89H16.46V16.4H31.64ZM71.57 46.21V58.42H24.05V46.21H71.57ZM103.828 26.08C100.675 26.08 98.3284 25.42 96.7884 24.1C95.2484 22.7067 94.4784 20.69 94.4784 18.05C94.4784 15.3367 95.2484 13.32 96.7884 12C98.3284 10.6067 100.675 9.91 103.828 9.91C106.982 9.91 109.328 10.6067 110.868 12C112.408 13.32 113.178 15.3367 113.178 18.05C113.178 20.69 112.408 22.7067 110.868 24.1C109.328 25.42 106.982 26.08 103.828 26.08ZM111.308 34V89H96.2384V34H111.308ZM148.073 90.1C143.527 90.1 139.457 88.9633 135.863 86.69C132.343 84.4167 129.557 81.1533 127.503 76.9C125.523 72.6467 124.533 67.55 124.533 61.61C124.533 55.5233 125.597 50.3533 127.723 46.1C129.85 41.7733 132.71 38.51 136.303 36.31C139.97 34.0367 144.077 32.9 148.623 32.9C153.463 32.9 157.46 34.2933 160.613 37.08C163.767 39.8667 165.82 43.46 166.773 47.86L165.343 49.62V9.91H180.413V89H166.883L165.893 72.28L167.763 73.16C167.25 76.6067 166.077 79.6133 164.243 82.18C162.41 84.6733 160.1 86.6167 157.313 88.01C154.527 89.4033 151.447 90.1 148.073 90.1ZM152.473 78.55C155.113 78.55 157.387 77.89 159.293 76.57C161.2 75.1767 162.667 73.16 163.693 70.52C164.793 67.88 165.343 64.7267 165.343 61.06C165.343 57.54 164.83 54.57 163.803 52.15C162.777 49.6567 161.31 47.75 159.403 46.43C157.497 45.11 155.26 44.45 152.693 44.45C148.587 44.45 145.36 45.9167 143.013 48.85C140.74 51.71 139.603 55.9267 139.603 61.5C139.603 67.0733 140.74 71.3267 143.013 74.26C145.287 77.12 148.44 78.55 152.473 78.55ZM217.038 90.1C212.491 90.1 208.421 88.9633 204.828 86.69C201.308 84.4167 198.521 81.1533 196.468 76.9C194.488 72.6467 193.498 67.55 193.498 61.61C193.498 55.5233 194.561 50.3533 196.688 46.1C198.815 41.7733 201.675 38.51 205.268 36.31C208.935 34.0367 213.041 32.9 217.588 32.9C222.428 32.9 226.425 34.2933 229.578 37.08C232.731 39.8667 234.785 43.46 235.738 47.86L234.308 49.62V9.91H249.378V89H235.848L234.858 72.28L236.728 73.16C236.215 76.6067 235.041 79.6133 233.208 82.18C231.375 84.6733 229.065 86.6167 226.278 88.01C223.491 89.4033 220.411 90.1 217.038 90.1ZM221.438 78.55C224.078 78.55 226.351 77.89 228.258 76.57C230.165 75.1767 231.631 73.16 232.658 70.52C233.758 67.88 234.308 64.7267 234.308 61.06C234.308 57.54 233.795 54.57 232.768 52.15C231.741 49.6567 230.275 47.75 228.368 46.43C226.461 45.11 224.225 44.45 221.658 44.45C217.551 44.45 214.325 45.9167 211.978 48.85C209.705 51.71 208.568 55.9267 208.568 61.5C208.568 67.0733 209.705 71.3267 211.978 74.26C214.251 77.12 217.405 78.55 221.438 78.55ZM290.733 90.1C284.94 90.1 279.88 88.9633 275.553 86.69C271.3 84.4167 268 81.1533 265.653 76.9C263.306 72.6467 262.133 67.5133 262.133 61.5C262.133 55.4867 263.306 50.3533 265.653 46.1C268 41.8467 271.263 38.5833 275.443 36.31C279.696 34.0367 284.536 32.9 289.963 32.9C295.536 32.9 300.266 34.0367 304.153 36.31C308.04 38.51 311.01 41.5533 313.063 45.44C315.116 49.2533 316.143 53.6167 316.143 58.53C316.143 59.9967 316.106 61.39 316.033 62.71C315.96 64.03 315.85 65.2033 315.703 66.23H271.813V55.78H309.103L301.843 58.42C301.843 53.8 300.78 50.2433 298.653 47.75C296.6 45.2567 293.666 44.01 289.853 44.01C287.066 44.01 284.646 44.67 282.593 45.99C280.613 47.31 279.11 49.29 278.083 51.93C277.056 54.4967 276.543 57.76 276.543 61.72C276.543 65.6067 277.093 68.8333 278.193 71.4C279.366 73.8933 280.98 75.7633 283.033 77.01C285.16 78.2567 287.69 78.88 290.623 78.88C293.85 78.88 296.453 78.2567 298.433 77.01C300.413 75.7633 301.953 74.04 303.053 71.84L315.043 76.46C313.87 79.32 312.073 81.7767 309.653 83.83C307.306 85.8833 304.483 87.46 301.183 88.56C297.956 89.5867 294.473 90.1 290.733 90.1ZM363.275 34H378.895L357.995 89H340.615L319.715 34H335.775L349.415 77.45L363.275 34Z"/>
</mask>
<path d="M78.83 16.4V89H63.65V16.4H78.83ZM31.64 16.4V89H16.46V16.4H31.64ZM71.57 46.21V58.42H24.05V46.21H71.57ZM103.828 26.08C100.675 26.08 98.3284 25.42 96.7884 24.1C95.2484 22.7067 94.4784 20.69 94.4784 18.05C94.4784 15.3367 95.2484 13.32 96.7884 12C98.3284 10.6067 100.675 9.91 103.828 9.91C106.982 9.91 109.328 10.6067 110.868 12C112.408 13.32 113.178 15.3367 113.178 18.05C113.178 20.69 112.408 22.7067 110.868 24.1C109.328 25.42 106.982 26.08 103.828 26.08ZM111.308 34V89H96.2384V34H111.308ZM148.073 90.1C143.527 90.1 139.457 88.9633 135.863 86.69C132.343 84.4167 129.557 81.1533 127.503 76.9C125.523 72.6467 124.533 67.55 124.533 61.61C124.533 55.5233 125.597 50.3533 127.723 46.1C129.85 41.7733 132.71 38.51 136.303 36.31C139.97 34.0367 144.077 32.9 148.623 32.9C153.463 32.9 157.46 34.2933 160.613 37.08C163.767 39.8667 165.82 43.46 166.773 47.86L165.343 49.62V9.91H180.413V89H166.883L165.893 72.28L167.763 73.16C167.25 76.6067 166.077 79.6133 164.243 82.18C162.41 84.6733 160.1 86.6167 157.313 88.01C154.527 89.4033 151.447 90.1 148.073 90.1ZM152.473 78.55C155.113 78.55 157.387 77.89 159.293 76.57C161.2 75.1767 162.667 73.16 163.693 70.52C164.793 67.88 165.343 64.7267 165.343 61.06C165.343 57.54 164.83 54.57 163.803 52.15C162.777 49.6567 161.31 47.75 159.403 46.43C157.497 45.11 155.26 44.45 152.693 44.45C148.587 44.45 145.36 45.9167 143.013 48.85C140.74 51.71 139.603 55.9267 139.603 61.5C139.603 67.0733 140.74 71.3267 143.013 74.26C145.287 77.12 148.44 78.55 152.473 78.55ZM217.038 90.1C212.491 90.1 208.421 88.9633 204.828 86.69C201.308 84.4167 198.521 81.1533 196.468 76.9C194.488 72.6467 193.498 67.55 193.498 61.61C193.498 55.5233 194.561 50.3533 196.688 46.1C198.815 41.7733 201.675 38.51 205.268 36.31C208.935 34.0367 213.041 32.9 217.588 32.9C222.428 32.9 226.425 34.2933 229.578 37.08C232.731 39.8667 234.785 43.46 235.738 47.86L234.308 49.62V9.91H249.378V89H235.848L234.858 72.28L236.728 73.16C236.215 76.6067 235.041 79.6133 233.208 82.18C231.375 84.6733 229.065 86.6167 226.278 88.01C223.491 89.4033 220.411 90.1 217.038 90.1ZM221.438 78.55C224.078 78.55 226.351 77.89 228.258 76.57C230.165 75.1767 231.631 73.16 232.658 70.52C233.758 67.88 234.308 64.7267 234.308 61.06C234.308 57.54 233.795 54.57 232.768 52.15C231.741 49.6567 230.275 47.75 228.368 46.43C226.461 45.11 224.225 44.45 221.658 44.45C217.551 44.45 214.325 45.9167 211.978 48.85C209.705 51.71 208.568 55.9267 208.568 61.5C208.568 67.0733 209.705 71.3267 211.978 74.26C214.251 77.12 217.405 78.55 221.438 78.55ZM290.733 90.1C284.94 90.1 279.88 88.9633 275.553 86.69C271.3 84.4167 268 81.1533 265.653 76.9C263.306 72.6467 262.133 67.5133 262.133 61.5C262.133 55.4867 263.306 50.3533 265.653 46.1C268 41.8467 271.263 38.5833 275.443 36.31C279.696 34.0367 284.536 32.9 289.963 32.9C295.536 32.9 300.266 34.0367 304.153 36.31C308.04 38.51 311.01 41.5533 313.063 45.44C315.116 49.2533 316.143 53.6167 316.143 58.53C316.143 59.9967 316.106 61.39 316.033 62.71C315.96 64.03 315.85 65.2033 315.703 66.23H271.813V55.78H309.103L301.843 58.42C301.843 53.8 300.78 50.2433 298.653 47.75C296.6 45.2567 293.666 44.01 289.853 44.01C287.066 44.01 284.646 44.67 282.593 45.99C280.613 47.31 279.11 49.29 278.083 51.93C277.056 54.4967 276.543 57.76 276.543 61.72C276.543 65.6067 277.093 68.8333 278.193 71.4C279.366 73.8933 280.98 75.7633 283.033 77.01C285.16 78.2567 287.69 78.88 290.623 78.88C293.85 78.88 296.453 78.2567 298.433 77.01C300.413 75.7633 301.953 74.04 303.053 71.84L315.043 76.46C313.87 79.32 312.073 81.7767 309.653 83.83C307.306 85.8833 304.483 87.46 301.183 88.56C297.956 89.5867 294.473 90.1 290.733 90.1ZM363.275 34H378.895L357.995 89H340.615L319.715 34H335.775L349.415 77.45L363.275 34Z" fill="#89B5AF"/>
<path d="M78.83 16.4H80.83V14.4H78.83V16.4ZM78.83 89V91H80.83V89H78.83ZM63.65 89H61.65V91H63.65V89ZM63.65 16.4V14.4H61.65V16.4H63.65ZM31.64 16.4H33.64V14.4H31.64V16.4ZM31.64 89V91H33.64V89H31.64ZM16.46 89H14.46V91H16.46V89ZM16.46 16.4V14.4H14.46V16.4H16.46ZM71.57 46.21H73.57V44.21H71.57V46.21ZM71.57 58.42V60.42H73.57V58.42H71.57ZM24.05 58.42H22.05V60.42H24.05V58.42ZM24.05 46.21V44.21H22.05V46.21H24.05ZM76.83 16.4V89H80.83V16.4H76.83ZM78.83 87H63.65V91H78.83V87ZM65.65 89V16.4H61.65V89H65.65ZM63.65 18.4H78.83V14.4H63.65V18.4ZM29.64 16.4V89H33.64V16.4H29.64ZM31.64 87H16.46V91H31.64V87ZM18.46 89V16.4H14.46V89H18.46ZM16.46 18.4H31.64V14.4H16.46V18.4ZM69.57 46.21V58.42H73.57V46.21H69.57ZM71.57 56.42H24.05V60.42H71.57V56.42ZM26.05 58.42V46.21H22.05V58.42H26.05ZM24.05 48.21H71.57V44.21H24.05V48.21ZM96.7884 24.1L95.4465 25.5831L95.4664 25.6011L95.4868 25.6185L96.7884 24.1ZM96.7884 12L98.0899 13.5185L98.1103 13.5011L98.1302 13.4831L96.7884 12ZM110.868 12L109.527 13.4831L109.546 13.5011L109.567 13.5185L110.868 12ZM110.868 24.1L112.17 25.6185L112.19 25.6011L112.21 25.5831L110.868 24.1ZM111.308 34H113.308V32H111.308V34ZM111.308 89V91H113.308V89H111.308ZM96.2384 89H94.2384V91H96.2384V89ZM96.2384 34V32H94.2384V34H96.2384ZM103.828 24.08C100.9 24.08 99.1134 23.4587 98.0899 22.5815L95.4868 25.6185C97.5434 27.3813 100.45 28.08 103.828 28.08V24.08ZM98.1302 22.6169C97.1169 21.7002 96.4784 20.2885 96.4784 18.05H92.4784C92.4784 21.0915 93.3798 23.7132 95.4465 25.5831L98.1302 22.6169ZM96.4784 18.05C96.4784 15.7119 97.1303 14.341 98.0899 13.5185L95.4868 10.4815C93.3664 12.299 92.4784 14.9615 92.4784 18.05H96.4784ZM98.1302 13.4831C99.1522 12.5584 100.922 11.91 103.828 11.91V7.91C100.428 7.91 97.5046 8.6549 95.4465 10.5169L98.1302 13.4831ZM103.828 11.91C106.735 11.91 108.505 12.5584 109.527 13.4831L112.21 10.5169C110.152 8.6549 107.228 7.91 103.828 7.91V11.91ZM109.567 13.5185C110.526 14.341 111.178 15.7119 111.178 18.05H115.178C115.178 14.9615 114.29 12.299 112.17 10.4815L109.567 13.5185ZM111.178 18.05C111.178 20.2885 110.54 21.7002 109.527 22.6169L112.21 25.5831C114.277 23.7132 115.178 21.0915 115.178 18.05H111.178ZM109.567 22.5815C108.543 23.4587 106.757 24.08 103.828 24.08V28.08C107.207 28.08 110.113 27.3813 112.17 25.6185L109.567 22.5815ZM109.308 34V89H113.308V34H109.308ZM111.308 87H96.2384V91H111.308V87ZM98.2384 89V34H94.2384V89H98.2384ZM96.2384 36H111.308V32H96.2384V36ZM135.863 86.69L134.778 88.3701L134.786 88.3752L134.794 88.3802L135.863 86.69ZM127.503 76.9L125.69 77.7441L125.696 77.7568L125.702 77.7695L127.503 76.9ZM127.723 46.1L129.512 46.9944L129.518 46.9822L127.723 46.1ZM136.303 36.31L137.348 38.0157L137.357 38.0098L136.303 36.31ZM160.613 37.08L161.938 35.5813L161.938 35.5813L160.613 37.08ZM166.773 47.86L168.326 49.1212L168.931 48.3755L168.728 47.4365L166.773 47.86ZM165.343 49.62H163.343V55.2532L166.896 50.8812L165.343 49.62ZM165.343 9.91V7.91H163.343V9.91H165.343ZM180.413 9.91H182.413V7.91H180.413V9.91ZM180.413 89V91H182.413V89H180.413ZM166.883 89L164.887 89.1182L164.998 91H166.883V89ZM165.893 72.28L166.745 70.4704L163.698 69.0364L163.897 72.3982L165.893 72.28ZM167.763 73.16L169.741 73.4546L169.961 71.9836L168.615 71.3504L167.763 73.16ZM164.243 82.18L165.855 83.3648L165.863 83.3537L165.871 83.3425L164.243 82.18ZM157.313 88.01L158.208 89.7989L158.208 89.7989L157.313 88.01ZM159.293 76.57L160.432 78.2144L160.453 78.1998L160.473 78.1848L159.293 76.57ZM163.693 70.52L161.847 69.7508L161.838 69.7728L161.829 69.7951L163.693 70.52ZM163.803 52.15L161.954 52.9115L161.958 52.9213L161.962 52.9311L163.803 52.15ZM143.013 48.85L141.452 47.6006L141.448 47.6055L143.013 48.85ZM143.013 74.26L141.432 75.4851L141.44 75.4949L141.448 75.5045L143.013 74.26ZM148.073 88.1C143.878 88.1 140.184 87.0566 136.933 84.9998L134.794 88.3802C138.73 90.87 143.175 92.1 148.073 92.1V88.1ZM136.948 85.0099C133.775 82.9604 131.219 79.9961 129.304 76.0305L125.702 77.7695C127.894 82.3105 130.912 85.873 134.778 88.3701L136.948 85.0099ZM129.316 76.0559C127.488 72.1275 126.533 67.3335 126.533 61.61H122.533C122.533 67.7665 123.559 73.1658 125.69 77.7441L129.316 76.0559ZM126.533 61.61C126.533 55.7496 127.558 50.9034 129.512 46.9944L125.934 45.2056C123.636 49.8033 122.533 55.2971 122.533 61.61H126.533ZM129.518 46.9822C131.502 42.9454 134.122 39.9905 137.348 38.0157L135.259 34.6043C131.298 37.0295 128.197 40.6013 125.928 45.2178L129.518 46.9822ZM137.357 38.0098C140.69 35.9435 144.428 34.9 148.623 34.9V30.9C143.725 30.9 139.25 32.1299 135.249 34.6102L137.357 38.0098ZM148.623 34.9C153.053 34.9 156.556 36.1632 159.289 38.5787L161.938 35.5813C158.364 32.4235 153.873 30.9 148.623 30.9V34.9ZM159.289 38.5787C162.1 41.063 163.949 44.269 164.819 48.2835L168.728 47.4365C167.691 42.651 165.433 38.6703 161.938 35.5813L159.289 38.5787ZM165.221 46.5988L163.791 48.3588L166.896 50.8812L168.326 49.1212L165.221 46.5988ZM167.343 49.62V9.91H163.343V49.62H167.343ZM165.343 11.91H180.413V7.91H165.343V11.91ZM178.413 9.91V89H182.413V9.91H178.413ZM180.413 87H166.883V91H180.413V87ZM168.88 88.8818L167.89 72.1618L163.897 72.3982L164.887 89.1182L168.88 88.8818ZM165.042 74.0896L166.912 74.9696L168.615 71.3504L166.745 70.4704L165.042 74.0896ZM165.785 72.8654C165.313 76.0324 164.247 78.7344 162.616 81.0175L165.871 83.3425C167.907 80.4923 169.186 77.1809 169.741 73.4546L165.785 72.8654ZM162.632 80.9952C160.988 83.2315 158.924 84.9685 156.419 86.2211L158.208 89.7989C161.276 88.2648 163.832 86.1152 165.855 83.3648L162.632 80.9952ZM156.419 86.2211C153.932 87.4644 151.162 88.1 148.073 88.1V92.1C151.731 92.1 155.121 91.3423 158.208 89.7989L156.419 86.2211ZM152.473 80.55C155.462 80.55 158.146 79.7971 160.432 78.2144L158.155 74.9256C156.628 75.9829 154.765 76.55 152.473 76.55V80.55ZM160.473 78.1848C162.745 76.5247 164.42 74.169 165.557 71.2449L161.829 69.7951C160.913 72.151 159.655 73.8286 158.113 74.9552L160.473 78.1848ZM165.539 71.2892C166.765 68.3473 167.343 64.9194 167.343 61.06H163.343C163.343 64.534 162.821 67.4127 161.847 69.7508L165.539 71.2892ZM167.343 61.06C167.343 57.3576 166.805 54.1044 165.644 51.3689L161.962 52.9311C162.855 55.0356 163.343 57.7224 163.343 61.06H167.343ZM165.653 51.3885C164.504 48.5978 162.814 46.3591 160.542 44.7856L158.265 48.0744C159.805 49.1409 161.05 50.7155 161.954 52.9115L165.653 51.3885ZM160.542 44.7856C158.265 43.2095 155.621 42.45 152.693 42.45V46.45C154.898 46.45 156.728 47.0105 158.265 48.0744L160.542 44.7856ZM152.693 42.45C148.044 42.45 144.216 44.1445 141.452 47.6006L144.575 50.0994C146.503 47.6888 149.129 46.45 152.693 46.45V42.45ZM141.448 47.6055C138.779 50.9629 137.603 55.7005 137.603 61.5H141.603C141.603 56.1528 142.701 52.4571 144.579 50.0945L141.448 47.6055ZM137.603 61.5C137.603 67.3046 138.781 72.064 141.432 75.4851L144.594 73.0349C142.699 70.5894 141.603 66.8421 141.603 61.5H137.603ZM141.448 75.5045C144.143 78.8957 147.903 80.55 152.473 80.55V76.55C148.977 76.55 146.43 75.3443 144.579 73.0155L141.448 75.5045ZM204.828 86.69L203.743 88.3701L203.751 88.3752L203.759 88.3802L204.828 86.69ZM196.468 76.9L194.655 77.7441L194.661 77.7568L194.667 77.7695L196.468 76.9ZM196.688 46.1L198.477 46.9944L198.483 46.9822L196.688 46.1ZM205.268 36.31L206.312 38.0157L206.322 38.0098L205.268 36.31ZM229.578 37.08L230.903 35.5813L230.903 35.5813L229.578 37.08ZM235.738 47.86L237.29 49.1212L237.896 48.3755L237.693 47.4365L235.738 47.86ZM234.308 49.62H232.308V55.2532L235.86 50.8812L234.308 49.62ZM234.308 9.91V7.91H232.308V9.91H234.308ZM249.378 9.91H251.378V7.91H249.378V9.91ZM249.378 89V91H251.378V89H249.378ZM235.848 89L233.852 89.1182L233.963 91H235.848V89ZM234.858 72.28L235.71 70.4704L232.663 69.0364L232.862 72.3982L234.858 72.28ZM236.728 73.16L238.706 73.4546L238.925 71.9836L237.58 71.3504L236.728 73.16ZM233.208 82.18L234.819 83.3648L234.828 83.3537L234.836 83.3425L233.208 82.18ZM226.278 88.01L227.173 89.7989L227.173 89.7989L226.278 88.01ZM228.258 76.57L229.397 78.2144L229.418 78.1998L229.438 78.1848L228.258 76.57ZM232.658 70.52L230.812 69.7508L230.803 69.7728L230.794 69.7951L232.658 70.52ZM232.768 52.15L230.919 52.9115L230.923 52.9213L230.927 52.9311L232.768 52.15ZM211.978 48.85L210.416 47.6006L210.412 47.6055L211.978 48.85ZM211.978 74.26L210.397 75.4851L210.405 75.4949L210.412 75.5045L211.978 74.26ZM217.038 88.1C212.843 88.1 209.148 87.0566 205.897 84.9998L203.759 88.3802C207.694 90.87 212.14 92.1 217.038 92.1V88.1ZM205.913 85.0099C202.74 82.9604 200.184 79.9961 198.269 76.0305L194.667 77.7695C196.859 82.3105 199.877 85.873 203.743 88.3701L205.913 85.0099ZM198.281 76.0559C196.453 72.1275 195.498 67.3335 195.498 61.61H191.498C191.498 67.7665 192.524 73.1658 194.655 77.7441L198.281 76.0559ZM195.498 61.61C195.498 55.7496 196.522 50.9034 198.477 46.9944L194.899 45.2056C192.6 49.8033 191.498 55.2971 191.498 61.61H195.498ZM198.483 46.9822C200.467 42.9454 203.087 39.9905 206.312 38.0157L204.224 34.6043C200.263 37.0295 197.162 40.6013 194.893 45.2178L198.483 46.9822ZM206.322 38.0098C209.655 35.9435 213.393 34.9 217.588 34.9V30.9C212.69 30.9 208.215 32.1299 204.214 34.6102L206.322 38.0098ZM217.588 34.9C222.018 34.9 225.52 36.1632 228.254 38.5787L230.903 35.5813C227.329 32.4235 222.838 30.9 217.588 30.9V34.9ZM228.254 38.5787C231.065 41.063 232.914 44.269 233.783 48.2835L237.693 47.4365C236.656 42.651 234.398 38.6703 230.903 35.5813L228.254 38.5787ZM234.186 46.5988L232.756 48.3588L235.86 50.8812L237.29 49.1212L234.186 46.5988ZM236.308 49.62V9.91H232.308V49.62H236.308ZM234.308 11.91H249.378V7.91H234.308V11.91ZM247.378 9.91V89H251.378V9.91H247.378ZM249.378 87H235.848V91H249.378V87ZM237.845 88.8818L236.855 72.1618L232.862 72.3982L233.852 89.1182L237.845 88.8818ZM234.007 74.0896L235.877 74.9696L237.58 71.3504L235.71 70.4704L234.007 74.0896ZM234.75 72.8654C234.278 76.0324 233.211 78.7344 231.581 81.0175L234.836 83.3425C236.871 80.4923 238.151 77.1809 238.706 73.4546L234.75 72.8654ZM231.597 80.9952C229.953 83.2315 227.889 84.9685 225.384 86.2211L227.173 89.7989C230.241 88.2648 232.797 86.1152 234.819 83.3648L231.597 80.9952ZM225.384 86.2211C222.897 87.4644 220.127 88.1 217.038 88.1V92.1C220.696 92.1 224.086 91.3423 227.173 89.7989L225.384 86.2211ZM221.438 80.55C224.427 80.55 227.11 79.7971 229.397 78.2144L227.12 74.9256C225.592 75.9829 223.73 76.55 221.438 76.55V80.55ZM229.438 78.1848C231.71 76.5247 233.385 74.169 234.522 71.2449L230.794 69.7951C229.878 72.151 228.62 73.8286 227.078 74.9552L229.438 78.1848ZM234.504 71.2892C235.73 68.3473 236.308 64.9194 236.308 61.06H232.308C232.308 64.534 231.786 67.4127 230.812 69.7508L234.504 71.2892ZM236.308 61.06C236.308 57.3576 235.77 54.1044 234.609 51.3689L230.927 52.9311C231.82 55.0356 232.308 57.7224 232.308 61.06H236.308ZM234.617 51.3885C233.468 48.5978 231.779 46.3591 229.507 44.7856L227.23 48.0744C228.77 49.1409 230.015 50.7155 230.919 52.9115L234.617 51.3885ZM229.507 44.7856C227.23 43.2095 224.586 42.45 221.658 42.45V46.45C223.863 46.45 225.693 47.0105 227.23 48.0744L229.507 44.7856ZM221.658 42.45C217.009 42.45 213.181 44.1445 210.416 47.6006L213.54 50.0994C215.468 47.6888 218.094 46.45 221.658 46.45V42.45ZM210.412 47.6055C207.744 50.9629 206.568 55.7005 206.568 61.5H210.568C210.568 56.1528 211.666 52.4571 213.544 50.0945L210.412 47.6055ZM206.568 61.5C206.568 67.3046 207.746 72.064 210.397 75.4851L213.559 73.0349C211.664 70.5894 210.568 66.8421 210.568 61.5H206.568ZM210.412 75.5045C213.108 78.8957 216.867 80.55 221.438 80.55V76.55C217.942 76.55 215.395 75.3443 213.544 73.0155L210.412 75.5045ZM275.553 86.69L274.61 88.4539L274.616 88.4572L274.623 88.4605L275.553 86.69ZM265.653 76.9L267.404 75.9338L267.404 75.9338L265.653 76.9ZM265.653 46.1L267.404 47.0662L267.404 47.0662L265.653 46.1ZM275.443 36.31L274.5 34.5461L274.494 34.5496L274.487 34.553L275.443 36.31ZM304.153 36.31L303.143 38.0364L303.155 38.0435L303.168 38.0505L304.153 36.31ZM313.063 45.44L311.295 46.3742L311.298 46.3812L311.302 46.3882L313.063 45.44ZM315.703 66.23V68.23H317.438L317.683 66.5128L315.703 66.23ZM271.813 66.23H269.813V68.23H271.813V66.23ZM271.813 55.78V53.78H269.813V55.78H271.813ZM309.103 55.78L309.786 57.6596L309.103 53.78V55.78ZM301.843 58.42H299.843V61.2754L302.526 60.2996L301.843 58.42ZM298.653 47.75L297.109 49.0214L297.12 49.0347L297.131 49.0479L298.653 47.75ZM282.593 45.99L281.511 44.3076L281.497 44.3167L281.484 44.3259L282.593 45.99ZM278.083 51.93L279.94 52.6728L279.943 52.6639L279.947 52.6549L278.083 51.93ZM278.193 71.4L276.355 72.1878L276.368 72.22L276.383 72.2516L278.193 71.4ZM283.033 77.01L281.995 78.7196L282.008 78.7276L282.022 78.7354L283.033 77.01ZM303.053 71.84L303.772 69.9737L302.077 69.3205L301.264 70.9456L303.053 71.84ZM315.043 76.46L316.893 77.2191L317.669 75.3285L315.762 74.5937L315.043 76.46ZM309.653 83.83L308.359 82.305L308.347 82.3148L308.336 82.3248L309.653 83.83ZM301.183 88.56L301.789 90.4659L301.802 90.4617L301.815 90.4574L301.183 88.56ZM290.733 88.1C285.204 88.1 280.474 87.0165 276.483 84.9195L274.623 88.4605C279.285 90.9102 284.675 92.1 290.733 92.1V88.1ZM276.496 84.9261C272.586 82.8364 269.566 79.8514 267.404 75.9338L263.902 77.8662C266.434 82.4553 270.013 85.9969 274.61 88.4539L276.496 84.9261ZM267.404 75.9338C265.255 72.0389 264.133 67.2548 264.133 61.5H260.133C260.133 67.7719 261.357 73.2545 263.902 77.8662L267.404 75.9338ZM264.133 61.5C264.133 55.7452 265.255 50.9611 267.404 47.0662L263.902 45.1338C261.357 49.7455 260.133 55.2281 260.133 61.5H264.133ZM267.404 47.0662C269.571 43.1395 272.561 40.154 276.399 38.067L274.487 34.553C269.965 37.0127 266.429 40.5538 263.902 45.1338L267.404 47.0662ZM276.386 38.0739C280.314 35.9741 284.823 34.9 289.963 34.9V30.9C284.249 30.9 279.078 32.0992 274.5 34.5461L276.386 38.0739ZM289.963 34.9C295.265 34.9 299.628 35.9802 303.143 38.0364L305.163 34.5836C300.905 32.0931 295.807 30.9 289.963 30.9V34.9ZM303.168 38.0505C306.727 40.0653 309.423 42.8314 311.295 46.3742L314.831 44.5058C312.596 40.2753 309.352 36.9546 305.138 34.5695L303.168 38.0505ZM311.302 46.3882C313.178 49.8729 314.143 53.9026 314.143 58.53H318.143C318.143 53.3307 317.054 48.6338 314.824 44.4918L311.302 46.3882ZM314.143 58.53C314.143 59.9636 314.107 61.3197 314.036 62.5991L318.03 62.8209C318.105 61.4603 318.143 60.0297 318.143 58.53H314.143ZM314.036 62.5991C313.965 63.8763 313.86 64.9905 313.723 65.9472L317.683 66.5128C317.84 65.4162 317.954 64.1837 318.03 62.8209L314.036 62.5991ZM315.703 64.23H271.813V68.23H315.703V64.23ZM273.813 66.23V55.78H269.813V66.23H273.813ZM271.813 57.78H309.103V53.78H271.813V57.78ZM308.419 53.9004L301.159 56.5404L302.526 60.2996L309.786 57.6596L308.419 53.9004ZM303.843 58.42C303.843 53.5171 302.716 49.4312 300.175 46.4521L297.131 49.0479C298.844 51.0555 299.843 54.0829 299.843 58.42H303.843ZM300.197 46.4786C297.693 43.4387 294.144 42.01 289.853 42.01V46.01C293.189 46.01 295.506 47.0746 297.109 49.0214L300.197 46.4786ZM289.853 42.01C286.739 42.01 283.931 42.752 281.511 44.3076L283.674 47.6724C285.361 46.588 287.394 46.01 289.853 46.01V42.01ZM281.484 44.3259C279.1 45.9147 277.366 48.2565 276.219 51.2051L279.947 52.6549C280.854 50.3235 282.126 48.7053 283.702 47.6541L281.484 44.3259ZM276.226 51.1872C275.073 54.0687 274.543 57.6068 274.543 61.72H278.543C278.543 57.9132 279.039 54.9246 279.94 52.6728L276.226 51.1872ZM274.543 61.72C274.543 65.7785 275.115 69.295 276.355 72.1878L280.031 70.6122C279.071 68.3717 278.543 65.4348 278.543 61.72H274.543ZM276.383 72.2516C277.699 75.0467 279.558 77.2401 281.995 78.7196L284.071 75.3004C282.401 74.2865 281.034 72.7399 280.003 70.5484L276.383 72.2516ZM282.022 78.7354C284.509 80.1933 287.402 80.88 290.623 80.88V76.88C287.977 76.88 285.811 76.32 284.044 75.2846L282.022 78.7354ZM290.623 80.88C294.089 80.88 297.1 80.2126 299.499 78.7025L297.367 75.3175C295.806 76.3008 293.61 76.88 290.623 76.88V80.88ZM299.499 78.7025C301.804 77.2507 303.587 75.2441 304.842 72.7344L301.264 70.9456C300.319 72.8359 299.022 74.2759 297.367 75.3175L299.499 78.7025ZM302.334 73.7062L314.324 78.3262L315.762 74.5937L303.772 69.9737L302.334 73.7062ZM313.193 75.7009C312.144 78.2567 310.542 80.453 308.359 82.305L310.947 85.355C313.604 83.1003 315.595 80.3833 316.893 77.2191L313.193 75.7009ZM308.336 82.3248C306.211 84.1841 303.628 85.6369 300.551 86.6626L301.815 90.4574C305.338 89.2831 308.402 87.5825 310.97 85.3352L308.336 82.3248ZM300.577 86.6541C297.565 87.6123 294.289 88.1 290.733 88.1V92.1C294.657 92.1 298.347 91.5611 301.789 90.4659L300.577 86.6541ZM363.275 34V32H361.814L361.37 33.3922L363.275 34ZM378.895 34L380.765 34.7104L381.795 32H378.895V34ZM357.995 89V91H359.375L359.865 89.7104L357.995 89ZM340.615 89L338.746 89.7104L339.236 91H340.615V89ZM319.715 34V32H316.816L317.846 34.7104L319.715 34ZM335.775 34L337.684 33.401L337.244 32H335.775V34ZM349.415 77.45L347.507 78.049L349.4 84.0789L351.321 78.0578L349.415 77.45ZM363.275 36H378.895V32H363.275V36ZM377.026 33.2896L356.126 88.2896L359.865 89.7104L380.765 34.7104L377.026 33.2896ZM357.995 87H340.615V91H357.995V87ZM342.485 88.2896L321.585 33.2896L317.846 34.7104L338.746 89.7104L342.485 88.2896ZM319.715 36H335.775V32H319.715V36ZM333.867 34.599L347.507 78.049L351.324 76.851L337.684 33.401L333.867 34.599ZM351.321 78.0578L365.181 34.6078L361.37 33.3922L347.51 76.8422L351.321 78.0578Z" fill="#545454" mask="url(#path-1-outside-1_48_38)"/>
<mask id="path-3-outside-2_48_38" maskUnits="userSpaceOnUse" x="7" y="1" width="368" height="86" fill="black">
<rect fill="white" x="7" y="1" width="368" height="86"/>
<path d="M71.83 10.4V83H56.65V10.4H71.83ZM24.64 10.4V83H9.46V10.4H24.64ZM64.57 40.21V52.42H17.05V40.21H64.57ZM96.8284 20.08C93.675 20.08 91.3284 19.42 89.7884 18.1C88.2484 16.7067 87.4784 14.69 87.4784 12.05C87.4784 9.33666 88.2484 7.32 89.7884 5.99999C91.3284 4.60666 93.675 3.91 96.8284 3.91C99.9817 3.91 102.328 4.60666 103.868 5.99999C105.408 7.32 106.178 9.33666 106.178 12.05C106.178 14.69 105.408 16.7067 103.868 18.1C102.328 19.42 99.9817 20.08 96.8284 20.08ZM104.308 28V83H89.2384V28H104.308ZM141.073 84.1C136.527 84.1 132.457 82.9633 128.863 80.69C125.343 78.4167 122.557 75.1533 120.503 70.9C118.523 66.6467 117.533 61.55 117.533 55.61C117.533 49.5233 118.597 44.3533 120.723 40.1C122.85 35.7733 125.71 32.51 129.303 30.31C132.97 28.0367 137.077 26.9 141.623 26.9C146.463 26.9 150.46 28.2933 153.613 31.08C156.767 33.8667 158.82 37.46 159.773 41.86L158.343 43.62V3.91H173.413V83H159.883L158.893 66.28L160.763 67.16C160.25 70.6067 159.077 73.6133 157.243 76.18C155.41 78.6733 153.1 80.6167 150.313 82.01C147.527 83.4033 144.447 84.1 141.073 84.1ZM145.473 72.55C148.113 72.55 150.387 71.89 152.293 70.57C154.2 69.1767 155.667 67.16 156.693 64.52C157.793 61.88 158.343 58.7267 158.343 55.06C158.343 51.54 157.83 48.57 156.803 46.15C155.777 43.6567 154.31 41.75 152.403 40.43C150.497 39.11 148.26 38.45 145.693 38.45C141.587 38.45 138.36 39.9167 136.013 42.85C133.74 45.71 132.603 49.9267 132.603 55.5C132.603 61.0733 133.74 65.3267 136.013 68.26C138.287 71.12 141.44 72.55 145.473 72.55ZM210.038 84.1C205.491 84.1 201.421 82.9633 197.828 80.69C194.308 78.4167 191.521 75.1533 189.468 70.9C187.488 66.6467 186.498 61.55 186.498 55.61C186.498 49.5233 187.561 44.3533 189.688 40.1C191.815 35.7733 194.675 32.51 198.268 30.31C201.935 28.0367 206.041 26.9 210.588 26.9C215.428 26.9 219.425 28.2933 222.578 31.08C225.731 33.8667 227.785 37.46 228.738 41.86L227.308 43.62V3.91H242.378V83H228.848L227.858 66.28L229.728 67.16C229.215 70.6067 228.041 73.6133 226.208 76.18C224.375 78.6733 222.065 80.6167 219.278 82.01C216.491 83.4033 213.411 84.1 210.038 84.1ZM214.438 72.55C217.078 72.55 219.351 71.89 221.258 70.57C223.165 69.1767 224.631 67.16 225.658 64.52C226.758 61.88 227.308 58.7267 227.308 55.06C227.308 51.54 226.795 48.57 225.768 46.15C224.741 43.6567 223.275 41.75 221.368 40.43C219.461 39.11 217.225 38.45 214.658 38.45C210.551 38.45 207.325 39.9167 204.978 42.85C202.705 45.71 201.568 49.9267 201.568 55.5C201.568 61.0733 202.705 65.3267 204.978 68.26C207.251 71.12 210.405 72.55 214.438 72.55ZM283.733 84.1C277.94 84.1 272.88 82.9633 268.553 80.69C264.3 78.4167 261 75.1533 258.653 70.9C256.306 66.6467 255.133 61.5133 255.133 55.5C255.133 49.4867 256.306 44.3533 258.653 40.1C261 35.8467 264.263 32.5833 268.443 30.31C272.696 28.0367 277.536 26.9 282.963 26.9C288.536 26.9 293.266 28.0367 297.153 30.31C301.04 32.51 304.01 35.5533 306.063 39.44C308.116 43.2533 309.143 47.6167 309.143 52.53C309.143 53.9967 309.106 55.39 309.033 56.71C308.96 58.03 308.85 59.2033 308.703 60.23H264.813V49.78H302.103L294.843 52.42C294.843 47.8 293.78 44.2433 291.653 41.75C289.6 39.2567 286.666 38.01 282.853 38.01C280.066 38.01 277.646 38.67 275.593 39.99C273.613 41.31 272.11 43.29 271.083 45.93C270.056 48.4967 269.543 51.76 269.543 55.72C269.543 59.6067 270.093 62.8333 271.193 65.4C272.366 67.8933 273.98 69.7633 276.033 71.01C278.16 72.2567 280.69 72.88 283.623 72.88C286.85 72.88 289.453 72.2567 291.433 71.01C293.413 69.7633 294.953 68.04 296.053 65.84L308.043 70.46C306.87 73.32 305.073 75.7767 302.653 77.83C300.306 79.8833 297.483 81.46 294.183 82.56C290.956 83.5867 287.473 84.1 283.733 84.1ZM356.275 28H371.895L350.995 83H333.615L312.715 28H328.775L342.415 71.45L356.275 28Z"/>
</mask>
<path d="M71.83 10.4V83H56.65V10.4H71.83ZM24.64 10.4V83H9.46V10.4H24.64ZM64.57 40.21V52.42H17.05V40.21H64.57ZM96.8284 20.08C93.675 20.08 91.3284 19.42 89.7884 18.1C88.2484 16.7067 87.4784 14.69 87.4784 12.05C87.4784 9.33666 88.2484 7.32 89.7884 5.99999C91.3284 4.60666 93.675 3.91 96.8284 3.91C99.9817 3.91 102.328 4.60666 103.868 5.99999C105.408 7.32 106.178 9.33666 106.178 12.05C106.178 14.69 105.408 16.7067 103.868 18.1C102.328 19.42 99.9817 20.08 96.8284 20.08ZM104.308 28V83H89.2384V28H104.308ZM141.073 84.1C136.527 84.1 132.457 82.9633 128.863 80.69C125.343 78.4167 122.557 75.1533 120.503 70.9C118.523 66.6467 117.533 61.55 117.533 55.61C117.533 49.5233 118.597 44.3533 120.723 40.1C122.85 35.7733 125.71 32.51 129.303 30.31C132.97 28.0367 137.077 26.9 141.623 26.9C146.463 26.9 150.46 28.2933 153.613 31.08C156.767 33.8667 158.82 37.46 159.773 41.86L158.343 43.62V3.91H173.413V83H159.883L158.893 66.28L160.763 67.16C160.25 70.6067 159.077 73.6133 157.243 76.18C155.41 78.6733 153.1 80.6167 150.313 82.01C147.527 83.4033 144.447 84.1 141.073 84.1ZM145.473 72.55C148.113 72.55 150.387 71.89 152.293 70.57C154.2 69.1767 155.667 67.16 156.693 64.52C157.793 61.88 158.343 58.7267 158.343 55.06C158.343 51.54 157.83 48.57 156.803 46.15C155.777 43.6567 154.31 41.75 152.403 40.43C150.497 39.11 148.26 38.45 145.693 38.45C141.587 38.45 138.36 39.9167 136.013 42.85C133.74 45.71 132.603 49.9267 132.603 55.5C132.603 61.0733 133.74 65.3267 136.013 68.26C138.287 71.12 141.44 72.55 145.473 72.55ZM210.038 84.1C205.491 84.1 201.421 82.9633 197.828 80.69C194.308 78.4167 191.521 75.1533 189.468 70.9C187.488 66.6467 186.498 61.55 186.498 55.61C186.498 49.5233 187.561 44.3533 189.688 40.1C191.815 35.7733 194.675 32.51 198.268 30.31C201.935 28.0367 206.041 26.9 210.588 26.9C215.428 26.9 219.425 28.2933 222.578 31.08C225.731 33.8667 227.785 37.46 228.738 41.86L227.308 43.62V3.91H242.378V83H228.848L227.858 66.28L229.728 67.16C229.215 70.6067 228.041 73.6133 226.208 76.18C224.375 78.6733 222.065 80.6167 219.278 82.01C216.491 83.4033 213.411 84.1 210.038 84.1ZM214.438 72.55C217.078 72.55 219.351 71.89 221.258 70.57C223.165 69.1767 224.631 67.16 225.658 64.52C226.758 61.88 227.308 58.7267 227.308 55.06C227.308 51.54 226.795 48.57 225.768 46.15C224.741 43.6567 223.275 41.75 221.368 40.43C219.461 39.11 217.225 38.45 214.658 38.45C210.551 38.45 207.325 39.9167 204.978 42.85C202.705 45.71 201.568 49.9267 201.568 55.5C201.568 61.0733 202.705 65.3267 204.978 68.26C207.251 71.12 210.405 72.55 214.438 72.55ZM283.733 84.1C277.94 84.1 272.88 82.9633 268.553 80.69C264.3 78.4167 261 75.1533 258.653 70.9C256.306 66.6467 255.133 61.5133 255.133 55.5C255.133 49.4867 256.306 44.3533 258.653 40.1C261 35.8467 264.263 32.5833 268.443 30.31C272.696 28.0367 277.536 26.9 282.963 26.9C288.536 26.9 293.266 28.0367 297.153 30.31C301.04 32.51 304.01 35.5533 306.063 39.44C308.116 43.2533 309.143 47.6167 309.143 52.53C309.143 53.9967 309.106 55.39 309.033 56.71C308.96 58.03 308.85 59.2033 308.703 60.23H264.813V49.78H302.103L294.843 52.42C294.843 47.8 293.78 44.2433 291.653 41.75C289.6 39.2567 286.666 38.01 282.853 38.01C280.066 38.01 277.646 38.67 275.593 39.99C273.613 41.31 272.11 43.29 271.083 45.93C270.056 48.4967 269.543 51.76 269.543 55.72C269.543 59.6067 270.093 62.8333 271.193 65.4C272.366 67.8933 273.98 69.7633 276.033 71.01C278.16 72.2567 280.69 72.88 283.623 72.88C286.85 72.88 289.453 72.2567 291.433 71.01C293.413 69.7633 294.953 68.04 296.053 65.84L308.043 70.46C306.87 73.32 305.073 75.7767 302.653 77.83C300.306 79.8833 297.483 81.46 294.183 82.56C290.956 83.5867 287.473 84.1 283.733 84.1ZM356.275 28H371.895L350.995 83H333.615L312.715 28H328.775L342.415 71.45L356.275 28Z" fill="white"/>
<path d="M71.83 10.4H73.83V8.4H71.83V10.4ZM71.83 83V85H73.83V83H71.83ZM56.65 83H54.65V85H56.65V83ZM56.65 10.4V8.4H54.65V10.4H56.65ZM24.64 10.4H26.64V8.4H24.64V10.4ZM24.64 83V85H26.64V83H24.64ZM9.46 83H7.46V85H9.46V83ZM9.46 10.4V8.4H7.46V10.4H9.46ZM64.57 40.21H66.57V38.21H64.57V40.21ZM64.57 52.42V54.42H66.57V52.42H64.57ZM17.05 52.42H15.05V54.42H17.05V52.42ZM17.05 40.21V38.21H15.05V40.21H17.05ZM69.83 10.4V83H73.83V10.4H69.83ZM71.83 81H56.65V85H71.83V81ZM58.65 83V10.4H54.65V83H58.65ZM56.65 12.4H71.83V8.4H56.65V12.4ZM22.64 10.4V83H26.64V10.4H22.64ZM24.64 81H9.46V85H24.64V81ZM11.46 83V10.4H7.46V83H11.46ZM9.46 12.4H24.64V8.4H9.46V12.4ZM62.57 40.21V52.42H66.57V40.21H62.57ZM64.57 50.42H17.05V54.42H64.57V50.42ZM19.05 52.42V40.21H15.05V52.42H19.05ZM17.05 42.21H64.57V38.21H17.05V42.21ZM89.7884 18.1L88.4465 19.5831L88.4664 19.6011L88.4868 19.6185L89.7884 18.1ZM89.7884 5.99999L91.0899 7.51851L91.1103 7.50106L91.1302 7.48307L89.7884 5.99999ZM103.868 5.99999L102.527 7.48307L102.546 7.50106L102.567 7.51851L103.868 5.99999ZM103.868 18.1L105.17 19.6185L105.19 19.6011L105.21 19.5831L103.868 18.1ZM104.308 28H106.308V26H104.308V28ZM104.308 83V85H106.308V83H104.308ZM89.2384 83H87.2384V85H89.2384V83ZM89.2384 28V26H87.2384V28H89.2384ZM96.8284 18.08C93.9001 18.08 92.1134 17.4587 91.0899 16.5815L88.4868 19.6185C90.5434 21.3813 93.4499 22.08 96.8284 22.08V18.08ZM91.1302 16.6169C90.1169 15.7002 89.4784 14.2885 89.4784 12.05H85.4784C85.4784 15.0915 86.3798 17.7132 88.4465 19.5831L91.1302 16.6169ZM89.4784 12.05C89.4784 9.71186 90.1303 8.34103 91.0899 7.51851L88.4868 4.48148C86.3664 6.29896 85.4784 8.96146 85.4784 12.05H89.4784ZM91.1302 7.48307C92.1522 6.55842 93.9218 5.91 96.8284 5.91V1.91C93.4282 1.91 90.5046 2.6549 88.4465 4.51692L91.1302 7.48307ZM96.8284 5.91C99.7349 5.91 101.505 6.55842 102.527 7.48307L105.21 4.51692C103.152 2.6549 100.228 1.91 96.8284 1.91V5.91ZM102.567 7.51851C103.526 8.34103 104.178 9.71186 104.178 12.05H108.178C108.178 8.96146 107.29 6.29896 105.17 4.48148L102.567 7.51851ZM104.178 12.05C104.178 14.2885 103.54 15.7002 102.527 16.6169L105.21 19.5831C107.277 17.7132 108.178 15.0915 108.178 12.05H104.178ZM102.567 16.5815C101.543 17.4587 99.7566 18.08 96.8284 18.08V22.08C100.207 22.08 103.113 21.3813 105.17 19.6185L102.567 16.5815ZM102.308 28V83H106.308V28H102.308ZM104.308 81H89.2384V85H104.308V81ZM91.2384 83V28H87.2384V83H91.2384ZM89.2384 30H104.308V26H89.2384V30ZM128.863 80.69L127.778 82.3701L127.786 82.3752L127.794 82.3802L128.863 80.69ZM120.503 70.9L118.69 71.7441L118.696 71.7568L118.702 71.7695L120.503 70.9ZM120.723 40.1L122.512 40.9944L122.518 40.9822L120.723 40.1ZM129.303 30.31L130.348 32.0157L130.357 32.0098L129.303 30.31ZM153.613 31.08L154.938 29.5813L154.938 29.5813L153.613 31.08ZM159.773 41.86L161.326 43.1212L161.931 42.3755L161.728 41.4365L159.773 41.86ZM158.343 43.62H156.343V49.2532L159.896 44.8812L158.343 43.62ZM158.343 3.91V1.91H156.343V3.91H158.343ZM173.413 3.91H175.413V1.91H173.413V3.91ZM173.413 83V85H175.413V83H173.413ZM159.883 83L157.887 83.1182L157.998 85H159.883V83ZM158.893 66.28L159.745 64.4704L156.698 63.0364L156.897 66.3982L158.893 66.28ZM160.763 67.16L162.741 67.4546L162.961 65.9836L161.615 65.3504L160.763 67.16ZM157.243 76.18L158.855 77.3648L158.863 77.3537L158.871 77.3425L157.243 76.18ZM150.313 82.01L151.208 83.7989L151.208 83.7989L150.313 82.01ZM152.293 70.57L153.432 72.2144L153.453 72.1998L153.473 72.1848L152.293 70.57ZM156.693 64.52L154.847 63.7508L154.838 63.7728L154.829 63.7951L156.693 64.52ZM156.803 46.15L154.954 46.9115L154.958 46.9213L154.962 46.9311L156.803 46.15ZM136.013 42.85L134.452 41.6006L134.448 41.6055L136.013 42.85ZM136.013 68.26L134.432 69.4851L134.44 69.4949L134.448 69.5045L136.013 68.26ZM141.073 82.1C136.878 82.1 133.184 81.0566 129.933 78.9998L127.794 82.3802C131.73 84.87 136.175 86.1 141.073 86.1V82.1ZM129.948 79.0099C126.775 76.9604 124.219 73.9961 122.304 70.0305L118.702 71.7695C120.894 76.3105 123.912 79.873 127.778 82.3701L129.948 79.0099ZM122.316 70.0559C120.488 66.1275 119.533 61.3335 119.533 55.61H115.533C115.533 61.7665 116.559 67.1658 118.69 71.7441L122.316 70.0559ZM119.533 55.61C119.533 49.7496 120.558 44.9034 122.512 40.9944L118.934 39.2056C116.636 43.8033 115.533 49.2971 115.533 55.61H119.533ZM122.518 40.9822C124.502 36.9454 127.122 33.9905 130.348 32.0157L128.259 28.6043C124.298 31.0295 121.197 34.6013 118.928 39.2178L122.518 40.9822ZM130.357 32.0098C133.69 29.9435 137.428 28.9 141.623 28.9V24.9C136.725 24.9 132.25 26.1299 128.249 28.6102L130.357 32.0098ZM141.623 28.9C146.053 28.9 149.556 30.1632 152.289 32.5787L154.938 29.5813C151.364 26.4235 146.873 24.9 141.623 24.9V28.9ZM152.289 32.5787C155.1 35.063 156.949 38.269 157.819 42.2835L161.728 41.4365C160.691 36.651 158.433 32.6703 154.938 29.5813L152.289 32.5787ZM158.221 40.5988L156.791 42.3588L159.896 44.8812L161.326 43.1212L158.221 40.5988ZM160.343 43.62V3.91H156.343V43.62H160.343ZM158.343 5.91H173.413V1.91H158.343V5.91ZM171.413 3.91V83H175.413V3.91H171.413ZM173.413 81H159.883V85H173.413V81ZM161.88 82.8818L160.89 66.1618L156.897 66.3982L157.887 83.1182L161.88 82.8818ZM158.042 68.0896L159.912 68.9696L161.615 65.3504L159.745 64.4704L158.042 68.0896ZM158.785 66.8654C158.313 70.0324 157.247 72.7344 155.616 75.0175L158.871 77.3425C160.907 74.4923 162.186 71.1809 162.741 67.4546L158.785 66.8654ZM155.632 74.9952C153.988 77.2315 151.924 78.9685 149.419 80.2211L151.208 83.7989C154.276 82.2648 156.832 80.1152 158.855 77.3648L155.632 74.9952ZM149.419 80.2211C146.932 81.4644 144.162 82.1 141.073 82.1V86.1C144.731 86.1 148.121 85.3423 151.208 83.7989L149.419 80.2211ZM145.473 74.55C148.462 74.55 151.146 73.7971 153.432 72.2144L151.155 68.9256C149.628 69.9829 147.765 70.55 145.473 70.55V74.55ZM153.473 72.1848C155.745 70.5247 157.42 68.169 158.557 65.2449L154.829 63.7951C153.913 66.151 152.655 67.8286 151.113 68.9552L153.473 72.1848ZM158.539 65.2892C159.765 62.3473 160.343 58.9194 160.343 55.06H156.343C156.343 58.534 155.821 61.4127 154.847 63.7508L158.539 65.2892ZM160.343 55.06C160.343 51.3576 159.805 48.1044 158.644 45.3689L154.962 46.9311C155.855 49.0356 156.343 51.7224 156.343 55.06H160.343ZM158.653 45.3885C157.504 42.5978 155.814 40.3591 153.542 38.7856L151.265 42.0744C152.805 43.1409 154.05 44.7155 154.954 46.9115L158.653 45.3885ZM153.542 38.7856C151.265 37.2095 148.621 36.45 145.693 36.45V40.45C147.898 40.45 149.728 41.0105 151.265 42.0744L153.542 38.7856ZM145.693 36.45C141.044 36.45 137.216 38.1445 134.452 41.6006L137.575 44.0994C139.503 41.6888 142.129 40.45 145.693 40.45V36.45ZM134.448 41.6055C131.779 44.9629 130.603 49.7005 130.603 55.5H134.603C134.603 50.1528 135.701 46.4571 137.579 44.0945L134.448 41.6055ZM130.603 55.5C130.603 61.3046 131.781 66.064 134.432 69.4851L137.594 67.0349C135.699 64.5894 134.603 60.8421 134.603 55.5H130.603ZM134.448 69.5045C137.143 72.8957 140.903 74.55 145.473 74.55V70.55C141.977 70.55 139.43 69.3443 137.579 67.0155L134.448 69.5045ZM197.828 80.69L196.743 82.3701L196.751 82.3752L196.759 82.3802L197.828 80.69ZM189.468 70.9L187.655 71.7441L187.661 71.7568L187.667 71.7695L189.468 70.9ZM189.688 40.1L191.477 40.9944L191.483 40.9822L189.688 40.1ZM198.268 30.31L199.312 32.0157L199.322 32.0098L198.268 30.31ZM222.578 31.08L223.903 29.5813L223.903 29.5813L222.578 31.08ZM228.738 41.86L230.29 43.1212L230.896 42.3755L230.693 41.4365L228.738 41.86ZM227.308 43.62H225.308V49.2532L228.86 44.8812L227.308 43.62ZM227.308 3.91V1.91H225.308V3.91H227.308ZM242.378 3.91H244.378V1.91H242.378V3.91ZM242.378 83V85H244.378V83H242.378ZM228.848 83L226.852 83.1182L226.963 85H228.848V83ZM227.858 66.28L228.71 64.4704L225.663 63.0364L225.862 66.3982L227.858 66.28ZM229.728 67.16L231.706 67.4546L231.925 65.9836L230.58 65.3504L229.728 67.16ZM226.208 76.18L227.819 77.3648L227.828 77.3537L227.836 77.3425L226.208 76.18ZM219.278 82.01L220.173 83.7989L220.173 83.7989L219.278 82.01ZM221.258 70.57L222.397 72.2144L222.418 72.1998L222.438 72.1848L221.258 70.57ZM225.658 64.52L223.812 63.7508L223.803 63.7728L223.794 63.7951L225.658 64.52ZM225.768 46.15L223.919 46.9115L223.923 46.9213L223.927 46.9311L225.768 46.15ZM204.978 42.85L203.416 41.6006L203.412 41.6055L204.978 42.85ZM204.978 68.26L203.397 69.4851L203.405 69.4949L203.412 69.5045L204.978 68.26ZM210.038 82.1C205.843 82.1 202.148 81.0566 198.897 78.9998L196.759 82.3802C200.694 84.87 205.14 86.1 210.038 86.1V82.1ZM198.913 79.0099C195.74 76.9604 193.184 73.9961 191.269 70.0305L187.667 71.7695C189.859 76.3105 192.877 79.873 196.743 82.3701L198.913 79.0099ZM191.281 70.0559C189.453 66.1275 188.498 61.3335 188.498 55.61H184.498C184.498 61.7665 185.524 67.1658 187.655 71.7441L191.281 70.0559ZM188.498 55.61C188.498 49.7496 189.522 44.9034 191.477 40.9944L187.899 39.2056C185.6 43.8033 184.498 49.2971 184.498 55.61H188.498ZM191.483 40.9822C193.467 36.9454 196.087 33.9905 199.312 32.0157L197.224 28.6043C193.263 31.0295 190.162 34.6013 187.893 39.2178L191.483 40.9822ZM199.322 32.0098C202.655 29.9435 206.393 28.9 210.588 28.9V24.9C205.69 24.9 201.215 26.1299 197.214 28.6102L199.322 32.0098ZM210.588 28.9C215.018 28.9 218.52 30.1632 221.254 32.5787L223.903 29.5813C220.329 26.4235 215.838 24.9 210.588 24.9V28.9ZM221.254 32.5787C224.065 35.063 225.914 38.269 226.783 42.2835L230.693 41.4365C229.656 36.651 227.398 32.6703 223.903 29.5813L221.254 32.5787ZM227.186 40.5988L225.756 42.3588L228.86 44.8812L230.29 43.1212L227.186 40.5988ZM229.308 43.62V3.91H225.308V43.62H229.308ZM227.308 5.91H242.378V1.91H227.308V5.91ZM240.378 3.91V83H244.378V3.91H240.378ZM242.378 81H228.848V85H242.378V81ZM230.845 82.8818L229.855 66.1618L225.862 66.3982L226.852 83.1182L230.845 82.8818ZM227.007 68.0896L228.877 68.9696L230.58 65.3504L228.71 64.4704L227.007 68.0896ZM227.75 66.8654C227.278 70.0324 226.211 72.7344 224.581 75.0175L227.836 77.3425C229.871 74.4923 231.151 71.1809 231.706 67.4546L227.75 66.8654ZM224.597 74.9952C222.953 77.2315 220.889 78.9685 218.384 80.2211L220.173 83.7989C223.241 82.2648 225.797 80.1152 227.819 77.3648L224.597 74.9952ZM218.384 80.2211C215.897 81.4644 213.127 82.1 210.038 82.1V86.1C213.696 86.1 217.086 85.3423 220.173 83.7989L218.384 80.2211ZM214.438 74.55C217.427 74.55 220.11 73.7971 222.397 72.2144L220.12 68.9256C218.592 69.9829 216.73 70.55 214.438 70.55V74.55ZM222.438 72.1848C224.71 70.5247 226.385 68.169 227.522 65.2449L223.794 63.7951C222.878 66.151 221.62 67.8286 220.078 68.9552L222.438 72.1848ZM227.504 65.2892C228.73 62.3473 229.308 58.9194 229.308 55.06H225.308C225.308 58.534 224.786 61.4127 223.812 63.7508L227.504 65.2892ZM229.308 55.06C229.308 51.3576 228.77 48.1044 227.609 45.3689L223.927 46.9311C224.82 49.0356 225.308 51.7224 225.308 55.06H229.308ZM227.617 45.3885C226.468 42.5978 224.779 40.3591 222.507 38.7856L220.23 42.0744C221.77 43.1409 223.015 44.7155 223.919 46.9115L227.617 45.3885ZM222.507 38.7856C220.23 37.2095 217.586 36.45 214.658 36.45V40.45C216.863 40.45 218.693 41.0105 220.23 42.0744L222.507 38.7856ZM214.658 36.45C210.009 36.45 206.181 38.1445 203.416 41.6006L206.54 44.0994C208.468 41.6888 211.094 40.45 214.658 40.45V36.45ZM203.412 41.6055C200.744 44.9629 199.568 49.7005 199.568 55.5H203.568C203.568 50.1528 204.666 46.4571 206.544 44.0945L203.412 41.6055ZM199.568 55.5C199.568 61.3046 200.746 66.064 203.397 69.4851L206.559 67.0349C204.664 64.5894 203.568 60.8421 203.568 55.5H199.568ZM203.412 69.5045C206.108 72.8957 209.867 74.55 214.438 74.55V70.55C210.942 70.55 208.395 69.3443 206.544 67.0155L203.412 69.5045ZM268.553 80.69L267.61 82.4539L267.616 82.4572L267.623 82.4605L268.553 80.69ZM258.653 70.9L260.404 69.9338L260.404 69.9338L258.653 70.9ZM258.653 40.1L260.404 41.0662L260.404 41.0662L258.653 40.1ZM268.443 30.31L267.5 28.5461L267.494 28.5496L267.487 28.553L268.443 30.31ZM297.153 30.31L296.143 32.0364L296.155 32.0435L296.168 32.0505L297.153 30.31ZM306.063 39.44L304.295 40.3742L304.298 40.3812L304.302 40.3882L306.063 39.44ZM308.703 60.23V62.23H310.438L310.683 60.5128L308.703 60.23ZM264.813 60.23H262.813V62.23H264.813V60.23ZM264.813 49.78V47.78H262.813V49.78H264.813ZM302.103 49.78L302.786 51.6596L302.103 47.78V49.78ZM294.843 52.42H292.843V55.2754L295.526 54.2996L294.843 52.42ZM291.653 41.75L290.109 43.0214L290.12 43.0347L290.131 43.0479L291.653 41.75ZM275.593 39.99L274.511 38.3076L274.497 38.3167L274.484 38.3259L275.593 39.99ZM271.083 45.93L272.94 46.6728L272.943 46.6639L272.947 46.6549L271.083 45.93ZM271.193 65.4L269.355 66.1878L269.368 66.22L269.383 66.2516L271.193 65.4ZM276.033 71.01L274.995 72.7196L275.008 72.7276L275.022 72.7354L276.033 71.01ZM296.053 65.84L296.772 63.9737L295.077 63.3205L294.264 64.9456L296.053 65.84ZM308.043 70.46L309.893 71.2191L310.669 69.3285L308.762 68.5937L308.043 70.46ZM302.653 77.83L301.359 76.305L301.347 76.3148L301.336 76.3248L302.653 77.83ZM294.183 82.56L294.789 84.4659L294.802 84.4617L294.815 84.4574L294.183 82.56ZM283.733 82.1C278.204 82.1 273.474 81.0165 269.483 78.9195L267.623 82.4605C272.285 84.9102 277.675 86.1 283.733 86.1V82.1ZM269.496 78.9261C265.586 76.8364 262.566 73.8514 260.404 69.9338L256.902 71.8662C259.434 76.4553 263.013 79.9969 267.61 82.4539L269.496 78.9261ZM260.404 69.9338C258.255 66.0389 257.133 61.2548 257.133 55.5H253.133C253.133 61.7719 254.357 67.2545 256.902 71.8662L260.404 69.9338ZM257.133 55.5C257.133 49.7452 258.255 44.9611 260.404 41.0662L256.902 39.1338C254.357 43.7455 253.133 49.2281 253.133 55.5H257.133ZM260.404 41.0662C262.571 37.1395 265.561 34.154 269.399 32.067L267.487 28.553C262.965 31.0127 259.429 34.5538 256.902 39.1338L260.404 41.0662ZM269.386 32.0739C273.314 29.9741 277.823 28.9 282.963 28.9V24.9C277.249 24.9 272.078 26.0992 267.5 28.5461L269.386 32.0739ZM282.963 28.9C288.265 28.9 292.628 29.9802 296.143 32.0364L298.163 28.5836C293.905 26.0931 288.807 24.9 282.963 24.9V28.9ZM296.168 32.0505C299.727 34.0653 302.423 36.8314 304.295 40.3742L307.831 38.5058C305.596 34.2753 302.352 30.9546 298.138 28.5695L296.168 32.0505ZM304.302 40.3882C306.178 43.8729 307.143 47.9026 307.143 52.53H311.143C311.143 47.3307 310.054 42.6338 307.824 38.4918L304.302 40.3882ZM307.143 52.53C307.143 53.9636 307.107 55.3197 307.036 56.5991L311.03 56.8209C311.105 55.4603 311.143 54.0297 311.143 52.53H307.143ZM307.036 56.5991C306.965 57.8763 306.86 58.9905 306.723 59.9472L310.683 60.5128C310.84 59.4162 310.954 58.1837 311.03 56.8209L307.036 56.5991ZM308.703 58.23H264.813V62.23H308.703V58.23ZM266.813 60.23V49.78H262.813V60.23H266.813ZM264.813 51.78H302.103V47.78H264.813V51.78ZM301.419 47.9004L294.159 50.5404L295.526 54.2996L302.786 51.6596L301.419 47.9004ZM296.843 52.42C296.843 47.5171 295.716 43.4312 293.175 40.4521L290.131 43.0479C291.844 45.0555 292.843 48.0829 292.843 52.42H296.843ZM293.197 40.4786C290.693 37.4387 287.144 36.01 282.853 36.01V40.01C286.189 40.01 288.506 41.0746 290.109 43.0214L293.197 40.4786ZM282.853 36.01C279.739 36.01 276.931 36.752 274.511 38.3076L276.674 41.6724C278.361 40.588 280.394 40.01 282.853 40.01V36.01ZM274.484 38.3259C272.1 39.9147 270.366 42.2565 269.219 45.2051L272.947 46.6549C273.854 44.3235 275.126 42.7053 276.702 41.6541L274.484 38.3259ZM269.226 45.1872C268.073 48.0687 267.543 51.6068 267.543 55.72H271.543C271.543 51.9132 272.039 48.9246 272.94 46.6728L269.226 45.1872ZM267.543 55.72C267.543 59.7785 268.115 63.295 269.355 66.1878L273.031 64.6122C272.071 62.3717 271.543 59.4348 271.543 55.72H267.543ZM269.383 66.2516C270.699 69.0467 272.558 71.2401 274.995 72.7196L277.071 69.3004C275.401 68.2865 274.034 66.7399 273.003 64.5484L269.383 66.2516ZM275.022 72.7354C277.509 74.1933 280.402 74.88 283.623 74.88V70.88C280.977 70.88 278.811 70.32 277.044 69.2846L275.022 72.7354ZM283.623 74.88C287.089 74.88 290.1 74.2126 292.499 72.7025L290.367 69.3175C288.806 70.3008 286.61 70.88 283.623 70.88V74.88ZM292.499 72.7025C294.804 71.2507 296.587 69.2441 297.842 66.7344L294.264 64.9456C293.319 66.8359 292.022 68.2759 290.367 69.3175L292.499 72.7025ZM295.334 67.7062L307.324 72.3262L308.762 68.5937L296.772 63.9737L295.334 67.7062ZM306.193 69.7009C305.144 72.2567 303.542 74.453 301.359 76.305L303.947 79.355C306.604 77.1003 308.595 74.3833 309.893 71.2191L306.193 69.7009ZM301.336 76.3248C299.211 78.1841 296.628 79.6369 293.551 80.6626L294.815 84.4574C298.338 83.2831 301.402 81.5825 303.97 79.3352L301.336 76.3248ZM293.577 80.6541C290.565 81.6123 287.289 82.1 283.733 82.1V86.1C287.657 86.1 291.347 85.5611 294.789 84.4659L293.577 80.6541ZM356.275 28V26H354.814L354.37 27.3922L356.275 28ZM371.895 28L373.765 28.7104L374.795 26H371.895V28ZM350.995 83V85H352.375L352.865 83.7104L350.995 83ZM333.615 83L331.746 83.7104L332.236 85H333.615V83ZM312.715 28V26H309.816L310.846 28.7104L312.715 28ZM328.775 28L330.684 27.401L330.244 26H328.775V28ZM342.415 71.45L340.507 72.049L342.4 78.0789L344.321 72.0578L342.415 71.45ZM356.275 30H371.895V26H356.275V30ZM370.026 27.2896L349.126 82.2896L352.865 83.7104L373.765 28.7104L370.026 27.2896ZM350.995 81H333.615V85H350.995V81ZM335.485 82.2896L314.585 27.2896L310.846 28.7104L331.746 83.7104L335.485 82.2896ZM312.715 30H328.775V26H312.715V30ZM326.867 28.599L340.507 72.049L344.324 70.851L330.684 27.401L326.867 28.599ZM344.321 72.0578L358.181 28.6078L354.37 27.3922L340.51 70.8422L344.321 72.0578Z" fill="#545454" mask="url(#path-3-outside-2_48_38)"/>
</svg>
