<svg width="343" height="97" viewBox="0 0 343 97" fill="none" xmlns="http://www.w3.org/2000/svg">
<mask id="path-1-outside-1_48_38" maskUnits="userSpaceOnUse" x="6" y="7" width="331" height="86" fill="black">
<rect fill="white" x="6" y="7" width="331" height="86"/>
<path d="M30.21 89L9.09 16.4H25.26L39.56 76.35L54.08 16.4H68.6L83.34 76.35L97.53 16.4H113.04L91.92 89H74.87L64.75 49.4L61.34 32.24H61.12L57.71 49.4L47.7 89H30.21ZM150.147 53.91C150.147 50.7567 149.23 48.3 147.397 46.54C145.637 44.78 143.29 43.9 140.357 43.9C137.644 43.9 135.26 44.5967 133.207 45.99C131.154 47.3833 129.65 49.6933 128.697 52.92L115.827 48.96C117.074 44.12 119.787 40.2333 123.967 37.3C128.22 34.3667 133.904 32.9 141.017 32.9C145.857 32.9 150.074 33.67 153.667 35.21C157.26 36.6767 160.047 38.9133 162.027 41.92C164.08 44.9267 165.107 48.7033 165.107 53.25V75.58C165.107 78.3667 166.427 79.76 169.067 79.76C170.314 79.76 171.487 79.5767 172.587 79.21L171.707 88.56C169.8 89.5133 167.417 89.99 164.557 89.99C161.99 89.99 159.68 89.55 157.627 88.67C155.574 87.79 153.96 86.47 152.787 84.71C151.614 82.8767 151.027 80.6033 151.027 77.89V77.45L153.667 77.01C153.227 79.7967 152.017 82.18 150.037 84.16C148.057 86.0667 145.637 87.5333 142.777 88.56C139.99 89.5867 137.094 90.1 134.087 90.1C130.347 90.1 127.12 89.55 124.407 88.45C121.694 87.2767 119.604 85.59 118.137 83.39C116.67 81.19 115.937 78.4767 115.937 75.25C115.937 71.1433 117.257 67.8067 119.897 65.24C122.537 62.6 126.314 60.8033 131.227 59.85L151.907 55.67L151.797 65.02L138.597 67.66C136.104 68.1733 134.197 68.87 132.877 69.75C131.63 70.5567 131.007 71.9133 131.007 73.82C131.007 75.6533 131.667 77.0467 132.987 78C134.38 78.9533 136.03 79.43 137.937 79.43C139.477 79.43 140.98 79.2467 142.447 78.88C143.914 78.5133 145.234 77.9267 146.407 77.12C147.58 76.3133 148.497 75.2133 149.157 73.82C149.817 72.4267 150.147 70.74 150.147 68.76V53.91ZM181.961 89V9.91H197.031V43.35C198.791 39.83 201.211 37.2267 204.291 35.54C207.371 33.78 210.854 32.9 214.741 32.9C218.554 32.9 221.928 33.6333 224.861 35.1C227.868 36.5667 230.214 38.8033 231.901 41.81C233.661 44.7433 234.541 48.4467 234.541 52.92V89H219.471V57.32C219.471 52.5533 218.554 49.29 216.721 47.53C214.888 45.6967 212.541 44.78 209.681 44.78C207.554 44.78 205.501 45.2933 203.521 46.32C201.614 47.2733 200.038 48.8867 198.791 51.16C197.618 53.36 197.031 56.2933 197.031 59.96V89H181.961ZM257.656 26.08C254.503 26.08 252.156 25.42 250.616 24.1C249.076 22.7067 248.306 20.69 248.306 18.05C248.306 15.3367 249.076 13.32 250.616 12C252.156 10.6067 254.503 9.91 257.656 9.91C260.81 9.91 263.156 10.6067 264.696 12C266.236 13.32 267.006 15.3367 267.006 18.05C267.006 20.69 266.236 22.7067 264.696 24.1C263.156 25.42 260.81 26.08 257.656 26.08ZM265.136 34V89H250.066V34H265.136ZM301.901 90.1C297.355 90.1 293.285 88.9633 289.691 86.69C286.171 84.4167 283.385 81.1533 281.331 76.9C279.351 72.6467 278.361 67.55 278.361 61.61C278.361 55.5233 279.425 50.3533 281.551 46.1C283.678 41.7733 286.538 38.51 290.131 36.31C293.798 34.0367 297.905 32.9 302.451 32.9C307.291 32.9 311.288 34.2933 314.441 37.08C317.595 39.8667 319.648 43.46 320.601 47.86L319.171 49.62V9.91H334.241V89H320.711L319.721 72.28L321.591 73.16C321.078 76.6067 319.905 79.6133 318.071 82.18C316.238 84.6733 313.928 86.6167 311.141 88.01C308.355 89.4033 305.275 90.1 301.901 90.1ZM306.301 78.55C308.941 78.55 311.215 77.89 313.121 76.57C315.028 75.1767 316.495 73.16 317.521 70.52C318.621 67.88 319.171 64.7267 319.171 61.06C319.171 57.54 318.658 54.57 317.631 52.15C316.605 49.6567 315.138 47.75 313.231 46.43C311.325 45.11 309.088 44.45 306.521 44.45C302.415 44.45 299.188 45.9167 296.841 48.85C294.568 51.71 293.431 55.9267 293.431 61.5C293.431 67.0733 294.568 71.3267 296.841 74.26C299.115 77.12 302.268 78.55 306.301 78.55Z"/>
</mask>
<path d="M30.21 89L9.09 16.4H25.26L39.56 76.35L54.08 16.4H68.6L83.34 76.35L97.53 16.4H113.04L91.92 89H74.87L64.75 49.4L61.34 32.24H61.12L57.71 49.4L47.7 89H30.21ZM150.147 53.91C150.147 50.7567 149.23 48.3 147.397 46.54C145.637 44.78 143.29 43.9 140.357 43.9C137.644 43.9 135.26 44.5967 133.207 45.99C131.154 47.3833 129.65 49.6933 128.697 52.92L115.827 48.96C117.074 44.12 119.787 40.2333 123.967 37.3C128.22 34.3667 133.904 32.9 141.017 32.9C145.857 32.9 150.074 33.67 153.667 35.21C157.26 36.6767 160.047 38.9133 162.027 41.92C164.08 44.9267 165.107 48.7033 165.107 53.25V75.58C165.107 78.3667 166.427 79.76 169.067 79.76C170.314 79.76 171.487 79.5767 172.587 79.21L171.707 88.56C169.8 89.5133 167.417 89.99 164.557 89.99C161.99 89.99 159.68 89.55 157.627 88.67C155.574 87.79 153.96 86.47 152.787 84.71C151.614 82.8767 151.027 80.6033 151.027 77.89V77.45L153.667 77.01C153.227 79.7967 152.017 82.18 150.037 84.16C148.057 86.0667 145.637 87.5333 142.777 88.56C139.99 89.5867 137.094 90.1 134.087 90.1C130.347 90.1 127.12 89.55 124.407 88.45C121.694 87.2767 119.604 85.59 118.137 83.39C116.67 81.19 115.937 78.4767 115.937 75.25C115.937 71.1433 117.257 67.8067 119.897 65.24C122.537 62.6 126.314 60.8033 131.227 59.85L151.907 55.67L151.797 65.02L138.597 67.66C136.104 68.1733 134.197 68.87 132.877 69.75C131.63 70.5567 131.007 71.9133 131.007 73.82C131.007 75.6533 131.667 77.0467 132.987 78C134.38 78.9533 136.03 79.43 137.937 79.43C139.477 79.43 140.98 79.2467 142.447 78.88C143.914 78.5133 145.234 77.9267 146.407 77.12C147.58 76.3133 148.497 75.2133 149.157 73.82C149.817 72.4267 150.147 70.74 150.147 68.76V53.91ZM181.961 89V9.91H197.031V43.35C198.791 39.83 201.211 37.2267 204.291 35.54C207.371 33.78 210.854 32.9 214.741 32.9C218.554 32.9 221.928 33.6333 224.861 35.1C227.868 36.5667 230.214 38.8033 231.901 41.81C233.661 44.7433 234.541 48.4467 234.541 52.92V89H219.471V57.32C219.471 52.5533 218.554 49.29 216.721 47.53C214.888 45.6967 212.541 44.78 209.681 44.78C207.554 44.78 205.501 45.2933 203.521 46.32C201.614 47.2733 200.038 48.8867 198.791 51.16C197.618 53.36 197.031 56.2933 197.031 59.96V89H181.961ZM257.656 26.08C254.503 26.08 252.156 25.42 250.616 24.1C249.076 22.7067 248.306 20.69 248.306 18.05C248.306 15.3367 249.076 13.32 250.616 12C252.156 10.6067 254.503 9.91 257.656 9.91C260.81 9.91 263.156 10.6067 264.696 12C266.236 13.32 267.006 15.3367 267.006 18.05C267.006 20.69 266.236 22.7067 264.696 24.1C263.156 25.42 260.81 26.08 257.656 26.08ZM265.136 34V89H250.066V34H265.136ZM301.901 90.1C297.355 90.1 293.285 88.9633 289.691 86.69C286.171 84.4167 283.385 81.1533 281.331 76.9C279.351 72.6467 278.361 67.55 278.361 61.61C278.361 55.5233 279.425 50.3533 281.551 46.1C283.678 41.7733 286.538 38.51 290.131 36.31C293.798 34.0367 297.905 32.9 302.451 32.9C307.291 32.9 311.288 34.2933 314.441 37.08C317.595 39.8667 319.648 43.46 320.601 47.86L319.171 49.62V9.91H334.241V89H320.711L319.721 72.28L321.591 73.16C321.078 76.6067 319.905 79.6133 318.071 82.18C316.238 84.6733 313.928 86.6167 311.141 88.01C308.355 89.4033 305.275 90.1 301.901 90.1ZM306.301 78.55C308.941 78.55 311.215 77.89 313.121 76.57C315.028 75.1767 316.495 73.16 317.521 70.52C318.621 67.88 319.171 64.7267 319.171 61.06C319.171 57.54 318.658 54.57 317.631 52.15C316.605 49.6567 315.138 47.75 313.231 46.43C311.325 45.11 309.088 44.45 306.521 44.45C302.415 44.45 299.188 45.9167 296.841 48.85C294.568 51.71 293.431 55.9267 293.431 61.5C293.431 67.0733 294.568 71.3267 296.841 74.26C299.115 77.12 302.268 78.55 306.301 78.55Z" fill="#89B5AF"/>
<path d="M30.21 89L28.2896 89.5587L28.7089 91H30.21V89ZM9.09 16.4V14.4H6.42527L7.16961 16.9587L9.09 16.4ZM25.26 16.4L27.2054 15.936L26.839 14.4H25.26V16.4ZM39.56 76.35L37.6146 76.814L41.5038 76.8208L39.56 76.35ZM54.08 16.4V14.4H52.5066L52.1362 15.9292L54.08 16.4ZM68.6 16.4L70.5422 15.9225L70.1678 14.4H68.6V16.4ZM83.34 76.35L81.3978 76.8275L85.2862 76.8107L83.34 76.35ZM97.53 16.4V14.4H95.9481L95.5838 15.9393L97.53 16.4ZM113.04 16.4L114.96 16.9587L115.705 14.4H113.04V16.4ZM91.92 89V91H93.4211L93.8404 89.5587L91.92 89ZM74.87 89L72.9323 89.4952L73.3168 91H74.87V89ZM64.75 49.4L62.7884 49.7898L62.7989 49.8428L62.8123 49.8952L64.75 49.4ZM61.34 32.24L63.3016 31.8502L62.9817 30.24H61.34V32.24ZM61.12 32.24V30.24H59.4783L59.1584 31.8502L61.12 32.24ZM57.71 49.4L59.649 49.8901L59.6616 49.8403L59.6716 49.7898L57.71 49.4ZM47.7 89V91H49.2574L49.639 89.4901L47.7 89ZM32.1304 88.4413L11.0104 15.8413L7.16961 16.9587L28.2896 89.5587L32.1304 88.4413ZM9.09 18.4H25.26V14.4H9.09V18.4ZM23.3146 16.864L37.6146 76.814L41.5054 75.886L27.2054 15.936L23.3146 16.864ZM41.5038 76.8208L56.0238 16.8708L52.1362 15.9292L37.6162 75.8792L41.5038 76.8208ZM54.08 18.4H68.6V14.4H54.08V18.4ZM66.6578 16.8775L81.3978 76.8275L85.2822 75.8725L70.5422 15.9225L66.6578 16.8775ZM85.2862 76.8107L99.4762 16.8607L95.5838 15.9393L81.3938 75.8893L85.2862 76.8107ZM97.53 18.4H113.04V14.4H97.53V18.4ZM111.12 15.8413L89.9996 88.4413L93.8404 89.5587L114.96 16.9587L111.12 15.8413ZM91.92 87H74.87V91H91.92V87ZM76.8077 88.5048L66.6877 48.9048L62.8123 49.8952L72.9323 89.4952L76.8077 88.5048ZM66.7116 49.0102L63.3016 31.8502L59.3784 32.6298L62.7884 49.7898L66.7116 49.0102ZM61.34 30.24H61.12V34.24H61.34V30.24ZM59.1584 31.8502L55.7484 49.0102L59.6716 49.7898L63.0816 32.6298L59.1584 31.8502ZM55.771 48.9099L45.761 88.5099L49.639 89.4901L59.649 49.8901L55.771 48.9099ZM47.7 87H30.21V91H47.7V87ZM147.397 46.54L145.983 47.9542L145.997 47.9686L146.012 47.9828L147.397 46.54ZM133.207 45.99L132.084 44.335L132.084 44.335L133.207 45.99ZM128.697 52.92L128.109 54.8316L130.042 55.4264L130.615 53.4867L128.697 52.92ZM115.827 48.96L113.89 48.4611L113.414 50.3101L115.239 50.8716L115.827 48.96ZM123.967 37.3L122.831 35.6536L122.825 35.6582L122.818 35.6629L123.967 37.3ZM153.667 35.21L152.879 37.0483L152.895 37.0551L152.911 37.0617L153.667 35.21ZM162.027 41.92L160.357 43.02L160.366 43.034L160.375 43.0479L162.027 41.92ZM172.587 79.21L174.578 79.3974L174.866 76.3422L171.955 77.3126L172.587 79.21ZM171.707 88.56L172.601 90.3489L173.594 89.8525L173.698 88.7474L171.707 88.56ZM152.787 84.71L151.102 85.7881L151.112 85.8038L151.123 85.8194L152.787 84.71ZM151.027 77.45L150.698 75.4772L149.027 75.7557V77.45H151.027ZM153.667 77.01L155.642 77.3219L156.075 74.581L153.338 75.0372L153.667 77.01ZM150.037 84.16L151.424 85.6006L151.438 85.5876L151.451 85.5742L150.037 84.16ZM142.777 88.56L142.101 86.6776L142.093 86.6804L142.086 86.6833L142.777 88.56ZM124.407 88.45L123.613 90.2857L123.634 90.2948L123.656 90.3035L124.407 88.45ZM118.137 83.39L116.473 84.4994L116.473 84.4994L118.137 83.39ZM119.897 65.24L121.291 66.674L121.301 66.6642L121.311 66.6542L119.897 65.24ZM131.227 59.85L131.608 61.8134L131.616 61.8119L131.623 61.8104L131.227 59.85ZM151.907 55.67L153.907 55.6935L153.936 53.2194L151.511 53.7096L151.907 55.67ZM151.797 65.02L152.189 66.9812L153.778 66.6634L153.797 65.0435L151.797 65.02ZM138.597 67.66L138.205 65.6988L138.194 65.7011L138.597 67.66ZM132.877 69.75L133.963 71.4291L133.975 71.4217L133.986 71.4141L132.877 69.75ZM132.987 78L131.816 79.6214L131.837 79.6363L131.858 79.6506L132.987 78ZM142.447 78.88L141.962 76.9397L141.962 76.9397L142.447 78.88ZM149.157 73.82L147.349 72.9638L147.349 72.9638L149.157 73.82ZM152.147 53.91C152.147 50.3518 151.099 47.3213 148.782 45.0972L146.012 47.9828C147.362 49.2787 148.147 51.1615 148.147 53.91H152.147ZM148.811 45.1258C146.61 42.9243 143.719 41.9 140.357 41.9V45.9C142.862 45.9 144.664 46.6357 145.983 47.9542L148.811 45.1258ZM140.357 41.9C137.282 41.9 134.5 42.6959 132.084 44.335L134.33 47.6449C136.021 46.4975 138.005 45.9 140.357 45.9V41.9ZM132.084 44.335C129.531 46.0676 127.817 48.8405 126.779 52.3533L130.615 53.4867C131.484 50.5461 132.777 48.6991 134.33 47.6449L132.084 44.335ZM129.285 51.0084L116.415 47.0484L115.239 50.8716L128.109 54.8316L129.285 51.0084ZM117.764 49.4589C118.889 45.0908 121.316 41.6034 125.116 38.9371L122.818 35.6629C118.258 38.8632 115.258 43.1492 113.89 48.4611L117.764 49.4589ZM125.102 38.9464C128.917 36.3153 134.161 34.9 141.017 34.9V30.9C133.647 30.9 127.523 32.418 122.831 35.6536L125.102 38.9464ZM141.017 34.9C145.649 34.9 149.586 35.6371 152.879 37.0483L154.455 33.3717C150.561 31.7029 146.065 30.9 141.017 30.9V34.9ZM152.911 37.0617C156.161 38.3883 158.616 40.3771 160.357 43.02L163.697 40.82C161.478 37.4496 158.359 34.965 154.423 33.3583L152.911 37.0617ZM160.375 43.0479C162.151 45.6479 163.107 49.0052 163.107 53.25H167.107C167.107 48.4015 166.01 44.2055 163.679 40.7921L160.375 43.0479ZM163.107 53.25V75.58H167.107V53.25H163.107ZM163.107 75.58C163.107 77.2555 163.502 78.8837 164.645 80.0905C165.807 81.3175 167.41 81.76 169.067 81.76V77.76C168.084 77.76 167.706 77.5058 167.549 77.3395C167.372 77.1529 167.107 76.6912 167.107 75.58H163.107ZM169.067 81.76C170.512 81.76 171.901 81.5469 173.219 81.1074L171.955 77.3126C171.073 77.6064 170.115 77.76 169.067 77.76V81.76ZM170.596 79.0226L169.716 88.3726L173.698 88.7474L174.578 79.3974L170.596 79.0226ZM170.813 86.7711C169.262 87.5465 167.208 87.99 164.557 87.99V91.99C167.626 91.99 170.339 91.4801 172.601 90.3489L170.813 86.7711ZM164.557 87.99C162.221 87.99 160.185 87.5903 158.415 86.8317L156.839 90.5083C159.176 91.5097 161.759 91.99 164.557 91.99V87.99ZM158.415 86.8317C156.697 86.0955 155.397 85.0193 154.451 83.6006L151.123 85.8194C152.524 87.9207 154.45 89.4845 156.839 90.5083L158.415 86.8317ZM154.471 83.6319C153.55 82.1914 153.027 80.3153 153.027 77.89H149.027C149.027 80.8914 149.678 83.5619 151.102 85.7881L154.471 83.6319ZM153.027 77.89V77.45H149.027V77.89H153.027ZM151.356 79.4228L153.996 78.9828L153.338 75.0372L150.698 75.4772L151.356 79.4228ZM151.691 76.6981C151.317 79.0706 150.301 81.0671 148.623 82.7458L151.451 85.5742C153.732 83.2929 155.137 80.5227 155.642 77.3219L151.691 76.6981ZM148.65 82.7194C146.894 84.4104 144.724 85.7362 142.101 86.6776L143.453 90.4424C146.55 89.3305 149.22 87.7229 151.424 85.6006L148.65 82.7194ZM142.086 86.6833C139.523 87.6274 136.861 88.1 134.087 88.1V92.1C137.327 92.1 140.458 91.5459 143.468 90.4367L142.086 86.6833ZM134.087 88.1C130.536 88.1 127.577 87.577 125.158 86.5965L123.656 90.3035C126.664 91.523 130.158 92.1 134.087 92.1V88.1ZM125.201 86.6143C122.798 85.5754 121.029 84.1226 119.801 82.2806L116.473 84.4994C118.178 87.0574 120.589 88.9779 123.613 90.2857L125.201 86.6143ZM119.801 82.2806C118.598 80.4753 117.937 78.1696 117.937 75.25H113.937C113.937 78.7837 114.743 81.9047 116.473 84.4994L119.801 82.2806ZM117.937 75.25C117.937 71.6151 119.085 68.8189 121.291 66.674L118.503 63.806C115.429 66.7944 113.937 70.6716 113.937 75.25H117.937ZM121.311 66.6542C123.588 64.3775 126.955 62.7161 131.608 61.8134L130.846 57.8866C125.672 58.8906 121.486 60.8225 118.483 63.8258L121.311 66.6542ZM131.623 61.8104L152.303 57.6304L151.511 53.7096L130.831 57.8896L131.623 61.8104ZM149.907 55.6465L149.797 64.9965L153.797 65.0435L153.907 55.6935L149.907 55.6465ZM151.405 63.0588L138.205 65.6988L138.989 69.6212L152.189 66.9812L151.405 63.0588ZM138.194 65.7011C135.582 66.2387 133.392 67.0029 131.768 68.0859L133.986 71.4141C135.002 70.7371 136.625 70.108 139 69.6189L138.194 65.7011ZM131.79 68.0709C129.813 69.3505 129.007 71.4526 129.007 73.82H133.007C133.007 72.3741 133.448 71.7628 133.963 71.4291L131.79 68.0709ZM129.007 73.82C129.007 76.2022 129.904 78.2405 131.816 79.6214L134.158 76.3786C133.43 75.8528 133.007 75.1045 133.007 73.82H129.007ZM131.858 79.6506C133.626 80.8603 135.681 81.43 137.937 81.43V77.43C136.379 77.43 135.135 77.0464 134.116 76.3494L131.858 79.6506ZM137.937 81.43C139.637 81.43 141.304 81.2273 142.932 80.8203L141.962 76.9397C140.657 77.266 139.317 77.43 137.937 77.43V81.43ZM142.932 80.8203C144.616 80.3993 146.158 79.7182 147.54 78.7681L145.274 75.4719C144.309 76.1351 143.211 76.6274 141.962 76.9397L142.932 80.8203ZM147.54 78.7681C149.028 77.7451 150.166 76.3611 150.964 74.6762L147.349 72.9638C146.828 74.0656 146.133 74.8815 145.274 75.4719L147.54 78.7681ZM150.964 74.6762C151.782 72.9504 152.147 70.9549 152.147 68.76H148.147C148.147 70.5251 147.852 71.9029 147.349 72.9638L150.964 74.6762ZM152.147 68.76V53.91H148.147V68.76H152.147ZM181.961 89H179.961V91H181.961V89ZM181.961 9.91V7.91H179.961V9.91H181.961ZM197.031 9.91H199.031V7.91H197.031V9.91ZM197.031 43.35H195.031L198.82 44.2444L197.031 43.35ZM204.291 35.54L205.252 37.2942L205.268 37.2855L205.283 37.2765L204.291 35.54ZM224.861 35.1L223.967 36.8889L223.975 36.8932L223.984 36.8975L224.861 35.1ZM231.901 41.81L230.157 42.7885L230.171 42.814L230.186 42.839L231.901 41.81ZM234.541 89V91H236.541V89H234.541ZM219.471 89H217.471V91H219.471V89ZM216.721 47.53L215.307 48.9442L215.321 48.9586L215.336 48.9728L216.721 47.53ZM203.521 46.32L204.415 48.1089L204.429 48.1023L204.442 48.0955L203.521 46.32ZM198.791 51.16L197.037 50.1983L197.032 50.2085L197.026 50.2188L198.791 51.16ZM197.031 89V91H199.031V89H197.031ZM183.961 89V9.91H179.961V89H183.961ZM181.961 11.91H197.031V7.91H181.961V11.91ZM195.031 9.91V43.35H199.031V9.91H195.031ZM198.82 44.2444C200.421 41.0429 202.571 38.7621 205.252 37.2942L203.33 33.7858C199.851 35.6913 197.161 38.6171 195.242 42.4556L198.82 44.2444ZM205.283 37.2765C208.033 35.7054 211.168 34.9 214.741 34.9V30.9C210.54 30.9 206.709 31.8546 203.299 33.8035L205.283 37.2765ZM214.741 34.9C218.294 34.9 221.353 35.582 223.967 36.8889L225.755 33.3111C222.503 31.6847 218.814 30.9 214.741 30.9V34.9ZM223.984 36.8975C226.613 38.1801 228.663 40.1252 230.157 42.7885L233.645 40.8315C231.766 37.4815 229.122 34.9532 225.738 33.3025L223.984 36.8975ZM230.186 42.839C231.71 45.3798 232.541 48.7002 232.541 52.92H236.541C236.541 48.1931 235.612 44.1069 233.616 40.781L230.186 42.839ZM232.541 52.92V89H236.541V52.92H232.541ZM234.541 87H219.471V91H234.541V87ZM221.471 89V57.32H217.471V89H221.471ZM221.471 57.32C221.471 52.4384 220.561 48.4436 218.106 46.0872L215.336 48.9728C216.548 50.1364 217.471 52.6683 217.471 57.32H221.471ZM218.135 46.1158C215.886 43.867 213.011 42.78 209.681 42.78V46.78C212.071 46.78 213.889 47.5264 215.307 48.9442L218.135 46.1158ZM209.681 42.78C207.218 42.78 204.851 43.3777 202.6 44.5445L204.442 48.0955C206.151 47.2089 207.891 46.78 209.681 46.78V42.78ZM202.627 44.5311C200.284 45.7026 198.437 47.6466 197.037 50.1983L200.545 52.1217C201.639 50.1268 202.945 48.844 204.415 48.1089L202.627 44.5311ZM197.026 50.2188C195.643 52.8129 195.031 56.1082 195.031 59.96H199.031C199.031 56.4784 199.593 53.9071 200.556 52.1012L197.026 50.2188ZM195.031 59.96V89H199.031V59.96H195.031ZM197.031 87H181.961V91H197.031V87ZM250.616 24.1L249.275 25.5831L249.295 25.6011L249.315 25.6185L250.616 24.1ZM250.616 12L251.918 13.5185L251.938 13.5011L251.958 13.4831L250.616 12ZM264.696 12L263.355 13.4831L263.375 13.5011L263.395 13.5185L264.696 12ZM264.696 24.1L265.998 25.6185L266.018 25.6011L266.038 25.5831L264.696 24.1ZM265.136 34H267.136V32H265.136V34ZM265.136 89V91H267.136V89H265.136ZM250.066 89H248.066V91H250.066V89ZM250.066 34V32H248.066V34H250.066ZM257.656 24.08C254.728 24.08 252.941 23.4587 251.918 22.5815L249.315 25.6185C251.371 27.3813 254.278 28.08 257.656 28.08V24.08ZM251.958 22.6169C250.945 21.7002 250.306 20.2885 250.306 18.05H246.306C246.306 21.0915 247.208 23.7132 249.275 25.5831L251.958 22.6169ZM250.306 18.05C250.306 15.7119 250.958 14.341 251.918 13.5185L249.315 10.4815C247.195 12.299 246.306 14.9615 246.306 18.05H250.306ZM251.958 13.4831C252.98 12.5584 254.75 11.91 257.656 11.91V7.91C254.256 7.91 251.333 8.6549 249.275 10.5169L251.958 13.4831ZM257.656 11.91C260.563 11.91 262.333 12.5584 263.355 13.4831L266.038 10.5169C263.98 8.6549 261.057 7.91 257.656 7.91V11.91ZM263.395 13.5185C264.355 14.341 265.006 15.7119 265.006 18.05H269.006C269.006 14.9615 268.118 12.299 265.998 10.4815L263.395 13.5185ZM265.006 18.05C265.006 20.2885 264.368 21.7002 263.355 22.6169L266.038 25.5831C268.105 23.7132 269.006 21.0915 269.006 18.05H265.006ZM263.395 22.5815C262.371 23.4587 260.585 24.08 257.656 24.08V28.08C261.035 28.08 263.941 27.3813 265.998 25.6185L263.395 22.5815ZM263.136 34V89H267.136V34H263.136ZM265.136 87H250.066V91H265.136V87ZM252.066 89V34H248.066V89H252.066ZM250.066 36H265.136V32H250.066V36ZM289.691 86.69L288.606 88.3701L288.614 88.3752L288.622 88.3802L289.691 86.69ZM281.331 76.9L279.518 77.7441L279.524 77.7568L279.53 77.7695L281.331 76.9ZM281.551 46.1L283.34 46.9944L283.346 46.9822L281.551 46.1ZM290.131 36.31L291.176 38.0157L291.185 38.0098L290.131 36.31ZM314.441 37.08L315.766 35.5813L315.766 35.5813L314.441 37.08ZM320.601 47.86L322.154 49.1212L322.76 48.3755L322.556 47.4365L320.601 47.86ZM319.171 49.62H317.171V55.2532L320.724 50.8812L319.171 49.62ZM319.171 9.91V7.91H317.171V9.91H319.171ZM334.241 9.91H336.241V7.91H334.241V9.91ZM334.241 89V91H336.241V89H334.241ZM320.711 89L318.715 89.1182L318.826 91H320.711V89ZM319.721 72.28L320.573 70.4704L317.526 69.0364L317.725 72.3982L319.721 72.28ZM321.591 73.16L323.57 73.4546L323.789 71.9836L322.443 71.3504L321.591 73.16ZM318.071 82.18L319.683 83.3648L319.691 83.3537L319.699 83.3425L318.071 82.18ZM311.141 88.01L312.036 89.7989L312.036 89.7989L311.141 88.01ZM313.121 76.57L314.26 78.2144L314.281 78.1998L314.301 78.1848L313.121 76.57ZM317.521 70.52L315.675 69.7508L315.666 69.7728L315.657 69.7951L317.521 70.52ZM317.631 52.15L315.782 52.9115L315.786 52.9213L315.79 52.9311L317.631 52.15ZM296.841 48.85L295.28 47.6006L295.276 47.6055L296.841 48.85ZM296.841 74.26L295.261 75.4851L295.268 75.4949L295.276 75.5045L296.841 74.26ZM301.901 88.1C297.706 88.1 294.012 87.0566 290.761 84.9998L288.622 88.3802C292.558 90.87 297.004 92.1 301.901 92.1V88.1ZM290.776 85.0099C287.603 82.9604 285.047 79.9961 283.133 76.0305L279.53 77.7695C281.723 82.3105 284.74 85.873 288.606 88.3701L290.776 85.0099ZM283.145 76.0559C281.316 72.1275 280.361 67.3335 280.361 61.61H276.361C276.361 67.7665 277.387 73.1658 279.518 77.7441L283.145 76.0559ZM280.361 61.61C280.361 55.7496 281.386 50.9034 283.34 46.9944L279.763 45.2056C277.464 49.8033 276.361 55.2971 276.361 61.61H280.361ZM283.346 46.9822C285.331 42.9454 287.95 39.9905 291.176 38.0157L289.087 34.6043C285.126 37.0295 282.026 40.6013 279.757 45.2178L283.346 46.9822ZM291.185 38.0098C294.518 35.9435 298.256 34.9 302.451 34.9V30.9C297.553 30.9 293.078 32.1299 289.078 34.6102L291.185 38.0098ZM302.451 34.9C306.882 34.9 310.384 36.1632 313.117 38.5787L315.766 35.5813C312.192 32.4235 307.701 30.9 302.451 30.9V34.9ZM313.117 38.5787C315.928 41.063 317.777 44.269 318.647 48.2835L322.556 47.4365C321.519 42.651 319.261 38.6703 315.766 35.5813L313.117 38.5787ZM319.049 46.5988L317.619 48.3588L320.724 50.8812L322.154 49.1212L319.049 46.5988ZM321.171 49.62V9.91H317.171V49.62H321.171ZM319.171 11.91H334.241V7.91H319.171V11.91ZM332.241 9.91V89H336.241V9.91H332.241ZM334.241 87H320.711V91H334.241V87ZM322.708 88.8818L321.718 72.1618L317.725 72.3982L318.715 89.1182L322.708 88.8818ZM318.87 74.0896L320.74 74.9696L322.443 71.3504L320.573 70.4704L318.87 74.0896ZM319.613 72.8654C319.142 76.0324 318.075 78.7344 316.444 81.0175L319.699 83.3425C321.735 80.4923 323.015 77.1809 323.57 73.4546L319.613 72.8654ZM316.46 80.9952C314.816 83.2315 312.752 84.9685 310.247 86.2211L312.036 89.7989C315.104 88.2648 317.66 86.1152 319.683 83.3648L316.46 80.9952ZM310.247 86.2211C307.761 87.4644 304.99 88.1 301.901 88.1V92.1C305.559 92.1 308.949 91.3423 312.036 89.7989L310.247 86.2211ZM306.301 80.55C309.29 80.55 311.974 79.7971 314.26 78.2144L311.983 74.9256C310.456 75.9829 308.593 76.55 306.301 76.55V80.55ZM314.301 78.1848C316.573 76.5247 318.248 74.169 319.385 71.2449L315.657 69.7951C314.741 72.151 313.483 73.8286 311.941 74.9552L314.301 78.1848ZM319.368 71.2892C320.593 68.3473 321.171 64.9194 321.171 61.06H317.171C317.171 64.534 316.649 67.4127 315.675 69.7508L319.368 71.2892ZM321.171 61.06C321.171 57.3576 320.633 54.1044 319.473 51.3689L315.79 52.9311C316.683 55.0356 317.171 57.7224 317.171 61.06H321.171ZM319.481 51.3885C318.332 48.5978 316.643 46.3591 314.37 44.7856L312.093 48.0744C313.634 49.1409 314.878 50.7155 315.782 52.9115L319.481 51.3885ZM314.37 44.7856C312.093 43.2095 309.45 42.45 306.521 42.45V46.45C308.727 46.45 310.556 47.0105 312.093 48.0744L314.37 44.7856ZM306.521 42.45C301.872 42.45 298.045 44.1445 295.28 47.6006L298.403 50.0994C300.332 47.6888 302.958 46.45 306.521 46.45V42.45ZM295.276 47.6055C292.607 50.9629 291.431 55.7005 291.431 61.5H295.431C295.431 56.1528 296.529 52.4571 298.407 50.0945L295.276 47.6055ZM291.431 61.5C291.431 67.3046 292.609 72.064 295.261 75.4851L298.422 73.0349C296.527 70.5894 295.431 66.8421 295.431 61.5H291.431ZM295.276 75.5045C297.971 78.8957 301.731 80.55 306.301 80.55V76.55C302.806 76.55 300.258 75.3443 298.407 73.0155L295.276 75.5045Z" fill="#545454" mask="url(#path-1-outside-1_48_38)"/>
<mask id="path-3-outside-2_48_38" maskUnits="userSpaceOnUse" x="-1" y="1" width="331" height="86" fill="black">
<rect fill="white" x="-1" y="1" width="331" height="86"/>
<path d="M23.21 83L2.09 10.4H18.26L32.56 70.35L47.08 10.4H61.6L76.34 70.35L90.53 10.4H106.04L84.92 83H67.87L57.75 43.4L54.34 26.24H54.12L50.71 43.4L40.7 83H23.21ZM143.147 47.91C143.147 44.7567 142.23 42.3 140.397 40.54C138.637 38.78 136.29 37.9 133.357 37.9C130.644 37.9 128.26 38.5967 126.207 39.99C124.154 41.3833 122.65 43.6933 121.697 46.92L108.827 42.96C110.074 38.12 112.787 34.2333 116.967 31.3C121.22 28.3667 126.904 26.9 134.017 26.9C138.857 26.9 143.074 27.67 146.667 29.21C150.26 30.6767 153.047 32.9133 155.027 35.92C157.08 38.9267 158.107 42.7033 158.107 47.25V69.58C158.107 72.3667 159.427 73.76 162.067 73.76C163.314 73.76 164.487 73.5767 165.587 73.21L164.707 82.56C162.8 83.5133 160.417 83.99 157.557 83.99C154.99 83.99 152.68 83.55 150.627 82.67C148.574 81.79 146.96 80.47 145.787 78.71C144.614 76.8767 144.027 74.6033 144.027 71.89V71.45L146.667 71.01C146.227 73.7967 145.017 76.18 143.037 78.16C141.057 80.0667 138.637 81.5333 135.777 82.56C132.99 83.5867 130.094 84.1 127.087 84.1C123.347 84.1 120.12 83.55 117.407 82.45C114.694 81.2767 112.604 79.59 111.137 77.39C109.67 75.19 108.937 72.4767 108.937 69.25C108.937 65.1433 110.257 61.8067 112.897 59.24C115.537 56.6 119.314 54.8033 124.227 53.85L144.907 49.67L144.797 59.02L131.597 61.66C129.104 62.1733 127.197 62.87 125.877 63.75C124.63 64.5567 124.007 65.9133 124.007 67.82C124.007 69.6533 124.667 71.0467 125.987 72C127.38 72.9533 129.03 73.43 130.937 73.43C132.477 73.43 133.98 73.2467 135.447 72.88C136.914 72.5133 138.234 71.9267 139.407 71.12C140.58 70.3133 141.497 69.2133 142.157 67.82C142.817 66.4267 143.147 64.74 143.147 62.76V47.91ZM174.961 83V3.91H190.031V37.35C191.791 33.83 194.211 31.2267 197.291 29.54C200.371 27.78 203.854 26.9 207.741 26.9C211.554 26.9 214.928 27.6333 217.861 29.1C220.868 30.5667 223.214 32.8033 224.901 35.81C226.661 38.7433 227.541 42.4467 227.541 46.92V83H212.471V51.32C212.471 46.5533 211.554 43.29 209.721 41.53C207.888 39.6967 205.541 38.78 202.681 38.78C200.554 38.78 198.501 39.2933 196.521 40.32C194.614 41.2733 193.038 42.8867 191.791 45.16C190.618 47.36 190.031 50.2933 190.031 53.96V83H174.961ZM250.656 20.08C247.503 20.08 245.156 19.42 243.616 18.1C242.076 16.7067 241.306 14.69 241.306 12.05C241.306 9.33666 242.076 7.32 243.616 5.99999C245.156 4.60666 247.503 3.91 250.656 3.91C253.81 3.91 256.156 4.60666 257.696 5.99999C259.236 7.32 260.006 9.33666 260.006 12.05C260.006 14.69 259.236 16.7067 257.696 18.1C256.156 19.42 253.81 20.08 250.656 20.08ZM258.136 28V83H243.066V28H258.136ZM294.901 84.1C290.355 84.1 286.285 82.9633 282.691 80.69C279.171 78.4167 276.385 75.1533 274.331 70.9C272.351 66.6467 271.361 61.55 271.361 55.61C271.361 49.5233 272.425 44.3533 274.551 40.1C276.678 35.7733 279.538 32.51 283.131 30.31C286.798 28.0367 290.905 26.9 295.451 26.9C300.291 26.9 304.288 28.2933 307.441 31.08C310.595 33.8667 312.648 37.46 313.601 41.86L312.171 43.62V3.91H327.241V83H313.711L312.721 66.28L314.591 67.16C314.078 70.6067 312.905 73.6133 311.071 76.18C309.238 78.6733 306.928 80.6167 304.141 82.01C301.355 83.4033 298.275 84.1 294.901 84.1ZM299.301 72.55C301.941 72.55 304.215 71.89 306.121 70.57C308.028 69.1767 309.495 67.16 310.521 64.52C311.621 61.88 312.171 58.7267 312.171 55.06C312.171 51.54 311.658 48.57 310.631 46.15C309.605 43.6567 308.138 41.75 306.231 40.43C304.325 39.11 302.088 38.45 299.521 38.45C295.415 38.45 292.188 39.9167 289.841 42.85C287.568 45.71 286.431 49.9267 286.431 55.5C286.431 61.0733 287.568 65.3267 289.841 68.26C292.115 71.12 295.268 72.55 299.301 72.55Z"/>
</mask>
<path d="M23.21 83L2.09 10.4H18.26L32.56 70.35L47.08 10.4H61.6L76.34 70.35L90.53 10.4H106.04L84.92 83H67.87L57.75 43.4L54.34 26.24H54.12L50.71 43.4L40.7 83H23.21ZM143.147 47.91C143.147 44.7567 142.23 42.3 140.397 40.54C138.637 38.78 136.29 37.9 133.357 37.9C130.644 37.9 128.26 38.5967 126.207 39.99C124.154 41.3833 122.65 43.6933 121.697 46.92L108.827 42.96C110.074 38.12 112.787 34.2333 116.967 31.3C121.22 28.3667 126.904 26.9 134.017 26.9C138.857 26.9 143.074 27.67 146.667 29.21C150.26 30.6767 153.047 32.9133 155.027 35.92C157.08 38.9267 158.107 42.7033 158.107 47.25V69.58C158.107 72.3667 159.427 73.76 162.067 73.76C163.314 73.76 164.487 73.5767 165.587 73.21L164.707 82.56C162.8 83.5133 160.417 83.99 157.557 83.99C154.99 83.99 152.68 83.55 150.627 82.67C148.574 81.79 146.96 80.47 145.787 78.71C144.614 76.8767 144.027 74.6033 144.027 71.89V71.45L146.667 71.01C146.227 73.7967 145.017 76.18 143.037 78.16C141.057 80.0667 138.637 81.5333 135.777 82.56C132.99 83.5867 130.094 84.1 127.087 84.1C123.347 84.1 120.12 83.55 117.407 82.45C114.694 81.2767 112.604 79.59 111.137 77.39C109.67 75.19 108.937 72.4767 108.937 69.25C108.937 65.1433 110.257 61.8067 112.897 59.24C115.537 56.6 119.314 54.8033 124.227 53.85L144.907 49.67L144.797 59.02L131.597 61.66C129.104 62.1733 127.197 62.87 125.877 63.75C124.63 64.5567 124.007 65.9133 124.007 67.82C124.007 69.6533 124.667 71.0467 125.987 72C127.38 72.9533 129.03 73.43 130.937 73.43C132.477 73.43 133.98 73.2467 135.447 72.88C136.914 72.5133 138.234 71.9267 139.407 71.12C140.58 70.3133 141.497 69.2133 142.157 67.82C142.817 66.4267 143.147 64.74 143.147 62.76V47.91ZM174.961 83V3.91H190.031V37.35C191.791 33.83 194.211 31.2267 197.291 29.54C200.371 27.78 203.854 26.9 207.741 26.9C211.554 26.9 214.928 27.6333 217.861 29.1C220.868 30.5667 223.214 32.8033 224.901 35.81C226.661 38.7433 227.541 42.4467 227.541 46.92V83H212.471V51.32C212.471 46.5533 211.554 43.29 209.721 41.53C207.888 39.6967 205.541 38.78 202.681 38.78C200.554 38.78 198.501 39.2933 196.521 40.32C194.614 41.2733 193.038 42.8867 191.791 45.16C190.618 47.36 190.031 50.2933 190.031 53.96V83H174.961ZM250.656 20.08C247.503 20.08 245.156 19.42 243.616 18.1C242.076 16.7067 241.306 14.69 241.306 12.05C241.306 9.33666 242.076 7.32 243.616 5.99999C245.156 4.60666 247.503 3.91 250.656 3.91C253.81 3.91 256.156 4.60666 257.696 5.99999C259.236 7.32 260.006 9.33666 260.006 12.05C260.006 14.69 259.236 16.7067 257.696 18.1C256.156 19.42 253.81 20.08 250.656 20.08ZM258.136 28V83H243.066V28H258.136ZM294.901 84.1C290.355 84.1 286.285 82.9633 282.691 80.69C279.171 78.4167 276.385 75.1533 274.331 70.9C272.351 66.6467 271.361 61.55 271.361 55.61C271.361 49.5233 272.425 44.3533 274.551 40.1C276.678 35.7733 279.538 32.51 283.131 30.31C286.798 28.0367 290.905 26.9 295.451 26.9C300.291 26.9 304.288 28.2933 307.441 31.08C310.595 33.8667 312.648 37.46 313.601 41.86L312.171 43.62V3.91H327.241V83H313.711L312.721 66.28L314.591 67.16C314.078 70.6067 312.905 73.6133 311.071 76.18C309.238 78.6733 306.928 80.6167 304.141 82.01C301.355 83.4033 298.275 84.1 294.901 84.1ZM299.301 72.55C301.941 72.55 304.215 71.89 306.121 70.57C308.028 69.1767 309.495 67.16 310.521 64.52C311.621 61.88 312.171 58.7267 312.171 55.06C312.171 51.54 311.658 48.57 310.631 46.15C309.605 43.6567 308.138 41.75 306.231 40.43C304.325 39.11 302.088 38.45 299.521 38.45C295.415 38.45 292.188 39.9167 289.841 42.85C287.568 45.71 286.431 49.9267 286.431 55.5C286.431 61.0733 287.568 65.3267 289.841 68.26C292.115 71.12 295.268 72.55 299.301 72.55Z" fill="white"/>
<path d="M23.21 83L21.2896 83.5587L21.7089 85H23.21V83ZM2.09 10.4V8.4H-0.574728L0.16961 10.9587L2.09 10.4ZM18.26 10.4L20.2054 9.93595L19.839 8.4H18.26V10.4ZM32.56 70.35L30.6146 70.814L34.5038 70.8208L32.56 70.35ZM47.08 10.4V8.4H45.5066L45.1362 9.92921L47.08 10.4ZM61.6 10.4L63.5422 9.92248L63.1678 8.4H61.6V10.4ZM76.34 70.35L74.3978 70.8275L78.2862 70.8107L76.34 70.35ZM90.53 10.4V8.4H88.9481L88.5838 9.93933L90.53 10.4ZM106.04 10.4L107.96 10.9587L108.705 8.4H106.04V10.4ZM84.92 83V85H86.4211L86.8404 83.5587L84.92 83ZM67.87 83L65.9323 83.4952L66.3168 85H67.87V83ZM57.75 43.4L55.7884 43.7898L55.7989 43.8428L55.8123 43.8952L57.75 43.4ZM54.34 26.24L56.3016 25.8502L55.9817 24.24H54.34V26.24ZM54.12 26.24V24.24H52.4783L52.1584 25.8502L54.12 26.24ZM50.71 43.4L52.649 43.8901L52.6616 43.8403L52.6716 43.7898L50.71 43.4ZM40.7 83V85H42.2574L42.639 83.4901L40.7 83ZM25.1304 82.4413L4.01039 9.84134L0.16961 10.9587L21.2896 83.5587L25.1304 82.4413ZM2.09 12.4H18.26V8.4H2.09V12.4ZM16.3146 10.864L30.6146 70.814L34.5054 69.886L20.2054 9.93595L16.3146 10.864ZM34.5038 70.8208L49.0238 10.8708L45.1362 9.92921L30.6162 69.8792L34.5038 70.8208ZM47.08 12.4H61.6V8.4H47.08V12.4ZM59.6578 10.8775L74.3978 70.8275L78.2822 69.8725L63.5422 9.92248L59.6578 10.8775ZM78.2862 70.8107L92.4762 10.8607L88.5838 9.93933L74.3938 69.8893L78.2862 70.8107ZM90.53 12.4H106.04V8.4H90.53V12.4ZM104.12 9.84134L82.9996 82.4413L86.8404 83.5587L107.96 10.9587L104.12 9.84134ZM84.92 81H67.87V85H84.92V81ZM69.8077 82.5048L59.6877 42.9048L55.8123 43.8952L65.9323 83.4952L69.8077 82.5048ZM59.7116 43.0102L56.3016 25.8502L52.3784 26.6298L55.7884 43.7898L59.7116 43.0102ZM54.34 24.24H54.12V28.24H54.34V24.24ZM52.1584 25.8502L48.7484 43.0102L52.6716 43.7898L56.0816 26.6298L52.1584 25.8502ZM48.771 42.9099L38.761 82.5099L42.639 83.4901L52.649 43.8901L48.771 42.9099ZM40.7 81H23.21V85H40.7V81ZM140.397 40.54L138.983 41.9542L138.997 41.9686L139.012 41.9828L140.397 40.54ZM126.207 39.99L125.084 38.335L125.084 38.335L126.207 39.99ZM121.697 46.92L121.109 48.8316L123.042 49.4264L123.615 47.4867L121.697 46.92ZM108.827 42.96L106.89 42.4611L106.414 44.3101L108.239 44.8716L108.827 42.96ZM116.967 31.3L115.831 29.6536L115.825 29.6582L115.818 29.6629L116.967 31.3ZM146.667 29.21L145.879 31.0483L145.895 31.0551L145.911 31.0617L146.667 29.21ZM155.027 35.92L153.357 37.02L153.366 37.034L153.375 37.0479L155.027 35.92ZM165.587 73.21L167.578 73.3974L167.866 70.3422L164.955 71.3126L165.587 73.21ZM164.707 82.56L165.601 84.3489L166.594 83.8525L166.698 82.7474L164.707 82.56ZM145.787 78.71L144.102 79.7881L144.112 79.8038L144.123 79.8194L145.787 78.71ZM144.027 71.45L143.698 69.4772L142.027 69.7557V71.45H144.027ZM146.667 71.01L148.642 71.3219L149.075 68.581L146.338 69.0372L146.667 71.01ZM143.037 78.16L144.424 79.6006L144.438 79.5876L144.451 79.5742L143.037 78.16ZM135.777 82.56L135.101 80.6776L135.093 80.6804L135.086 80.6833L135.777 82.56ZM117.407 82.45L116.613 84.2857L116.634 84.2948L116.656 84.3035L117.407 82.45ZM111.137 77.39L109.473 78.4994L109.473 78.4994L111.137 77.39ZM112.897 59.24L114.291 60.674L114.301 60.6642L114.311 60.6542L112.897 59.24ZM124.227 53.85L124.608 55.8134L124.616 55.8119L124.623 55.8104L124.227 53.85ZM144.907 49.67L146.907 49.6935L146.936 47.2194L144.511 47.7096L144.907 49.67ZM144.797 59.02L145.189 60.9812L146.778 60.6634L146.797 59.0435L144.797 59.02ZM131.597 61.66L131.205 59.6988L131.194 59.7011L131.597 61.66ZM125.877 63.75L126.963 65.4291L126.975 65.4217L126.986 65.4141L125.877 63.75ZM125.987 72L124.816 73.6214L124.837 73.6363L124.858 73.6506L125.987 72ZM135.447 72.88L134.962 70.9397L134.962 70.9397L135.447 72.88ZM142.157 67.82L140.349 66.9638L140.349 66.9638L142.157 67.82ZM145.147 47.91C145.147 44.3518 144.099 41.3213 141.782 39.0972L139.012 41.9828C140.362 43.2787 141.147 45.1615 141.147 47.91H145.147ZM141.811 39.1258C139.61 36.9243 136.719 35.9 133.357 35.9V39.9C135.862 39.9 137.664 40.6357 138.983 41.9542L141.811 39.1258ZM133.357 35.9C130.282 35.9 127.5 36.6959 125.084 38.335L127.33 41.6449C129.021 40.4975 131.005 39.9 133.357 39.9V35.9ZM125.084 38.335C122.531 40.0676 120.817 42.8405 119.779 46.3533L123.615 47.4867C124.484 44.5461 125.777 42.6991 127.33 41.6449L125.084 38.335ZM122.285 45.0084L109.415 41.0484L108.239 44.8716L121.109 48.8316L122.285 45.0084ZM110.764 43.4589C111.889 39.0908 114.316 35.6034 118.116 32.9371L115.818 29.6629C111.258 32.8632 108.258 37.1492 106.89 42.4611L110.764 43.4589ZM118.102 32.9464C121.917 30.3153 127.161 28.9 134.017 28.9V24.9C126.647 24.9 120.523 26.418 115.831 29.6536L118.102 32.9464ZM134.017 28.9C138.649 28.9 142.586 29.6371 145.879 31.0483L147.455 27.3717C143.561 25.7029 139.065 24.9 134.017 24.9V28.9ZM145.911 31.0617C149.161 32.3883 151.616 34.3771 153.357 37.02L156.697 34.82C154.478 31.4496 151.359 28.965 147.423 27.3583L145.911 31.0617ZM153.375 37.0479C155.151 39.6479 156.107 43.0052 156.107 47.25H160.107C160.107 42.4015 159.01 38.2055 156.679 34.7921L153.375 37.0479ZM156.107 47.25V69.58H160.107V47.25H156.107ZM156.107 69.58C156.107 71.2555 156.502 72.8837 157.645 74.0905C158.807 75.3175 160.41 75.76 162.067 75.76V71.76C161.084 71.76 160.706 71.5058 160.549 71.3395C160.372 71.1529 160.107 70.6912 160.107 69.58H156.107ZM162.067 75.76C163.512 75.76 164.901 75.5469 166.219 75.1074L164.955 71.3126C164.073 71.6064 163.115 71.76 162.067 71.76V75.76ZM163.596 73.0226L162.716 82.3726L166.698 82.7474L167.578 73.3974L163.596 73.0226ZM163.813 80.7711C162.262 81.5465 160.208 81.99 157.557 81.99V85.99C160.626 85.99 163.339 85.4801 165.601 84.3489L163.813 80.7711ZM157.557 81.99C155.221 81.99 153.185 81.5903 151.415 80.8317L149.839 84.5083C152.176 85.5097 154.759 85.99 157.557 85.99V81.99ZM151.415 80.8317C149.697 80.0955 148.397 79.0193 147.451 77.6006L144.123 79.8194C145.524 81.9207 147.45 83.4845 149.839 84.5083L151.415 80.8317ZM147.471 77.6319C146.55 76.1914 146.027 74.3153 146.027 71.89H142.027C142.027 74.8914 142.678 77.5619 144.102 79.7881L147.471 77.6319ZM146.027 71.89V71.45H142.027V71.89H146.027ZM144.356 73.4228L146.996 72.9828L146.338 69.0372L143.698 69.4772L144.356 73.4228ZM144.691 70.6981C144.317 73.0706 143.301 75.0671 141.623 76.7458L144.451 79.5742C146.732 77.2929 148.137 74.5227 148.642 71.3219L144.691 70.6981ZM141.65 76.7194C139.894 78.4104 137.724 79.7362 135.101 80.6776L136.453 84.4424C139.55 83.3305 142.22 81.7229 144.424 79.6006L141.65 76.7194ZM135.086 80.6833C132.523 81.6274 129.861 82.1 127.087 82.1V86.1C130.327 86.1 133.458 85.5459 136.468 84.4367L135.086 80.6833ZM127.087 82.1C123.536 82.1 120.577 81.577 118.158 80.5965L116.656 84.3035C119.664 85.523 123.158 86.1 127.087 86.1V82.1ZM118.201 80.6143C115.798 79.5754 114.029 78.1226 112.801 76.2806L109.473 78.4994C111.178 81.0574 113.589 82.9779 116.613 84.2857L118.201 80.6143ZM112.801 76.2806C111.598 74.4753 110.937 72.1696 110.937 69.25H106.937C106.937 72.7837 107.743 75.9047 109.473 78.4994L112.801 76.2806ZM110.937 69.25C110.937 65.6151 112.085 62.8189 114.291 60.674L111.503 57.806C108.429 60.7944 106.937 64.6716 106.937 69.25H110.937ZM114.311 60.6542C116.588 58.3775 119.955 56.7161 124.608 55.8134L123.846 51.8866C118.672 52.8906 114.486 54.8225 111.483 57.8258L114.311 60.6542ZM124.623 55.8104L145.303 51.6304L144.511 47.7096L123.831 51.8896L124.623 55.8104ZM142.907 49.6465L142.797 58.9965L146.797 59.0435L146.907 49.6935L142.907 49.6465ZM144.405 57.0588L131.205 59.6988L131.989 63.6212L145.189 60.9812L144.405 57.0588ZM131.194 59.7011C128.582 60.2387 126.392 61.0029 124.768 62.0859L126.986 65.4141C128.002 64.7371 129.625 64.108 132 63.6189L131.194 59.7011ZM124.79 62.0709C122.813 63.3505 122.007 65.4526 122.007 67.82H126.007C126.007 66.3741 126.448 65.7628 126.963 65.4291L124.79 62.0709ZM122.007 67.82C122.007 70.2022 122.904 72.2405 124.816 73.6214L127.158 70.3786C126.43 69.8528 126.007 69.1045 126.007 67.82H122.007ZM124.858 73.6506C126.626 74.8603 128.681 75.43 130.937 75.43V71.43C129.379 71.43 128.135 71.0464 127.116 70.3494L124.858 73.6506ZM130.937 75.43C132.637 75.43 134.304 75.2273 135.932 74.8203L134.962 70.9397C133.657 71.266 132.317 71.43 130.937 71.43V75.43ZM135.932 74.8203C137.616 74.3993 139.158 73.7182 140.54 72.7681L138.274 69.4719C137.309 70.1351 136.211 70.6274 134.962 70.9397L135.932 74.8203ZM140.54 72.7681C142.028 71.7451 143.166 70.3611 143.964 68.6762L140.349 66.9638C139.828 68.0656 139.133 68.8815 138.274 69.4719L140.54 72.7681ZM143.964 68.6762C144.782 66.9504 145.147 64.9549 145.147 62.76H141.147C141.147 64.5251 140.852 65.9029 140.349 66.9638L143.964 68.6762ZM145.147 62.76V47.91H141.147V62.76H145.147ZM174.961 83H172.961V85H174.961V83ZM174.961 3.91V1.91H172.961V3.91H174.961ZM190.031 3.91H192.031V1.91H190.031V3.91ZM190.031 37.35H188.031L191.82 38.2444L190.031 37.35ZM197.291 29.54L198.252 31.2942L198.268 31.2855L198.283 31.2765L197.291 29.54ZM217.861 29.1L216.967 30.8889L216.975 30.8932L216.984 30.8975L217.861 29.1ZM224.901 35.81L223.157 36.7885L223.171 36.814L223.186 36.839L224.901 35.81ZM227.541 83V85H229.541V83H227.541ZM212.471 83H210.471V85H212.471V83ZM209.721 41.53L208.307 42.9442L208.321 42.9586L208.336 42.9728L209.721 41.53ZM196.521 40.32L197.415 42.1089L197.429 42.1023L197.442 42.0955L196.521 40.32ZM191.791 45.16L190.037 44.1983L190.032 44.2085L190.026 44.2188L191.791 45.16ZM190.031 83V85H192.031V83H190.031ZM176.961 83V3.91H172.961V83H176.961ZM174.961 5.91H190.031V1.91H174.961V5.91ZM188.031 3.91V37.35H192.031V3.91H188.031ZM191.82 38.2444C193.421 35.0429 195.571 32.7621 198.252 31.2942L196.33 27.7858C192.851 29.6913 190.161 32.6171 188.242 36.4556L191.82 38.2444ZM198.283 31.2765C201.033 29.7054 204.168 28.9 207.741 28.9V24.9C203.54 24.9 199.709 25.8546 196.299 27.8035L198.283 31.2765ZM207.741 28.9C211.294 28.9 214.353 29.582 216.967 30.8889L218.755 27.3111C215.503 25.6847 211.814 24.9 207.741 24.9V28.9ZM216.984 30.8975C219.613 32.1801 221.663 34.1252 223.157 36.7885L226.645 34.8315C224.766 31.4815 222.122 28.9532 218.738 27.3025L216.984 30.8975ZM223.186 36.839C224.71 39.3798 225.541 42.7002 225.541 46.92H229.541C229.541 42.1931 228.612 38.1069 226.616 34.781L223.186 36.839ZM225.541 46.92V83H229.541V46.92H225.541ZM227.541 81H212.471V85H227.541V81ZM214.471 83V51.32H210.471V83H214.471ZM214.471 51.32C214.471 46.4384 213.561 42.4436 211.106 40.0872L208.336 42.9728C209.548 44.1364 210.471 46.6683 210.471 51.32H214.471ZM211.135 40.1158C208.886 37.867 206.011 36.78 202.681 36.78V40.78C205.071 40.78 206.889 41.5264 208.307 42.9442L211.135 40.1158ZM202.681 36.78C200.218 36.78 197.851 37.3777 195.6 38.5445L197.442 42.0955C199.151 41.2089 200.891 40.78 202.681 40.78V36.78ZM195.627 38.5311C193.284 39.7026 191.437 41.6466 190.037 44.1983L193.545 46.1217C194.639 44.1268 195.945 42.844 197.415 42.1089L195.627 38.5311ZM190.026 44.2188C188.643 46.8129 188.031 50.1082 188.031 53.96H192.031C192.031 50.4784 192.593 47.9071 193.556 46.1012L190.026 44.2188ZM188.031 53.96V83H192.031V53.96H188.031ZM190.031 81H174.961V85H190.031V81ZM243.616 18.1L242.275 19.5831L242.295 19.6011L242.315 19.6185L243.616 18.1ZM243.616 5.99999L244.918 7.51851L244.938 7.50106L244.958 7.48307L243.616 5.99999ZM257.696 5.99999L256.355 7.48307L256.375 7.50106L256.395 7.51851L257.696 5.99999ZM257.696 18.1L258.998 19.6185L259.018 19.6011L259.038 19.5831L257.696 18.1ZM258.136 28H260.136V26H258.136V28ZM258.136 83V85H260.136V83H258.136ZM243.066 83H241.066V85H243.066V83ZM243.066 28V26H241.066V28H243.066ZM250.656 18.08C247.728 18.08 245.941 17.4587 244.918 16.5815L242.315 19.6185C244.371 21.3813 247.278 22.08 250.656 22.08V18.08ZM244.958 16.6169C243.945 15.7002 243.306 14.2885 243.306 12.05H239.306C239.306 15.0915 240.208 17.7132 242.275 19.5831L244.958 16.6169ZM243.306 12.05C243.306 9.71186 243.958 8.34103 244.918 7.51851L242.315 4.48148C240.195 6.29896 239.306 8.96146 239.306 12.05H243.306ZM244.958 7.48307C245.98 6.55842 247.75 5.91 250.656 5.91V1.91C247.256 1.91 244.333 2.6549 242.275 4.51692L244.958 7.48307ZM250.656 5.91C253.563 5.91 255.333 6.55842 256.355 7.48307L259.038 4.51692C256.98 2.6549 254.057 1.91 250.656 1.91V5.91ZM256.395 7.51851C257.355 8.34103 258.006 9.71186 258.006 12.05H262.006C262.006 8.96146 261.118 6.29896 258.998 4.48148L256.395 7.51851ZM258.006 12.05C258.006 14.2885 257.368 15.7002 256.355 16.6169L259.038 19.5831C261.105 17.7132 262.006 15.0915 262.006 12.05H258.006ZM256.395 16.5815C255.371 17.4587 253.585 18.08 250.656 18.08V22.08C254.035 22.08 256.941 21.3813 258.998 19.6185L256.395 16.5815ZM256.136 28V83H260.136V28H256.136ZM258.136 81H243.066V85H258.136V81ZM245.066 83V28H241.066V83H245.066ZM243.066 30H258.136V26H243.066V30ZM282.691 80.69L281.606 82.3701L281.614 82.3752L281.622 82.3802L282.691 80.69ZM274.331 70.9L272.518 71.7441L272.524 71.7568L272.53 71.7695L274.331 70.9ZM274.551 40.1L276.34 40.9944L276.346 40.9822L274.551 40.1ZM283.131 30.31L284.176 32.0157L284.185 32.0098L283.131 30.31ZM307.441 31.08L308.766 29.5813L308.766 29.5813L307.441 31.08ZM313.601 41.86L315.154 43.1212L315.76 42.3755L315.556 41.4365L313.601 41.86ZM312.171 43.62H310.171V49.2532L313.724 44.8812L312.171 43.62ZM312.171 3.91V1.91H310.171V3.91H312.171ZM327.241 3.91H329.241V1.91H327.241V3.91ZM327.241 83V85H329.241V83H327.241ZM313.711 83L311.715 83.1182L311.826 85H313.711V83ZM312.721 66.28L313.573 64.4704L310.526 63.0364L310.725 66.3982L312.721 66.28ZM314.591 67.16L316.57 67.4546L316.789 65.9836L315.443 65.3504L314.591 67.16ZM311.071 76.18L312.683 77.3648L312.691 77.3537L312.699 77.3425L311.071 76.18ZM304.141 82.01L305.036 83.7989L305.036 83.7989L304.141 82.01ZM306.121 70.57L307.26 72.2144L307.281 72.1998L307.301 72.1848L306.121 70.57ZM310.521 64.52L308.675 63.7508L308.666 63.7728L308.657 63.7951L310.521 64.52ZM310.631 46.15L308.782 46.9115L308.786 46.9213L308.79 46.9311L310.631 46.15ZM289.841 42.85L288.28 41.6006L288.276 41.6055L289.841 42.85ZM289.841 68.26L288.261 69.4851L288.268 69.4949L288.276 69.5045L289.841 68.26ZM294.901 82.1C290.706 82.1 287.012 81.0566 283.761 78.9998L281.622 82.3802C285.558 84.87 290.004 86.1 294.901 86.1V82.1ZM283.776 79.0099C280.603 76.9604 278.047 73.9961 276.133 70.0305L272.53 71.7695C274.723 76.3105 277.74 79.873 281.606 82.3701L283.776 79.0099ZM276.145 70.0559C274.316 66.1275 273.361 61.3335 273.361 55.61H269.361C269.361 61.7665 270.387 67.1658 272.518 71.7441L276.145 70.0559ZM273.361 55.61C273.361 49.7496 274.386 44.9034 276.34 40.9944L272.763 39.2056C270.464 43.8033 269.361 49.2971 269.361 55.61H273.361ZM276.346 40.9822C278.331 36.9454 280.95 33.9905 284.176 32.0157L282.087 28.6043C278.126 31.0295 275.026 34.6013 272.757 39.2178L276.346 40.9822ZM284.185 32.0098C287.518 29.9435 291.256 28.9 295.451 28.9V24.9C290.553 24.9 286.078 26.1299 282.078 28.6102L284.185 32.0098ZM295.451 28.9C299.882 28.9 303.384 30.1632 306.117 32.5787L308.766 29.5813C305.192 26.4235 300.701 24.9 295.451 24.9V28.9ZM306.117 32.5787C308.928 35.063 310.777 38.269 311.647 42.2835L315.556 41.4365C314.519 36.651 312.261 32.6703 308.766 29.5813L306.117 32.5787ZM312.049 40.5988L310.619 42.3588L313.724 44.8812L315.154 43.1212L312.049 40.5988ZM314.171 43.62V3.91H310.171V43.62H314.171ZM312.171 5.91H327.241V1.91H312.171V5.91ZM325.241 3.91V83H329.241V3.91H325.241ZM327.241 81H313.711V85H327.241V81ZM315.708 82.8818L314.718 66.1618L310.725 66.3982L311.715 83.1182L315.708 82.8818ZM311.87 68.0896L313.74 68.9696L315.443 65.3504L313.573 64.4704L311.87 68.0896ZM312.613 66.8654C312.142 70.0324 311.075 72.7344 309.444 75.0175L312.699 77.3425C314.735 74.4923 316.015 71.1809 316.57 67.4546L312.613 66.8654ZM309.46 74.9952C307.816 77.2315 305.752 78.9685 303.247 80.2211L305.036 83.7989C308.104 82.2648 310.66 80.1152 312.683 77.3648L309.46 74.9952ZM303.247 80.2211C300.761 81.4644 297.99 82.1 294.901 82.1V86.1C298.559 86.1 301.949 85.3423 305.036 83.7989L303.247 80.2211ZM299.301 74.55C302.29 74.55 304.974 73.7971 307.26 72.2144L304.983 68.9256C303.456 69.9829 301.593 70.55 299.301 70.55V74.55ZM307.301 72.1848C309.573 70.5247 311.248 68.169 312.385 65.2449L308.657 63.7951C307.741 66.151 306.483 67.8286 304.941 68.9552L307.301 72.1848ZM312.368 65.2892C313.593 62.3473 314.171 58.9194 314.171 55.06H310.171C310.171 58.534 309.649 61.4127 308.675 63.7508L312.368 65.2892ZM314.171 55.06C314.171 51.3576 313.633 48.1044 312.473 45.3689L308.79 46.9311C309.683 49.0356 310.171 51.7224 310.171 55.06H314.171ZM312.481 45.3885C311.332 42.5978 309.643 40.3591 307.37 38.7856L305.093 42.0744C306.634 43.1409 307.878 44.7155 308.782 46.9115L312.481 45.3885ZM307.37 38.7856C305.093 37.2095 302.45 36.45 299.521 36.45V40.45C301.727 40.45 303.556 41.0105 305.093 42.0744L307.37 38.7856ZM299.521 36.45C294.872 36.45 291.045 38.1445 288.28 41.6006L291.403 44.0994C293.332 41.6888 295.958 40.45 299.521 40.45V36.45ZM288.276 41.6055C285.607 44.9629 284.431 49.7005 284.431 55.5H288.431C288.431 50.1528 289.529 46.4571 291.407 44.0945L288.276 41.6055ZM284.431 55.5C284.431 61.3046 285.609 66.064 288.261 69.4851L291.422 67.0349C289.527 64.5894 288.431 60.8421 288.431 55.5H284.431ZM288.276 69.5045C290.971 72.8957 294.731 74.55 299.301 74.55V70.55C295.806 70.55 293.258 69.3443 291.407 67.0155L288.276 69.5045Z" fill="#545454" mask="url(#path-3-outside-2_48_38)"/>
</svg>
