<svg width="702" height="491" viewBox="0 0 702 491" fill="none" xmlns="http://www.w3.org/2000/svg">
<path d="M507.068 58.332L477.079 75.6462C474.139 77.3432 472.329 80.4795 472.329 83.8735V118.502C472.329 121.896 474.139 125.032 477.079 126.729L507.068 144.043C510.007 145.74 513.628 145.74 516.568 144.043L546.557 126.729C549.496 125.032 551.307 121.896 551.307 118.502V83.8735C551.307 80.4794 549.496 77.3432 546.557 75.6462L516.568 58.332C513.628 56.635 510.007 56.635 507.068 58.332Z" fill="#89B5AF" stroke="#545454"/>
<path d="M507.068 51.5272L477.079 68.8414C474.139 70.5384 472.329 73.6746 472.329 77.0687V111.697C472.329 115.091 474.139 118.227 477.079 119.924L507.068 137.239C510.007 138.936 513.628 138.936 516.568 137.239L546.557 119.924C549.496 118.227 551.307 115.091 551.307 111.697V77.0687C551.307 73.6746 549.496 70.5384 546.557 68.8414L516.568 51.5272C513.628 49.8302 510.007 49.8302 507.068 51.5272Z" fill="white" stroke="#545454"/>
<path d="M623.126 10.9906L573.407 39.6963C569.539 41.9292 567.157 46.0558 567.157 50.5216V107.933C567.157 112.399 569.539 116.525 573.407 118.758L623.126 147.464C626.994 149.697 631.759 149.697 635.626 147.464L685.346 118.758C689.214 116.525 691.596 112.399 691.596 107.933V50.5216C691.596 46.0558 689.214 41.9292 685.346 39.6963L635.626 10.9906C631.759 8.75769 626.994 8.75769 623.126 10.9906Z" fill="#89B5AF" stroke="#545454"/>
<path d="M623.126 4.18579L573.407 32.8915C569.539 35.1244 567.157 39.251 567.157 43.7168V101.128C567.157 105.594 569.539 109.721 573.407 111.953L623.126 140.659C626.994 142.892 631.759 142.892 635.626 140.659L685.346 111.953C689.214 109.721 691.596 105.594 691.596 101.128V43.7168C691.596 39.251 689.214 35.1244 685.346 32.8915L635.626 4.1858C631.759 1.95289 626.994 1.95288 623.126 4.18579Z" fill="white" stroke="#545454"/>
<path d="M128.874 486.333L61.8957 447.664C58.0282 445.431 55.6457 441.304 55.6457 436.838V359.499C55.6457 355.033 58.0282 350.906 61.8957 348.673L128.874 310.003C132.741 307.771 137.506 307.771 141.374 310.003L208.352 348.673C212.219 350.906 214.602 355.033 214.602 359.499V436.838C214.602 441.304 212.219 445.431 208.352 447.664L141.374 486.333C137.506 488.566 132.741 488.566 128.874 486.333Z" fill="#89B5AF" stroke="#545454"/>
<path d="M128.874 478.557L61.8957 439.887C58.0282 437.654 55.6457 433.527 55.6457 429.061V351.722C55.6457 347.256 58.0282 343.129 61.8957 340.896L128.874 302.227C132.741 299.994 137.506 299.994 141.374 302.227L208.352 340.896C212.219 343.129 214.602 347.256 214.602 351.722V429.061C214.602 433.527 212.219 437.654 208.352 439.887L141.374 478.557C137.506 480.789 132.741 480.789 128.874 478.557Z" fill="white" stroke="#545454"/>
<path d="M41.4252 321.94L11.4361 304.626C8.4968 302.929 6.68611 299.793 6.68611 296.399V261.77C6.68611 258.376 8.4968 255.24 11.4361 253.543L41.4252 236.229C44.3645 234.532 47.9859 234.532 50.9252 236.229L80.9143 253.543C83.8536 255.24 85.6643 258.376 85.6643 261.77V296.399C85.6643 299.793 83.8536 302.929 80.9143 304.626L50.9252 321.94C47.9859 323.637 44.3645 323.637 41.4252 321.94Z" fill="#89B5AF" stroke="#545454"/>
<path d="M41.4252 314.163L11.4361 296.849C8.4968 295.152 6.68611 292.016 6.68611 288.622V253.993C6.68611 250.599 8.4968 247.463 11.4361 245.766L41.4252 228.452C44.3645 226.755 47.9859 226.755 50.9252 228.452L80.9143 245.766C83.8536 247.463 85.6643 250.599 85.6643 253.993V288.622C85.6643 292.016 83.8536 295.152 80.9143 296.849L50.9252 314.163C47.9859 315.86 44.3645 315.86 41.4252 314.163Z" fill="white" stroke="#545454"/>
</svg>
