<svg width="103" height="108" viewBox="0 0 103 108" fill="none" xmlns="http://www.w3.org/2000/svg">
<path d="M2.37486 0.347987C2.51926 0.346557 2.66365 0.346557 2.81234 0.345127C2.96961 0.346557 3.1283 0.346557 3.29129 0.347987C3.46142 0.347987 3.63012 0.346557 3.80454 0.346557C4.27491 0.345127 4.74671 0.346557 5.21708 0.346557C5.7289 0.347987 6.24073 0.346557 6.75256 0.346557C7.6504 0.345127 8.54825 0.345127 9.44609 0.346557C10.7814 0.346557 12.1167 0.346557 13.4521 0.345127C15.8354 0.343698 18.2201 0.343698 20.6034 0.345127C22.6893 0.345127 24.7766 0.346557 26.8625 0.345127C27.0698 0.345127 27.0698 0.345127 27.2814 0.345127C27.8419 0.345127 28.4037 0.345127 28.9642 0.345127C34.2312 0.343698 39.4967 0.345127 44.7637 0.346557C49.4459 0.347987 54.1267 0.347987 58.8089 0.346557C64.0659 0.345127 69.3228 0.343698 74.5784 0.345127C75.1388 0.345127 75.6992 0.345127 76.2597 0.345127C76.4655 0.345127 76.4656 0.345127 76.6771 0.345127C78.7616 0.346557 80.8475 0.345127 82.932 0.345127C85.3024 0.343698 87.6729 0.343698 90.0433 0.345127C91.3715 0.346557 92.6996 0.346557 94.0264 0.345127C94.9128 0.345127 95.7978 0.345127 96.6842 0.346557C97.1889 0.347987 97.695 0.347987 98.1997 0.346557C98.7429 0.345127 99.2862 0.346557 99.8295 0.347987C100.067 0.346557 100.067 0.346557 100.31 0.345127C100.526 0.346557 100.526 0.346557 100.746 0.347987C100.933 0.347987 100.933 0.347987 101.123 0.347987C101.494 0.388018 101.717 0.468081 102.028 0.669666C102.377 1.1915 102.35 1.43741 102.351 2.06075C102.351 2.20801 102.351 2.20801 102.353 2.35956C102.353 2.69267 102.353 3.02579 102.351 3.35891C102.353 3.60053 102.353 3.84071 102.353 4.0809C102.354 4.74428 102.354 5.40622 102.354 6.0696C102.354 6.78444 102.354 7.49785 102.356 8.2127C102.359 9.61379 102.359 11.0149 102.357 12.416C102.357 13.5569 102.357 14.6978 102.359 15.8372C102.359 16.0002 102.359 16.1618 102.359 16.329C102.359 16.6593 102.359 16.9895 102.359 17.3184C102.361 20.4151 102.36 23.5104 102.36 26.6071C102.359 29.4321 102.36 32.2572 102.363 35.0837C102.366 37.9874 102.367 40.8911 102.367 43.7962C102.366 45.4246 102.367 47.0544 102.369 48.6829C102.37 50.0725 102.37 51.4622 102.369 52.8504C102.369 53.5581 102.367 54.2658 102.37 54.9721C102.389 63.1084 101.082 70.8916 97.5963 78.3017C97.5406 78.4218 97.4848 78.5419 97.4276 78.6663C95.7778 82.1847 93.6518 85.4702 91.1627 88.4525C91.0441 88.5954 90.9268 88.7384 90.8039 88.8857C89.0282 91.0188 87.1396 93.0947 85.0151 94.8861C84.8878 94.9976 84.7592 95.1105 84.6276 95.2263C81.9827 97.5296 79.0719 99.4982 75.9923 101.171C75.7378 101.311 75.4862 101.454 75.2332 101.598C63.8528 107.945 49.626 108.81 37.2278 105.334C30.5197 103.397 24.2905 100.014 18.9449 95.5366C18.6976 95.3321 18.4488 95.1291 18.2001 94.9275C17.0863 94.0111 16.0598 93.0103 15.0405 91.991C14.9733 91.9238 14.9061 91.8566 14.836 91.7865C12.0596 89.0086 9.61194 85.8647 7.66899 82.4478C7.61466 82.352 7.5589 82.2562 7.50172 82.1576C4.01042 76.1214 1.76295 69.5248 0.905139 62.6023C0.870826 62.3292 0.870826 62.3292 0.836514 62.0504C0.450498 58.6964 0.497678 55.3123 0.496248 51.9411C0.494818 51.2634 0.493389 50.5872 0.493389 49.911C0.490529 48.2854 0.4891 46.6599 0.48767 45.0343C0.48624 44.421 0.48624 43.8076 0.484811 43.1943C0.483381 40.4879 0.480521 37.7815 0.479092 35.0765C0.479092 34.4174 0.479092 33.7569 0.479092 33.0978C0.479092 32.9349 0.479092 32.7704 0.479092 32.6017C0.477662 29.9397 0.473373 27.2761 0.469084 24.6141C0.464795 21.8748 0.461936 19.1369 0.461936 16.3977C0.460506 14.8622 0.459076 13.3267 0.456217 11.7912C0.453357 10.4859 0.451928 9.1806 0.453358 7.87529C0.453358 7.20906 0.453357 6.54425 0.450498 5.87802C0.447639 5.26897 0.449068 4.65992 0.450498 4.05088C0.450498 3.82928 0.450498 3.6091 0.449068 3.38893C0.446209 3.0887 0.447639 2.78989 0.450498 2.48966C0.450498 2.24089 0.450498 2.24089 0.449068 1.98641C0.537709 1.41739 0.729287 1.11144 1.09243 0.669666C1.52848 0.395166 1.86303 0.347987 2.37486 0.347987Z" fill="#88B4AF"/>
<path d="M82.0132 26.2612C82.6222 26.6787 83.0297 27.1891 83.4343 27.7981C83.4958 27.891 83.5573 27.984 83.6216 28.0812C85.3315 30.7561 85.7876 34.1502 85.1471 37.2441C84.8297 38.5108 84.2936 39.9876 83.3643 40.9269C82.9639 41.333 82.7452 41.5789 82.5851 42.1307C82.7752 43.0615 83.2756 43.9093 83.6945 44.7528C83.9519 45.3061 84.1263 45.8665 84.2835 46.4555C84.3078 46.5456 84.3336 46.6371 84.3593 46.73C84.4451 47.0546 84.5166 47.3791 84.5866 47.7065C84.6238 47.8795 84.661 48.0525 84.6982 48.2298C84.9884 49.6623 85.0827 51.0491 85.0713 52.5074C85.0699 52.8534 85.0713 53.1979 85.0742 53.5439C85.077 55.5026 84.8068 57.3898 84.2735 59.2784C84.2449 59.3828 84.2149 59.4871 84.1849 59.5944C83.8203 60.8296 83.2928 61.9905 82.728 63.1471C82.658 63.293 82.5865 63.4374 82.5136 63.5875C81.6429 65.2731 80.4663 66.7885 79.1538 68.151C79.078 68.2311 79.0023 68.3126 78.9236 68.3955C77.8228 69.5564 76.6962 70.5972 75.3837 71.5165C75.3022 71.5737 75.2208 71.6309 75.1364 71.6909C74.8648 71.8682 74.8648 71.8682 74.5188 72.0498C73.8397 72.4144 73.8397 72.4144 73.4722 73.0592C73.4394 73.4566 73.4437 73.8383 73.4622 74.2358C73.4622 74.5189 73.4594 74.8019 73.4551 75.0836C73.4537 75.2194 73.4522 75.3552 73.4508 75.4953C73.375 77.2996 72.3371 78.9695 71.0461 80.1819C69.5034 81.4285 67.9022 81.9075 65.9421 81.9475C65.456 81.8532 65.3087 81.6873 64.9999 81.3042C64.9284 80.931 64.9284 80.931 64.9299 80.4978C64.9284 80.2519 64.9284 80.2519 64.9256 80.0003C64.927 79.8202 64.9299 79.64 64.9313 79.4556C64.9313 79.264 64.9299 79.0724 64.9299 78.8808C64.9284 78.4677 64.9284 78.0545 64.9299 77.6427C64.9327 76.9879 64.9313 76.3346 64.9299 75.6812C64.9256 74.1729 64.927 72.6646 64.9284 71.1577C64.9299 69.778 64.9299 68.3998 64.9256 67.0202C64.9241 66.3725 64.9256 65.7234 64.9284 65.0744C64.9299 64.6698 64.9284 64.2637 64.927 63.8577C64.9256 63.5832 64.9284 63.3087 64.9313 63.0342C64.917 61.0555 64.2836 59.2856 62.8683 57.8702C61.7774 56.9938 60.4263 56.4133 59.0224 56.4062C58.888 56.4062 58.7536 56.4047 58.6149 56.4033C58.4691 56.4033 58.3233 56.4033 58.1732 56.4019C58.0188 56.4019 57.8629 56.4004 57.7042 56.399C57.191 56.3962 56.6791 56.3947 56.1659 56.3933C55.9028 56.3933 55.9028 56.3933 55.6355 56.3919C54.802 56.389 53.9684 56.3876 53.1349 56.3861C52.2728 56.3847 51.4093 56.3819 50.5472 56.3761C49.6193 56.3704 48.6915 56.369 47.7636 56.3676C47.4105 56.3676 47.0588 56.3661 46.7056 56.3633C46.211 56.359 45.7163 56.359 45.2216 56.3604C45.0772 56.359 44.9328 56.3561 44.7856 56.3547C43.0556 56.3676 41.3843 56.9795 40.0919 58.1432C39.3628 58.9053 38.9096 59.7288 38.5507 60.7167C38.5007 60.8511 38.4521 60.984 38.4006 61.1213C38.1718 61.9405 38.2247 62.7926 38.2262 63.6361C38.2247 63.8291 38.2247 64.0235 38.2233 64.2165C38.2219 64.6326 38.2219 65.0486 38.2219 65.4647C38.2204 66.1209 38.219 66.7785 38.2147 67.4362C38.209 69.0675 38.2033 70.6987 38.2004 72.33C38.199 73.5996 38.1947 74.8691 38.189 76.1401C38.1861 76.7935 38.1847 77.4469 38.1847 78.1002C38.1847 78.5063 38.1833 78.9123 38.1804 79.3183C38.179 79.5957 38.1804 79.8745 38.1804 80.1533C38.179 80.3177 38.179 80.4835 38.1776 80.6537C38.1761 80.8695 38.1761 80.8695 38.1761 81.0897C38.1218 81.4471 38.1218 81.4471 37.9245 81.7073C37.3297 82.1405 36.379 81.9132 35.6956 81.8146C33.7298 81.3971 31.977 80.1833 30.7861 78.5706C29.9969 77.2639 29.6623 76.0215 29.6681 74.5132C29.7124 73.2779 29.7124 73.2779 29.2577 72.1785C28.8446 71.8825 28.4271 71.6638 27.971 71.4393C27.6436 71.2234 27.3234 71.0061 27.006 70.7788C26.9231 70.7188 26.8401 70.6601 26.7543 70.6001C25.1474 69.4406 23.7163 68.0267 22.5382 66.4354C22.4338 66.2953 22.328 66.1552 22.2194 66.0108C18.8153 61.2885 17.2727 55.2281 18.192 49.4636C18.5908 47.1718 19.2099 44.84 20.3751 42.8098C20.5767 42.4267 20.5767 42.4267 20.4494 42.0464C20.2478 41.6961 20.0305 41.3801 19.7861 41.0585C18.5694 39.35 17.7745 37.2312 17.6773 35.1253C17.6701 35.0338 17.663 34.9408 17.6544 34.8465C17.5143 31.7784 18.8825 28.8461 20.8226 26.5471C21.2929 26.2183 21.6875 26.174 22.2523 26.2612C23.2173 26.7816 24.0151 27.6766 24.81 28.4215C25.2389 28.8218 25.6764 29.2078 26.1181 29.5909C26.4541 29.884 26.7829 30.1814 27.1132 30.4788C27.352 30.6932 27.5893 30.9077 27.828 31.1221C27.9324 31.2165 28.0354 31.3094 28.1426 31.4066C28.4156 31.6497 28.6916 31.8885 28.9718 32.1229C29.0476 32.1887 29.1248 32.2545 29.2034 32.3216C29.4379 32.5161 29.4379 32.5161 29.8296 32.6948C30.4015 32.5461 30.929 32.3088 31.4666 32.0643C34.9093 30.5017 38.3305 29.9555 42.0935 29.9569C42.3151 29.9569 42.5367 29.9569 42.7583 29.9555C43.3559 29.9555 43.9535 29.9541 44.5511 29.9541C44.9257 29.9541 45.3017 29.9541 45.6763 29.9541C46.9916 29.9527 48.3055 29.9512 49.6208 29.9512C50.8374 29.9527 52.0527 29.9498 53.2693 29.9484C54.3202 29.9469 55.3724 29.9455 56.4232 29.9455C57.048 29.9455 57.6728 29.9455 58.2975 29.9441C63.3429 29.9326 68.0737 30.1228 72.6731 32.426C73.0576 32.5718 73.3135 32.6062 73.721 32.5518C73.9812 32.3731 73.9812 32.3731 74.1942 32.1143C74.5388 31.7441 74.8833 31.3981 75.2665 31.0678C75.7026 30.6932 76.1286 30.3115 76.5532 29.9241C77.045 29.4794 77.5469 29.0548 78.0644 28.6373C78.7378 28.0941 79.3769 27.5208 80.0031 26.9231C80.6864 26.2812 81.0768 25.9938 82.0132 26.2612Z" fill="#FAFDFF"/>
<path d="M42.1635 38.3792C42.6096 38.3778 43.0556 38.3735 43.5017 38.3692C43.7891 38.3677 44.075 38.3677 44.3624 38.3663C44.5597 38.3635 44.5597 38.3635 44.7612 38.3606C45.6905 38.3649 46.5727 38.4535 47.2804 39.1198C47.3447 39.217 47.4105 39.3142 47.4777 39.4143C47.5448 39.5115 47.612 39.6087 47.6821 39.7088C47.9666 40.1977 48.0038 40.5923 48.0023 41.1456C48.0023 41.2957 48.0023 41.4444 48.0023 41.5974C48.0023 41.7575 48.0009 41.9177 48.0009 42.0835C48.0009 42.3294 48.0009 42.3294 47.9995 42.581C47.9995 43.1072 47.9981 43.6333 47.9952 44.1594C47.9952 44.5154 47.9938 44.8714 47.9938 45.2274C47.9923 46.1009 47.9895 46.9759 47.9866 47.8494C47.8437 47.8509 47.7021 47.8523 47.5549 47.8537C43.862 47.838 43.862 47.838 40.2663 48.5643C40.1048 48.6157 39.9432 48.6672 39.7774 48.7201C37.9502 49.3678 36.2932 50.2928 34.8335 51.5666C34.6891 51.6796 34.6891 51.6796 34.5418 51.7954C31.9069 53.9242 30.2471 57.5684 29.8582 60.881C29.781 61.6359 29.7252 62.3908 29.6866 63.1471C27.2318 61.5916 25.7793 58.4935 25.1302 55.7356C24.5326 52.7218 24.9172 49.6037 26.2554 46.8487C26.2968 46.7629 26.3383 46.6785 26.3812 46.5913C26.9788 45.3746 27.6264 44.2824 28.5429 43.2744C28.6587 43.1458 28.7745 43.0157 28.8946 42.8827C32.4645 39.1026 37.2096 38.3892 42.1635 38.3792Z" fill="#88B4AF"/>
<path d="M58.9901 38.4666C59.1846 38.4666 59.379 38.4666 59.5735 38.4652C59.9809 38.4652 60.387 38.4666 60.7944 38.4709C61.3091 38.4766 61.8224 38.4752 62.337 38.4723C66.4445 38.4551 66.4445 38.4551 68.4318 39.1285C68.6134 39.19 68.6134 39.19 68.8007 39.2529C69.4583 39.4988 70.0902 39.8162 70.7193 40.1293C70.8694 40.2037 71.021 40.2794 71.1782 40.3552C74.3822 42.0808 76.6682 45.3948 77.6976 48.8189C78.7141 52.3789 78.3524 56.4821 76.5481 59.736C75.7261 61.14 74.7253 62.2852 73.5787 63.4332C73.4514 63.0515 73.4057 62.7756 73.3785 62.381C73.034 57.8989 71.3055 53.9572 67.8599 50.9949C67.3567 50.6132 66.8391 50.2958 66.2873 49.9942C66.1343 49.9084 65.9813 49.824 65.8241 49.7368C63.2149 48.3572 60.6 47.9597 57.682 47.9125C57.3374 47.9054 56.9943 47.8997 56.6497 47.8911C56.4382 47.8868 56.2251 47.8825 56.0135 47.8796C55.2944 47.8653 55.2944 47.8653 55.1357 47.7067C55.1186 47.4893 55.1114 47.272 55.1071 47.0547C55.1057 46.916 55.1028 46.7759 55.1 46.633C55.0942 45.9925 55.0885 45.352 55.0857 44.7129C55.0828 44.3755 55.0785 44.0381 55.0728 43.7021C55.0657 43.2146 55.0628 42.7285 55.0599 42.2424C55.0571 42.0937 55.0542 41.9436 55.0499 41.7906C55.0542 40.6654 55.2787 39.8505 56.0822 39.037C56.9486 38.3779 57.9465 38.4551 58.9901 38.4666Z" fill="#88B4AF"/>
<path d="M43.3099 60.502C43.4629 60.5006 43.6159 60.4992 43.7746 60.4977C43.9419 60.4992 44.1091 60.5006 44.2807 60.502C44.458 60.5006 44.6338 60.5006 44.8168 60.4992C45.3001 60.4977 45.7847 60.4992 46.2694 60.502C46.7755 60.5035 47.2816 60.502 47.7877 60.502C48.6384 60.502 49.4891 60.5035 50.3383 60.5063C51.3219 60.5106 52.3055 60.5106 53.2892 60.5092C54.2356 60.5077 55.1806 60.5092 56.1271 60.5106C56.5303 60.512 56.932 60.512 57.3352 60.5106C57.897 60.5106 58.4589 60.5135 59.0208 60.5163C59.1881 60.5149 59.3568 60.5149 59.5297 60.5135C59.6813 60.5149 59.8343 60.5163 59.9915 60.5178C60.1245 60.5192 60.2575 60.5192 60.3933 60.5192C60.5505 60.5464 60.5505 60.5464 60.7107 60.5735C61.0066 61.0181 61.0338 61.1197 61.0381 61.6243C61.0395 61.7487 61.0424 61.8745 61.0438 62.0032C61.0438 62.1376 61.0438 62.272 61.0452 62.4121C61.0466 62.6208 61.0466 62.6208 61.0481 62.8339C61.0495 63.1298 61.0495 63.4257 61.0495 63.7203C61.0509 64.1706 61.0552 64.6195 61.0609 65.0699C61.0624 65.3572 61.0624 65.6446 61.0624 65.932C61.0652 66.0664 61.0667 66.1993 61.0695 66.3366C61.0624 67.3402 60.8379 68.1008 60.1745 68.8686C60.0959 68.9329 60.0158 68.9972 59.9329 69.063C59.8543 69.1288 59.7742 69.1945 59.6927 69.2617C58.9236 69.765 58.2244 69.7664 57.3337 69.765C57.1965 69.7664 57.0578 69.7678 56.9163 69.7678C56.4616 69.7707 56.007 69.7707 55.5524 69.7721C55.235 69.7721 54.919 69.7736 54.6016 69.775C53.9382 69.7764 53.2734 69.7764 52.6101 69.7764C51.7608 69.7764 50.9116 69.7807 50.0609 69.785C49.4076 69.7893 48.7528 69.7893 48.098 69.7893C47.7849 69.7893 47.4718 69.7907 47.1587 69.7936C46.7212 69.795 46.2823 69.795 45.8433 69.7936C45.7147 69.795 45.586 69.7964 45.4545 69.7979C44.4551 69.7879 43.7045 69.5334 42.9482 68.8714C42.871 68.7785 42.7938 68.6841 42.7152 68.5883C42.6351 68.4968 42.5565 68.4039 42.475 68.3081C41.9389 67.5304 41.936 66.8141 41.9346 65.8991C41.9332 65.6975 41.9332 65.6975 41.9303 65.4931C41.9289 65.21 41.9289 64.9269 41.9289 64.6438C41.9289 64.2121 41.9231 63.7789 41.9174 63.3457C41.9174 63.0712 41.916 62.7967 41.916 62.5207C41.9146 62.3921 41.9117 62.262 41.9103 62.129C41.9117 61.9489 41.9117 61.9489 41.9131 61.763C41.9117 61.6572 41.9117 61.5514 41.9117 61.4428C42.0861 60.7065 42.6123 60.502 43.3099 60.502Z" fill="#FAFDFF"/>
</svg>
