<svg width="74" height="77" viewBox="0 0 74 77" fill="none" xmlns="http://www.w3.org/2000/svg">
<path d="M1.38685 0.00282906C1.49075 0.00180031 1.59466 0.00180031 1.70164 0.000771562C1.81481 0.00180031 1.929 0.00180031 2.04628 0.00282906C2.1687 0.00282906 2.29009 0.00180031 2.4156 0.00180031C2.75406 0.000771562 3.09354 0.00180031 3.432 0.00180031C3.80029 0.00282906 4.16859 0.00180031 4.53688 0.00180031C5.18293 0.000771562 5.82899 0.000771562 6.47504 0.00180031C7.4359 0.00180031 8.39675 0.00180031 9.3576 0.000771562C11.0725 -0.000257187 12.7885 -0.000257187 14.5034 0.000771562C16.0044 0.000771562 17.5063 0.00180031 19.0073 0.000771562C19.1564 0.000771562 19.1564 0.000771562 19.3087 0.000771562C19.712 0.000771562 20.1163 0.000771562 20.5195 0.000771562C24.3095 -0.000257187 28.0983 0.000771562 31.8883 0.00180031C35.2574 0.00282906 38.6255 0.00282906 41.9947 0.00180031C45.7774 0.000771562 49.5601 -0.000257187 53.3418 0.000771562C53.7451 0.000771562 54.1483 0.000771562 54.5516 0.000771562C54.6997 0.000771562 54.6998 0.000771562 54.852 0.000771562C56.3519 0.00180031 57.8529 0.000771562 59.3528 0.000771562C61.0585 -0.000257187 62.7641 -0.000257187 64.4698 0.000771562C65.4255 0.00180031 66.3812 0.00180031 67.3359 0.000771562C67.9737 0.000771562 68.6105 0.000771562 69.2483 0.00180031C69.6115 0.00282906 69.9757 0.00282906 70.3388 0.00180031C70.7297 0.000771562 71.1207 0.00180031 71.5116 0.00282906C71.6824 0.00180031 71.6824 0.00180031 71.8572 0.000771562C72.0126 0.00180031 72.0126 0.00180031 72.171 0.00282906C72.3058 0.00282906 72.3058 0.00282906 72.4426 0.00282906C72.709 0.0316341 72.8695 0.089244 73.0938 0.234298C73.3448 0.609791 73.3253 0.786736 73.3263 1.23527C73.3263 1.34123 73.3263 1.34123 73.3273 1.45028C73.3273 1.68998 73.3273 1.92968 73.3263 2.16938C73.3273 2.34323 73.3273 2.51607 73.3273 2.6889C73.3284 3.16623 73.3284 3.64255 73.3284 4.11989C73.3284 4.63426 73.3284 5.14761 73.3294 5.66198C73.3314 6.67016 73.3314 7.67833 73.3304 8.68651C73.3304 9.50745 73.3304 10.3284 73.3314 11.1483C73.3314 11.2656 73.3314 11.3818 73.3314 11.5022C73.3314 11.7398 73.3314 11.9775 73.3314 12.2141C73.3335 14.4424 73.3325 16.6696 73.3325 18.8979C73.3314 20.9307 73.3325 22.9635 73.3345 24.9973C73.3366 27.0867 73.3376 29.1761 73.3376 31.2665C73.3366 32.4383 73.3376 33.6111 73.3386 34.7828C73.3397 35.7827 73.3397 36.7827 73.3386 37.7816C73.3386 38.2908 73.3376 38.8001 73.3397 39.3083C73.353 45.1629 72.4128 50.7634 69.9047 56.0954C69.8646 56.1818 69.8244 56.2682 69.7833 56.3577C68.5961 58.8895 67.0664 61.2536 65.2753 63.3995C65.1899 63.5024 65.1056 63.6053 65.0171 63.7113C63.7394 65.2462 62.3804 66.7399 60.8517 68.0289C60.7601 68.1092 60.6675 68.1904 60.5729 68.2738C58.6697 69.9311 56.5752 71.3477 54.3592 72.5513C54.1761 72.6521 53.9951 72.755 53.813 72.8589C45.6241 77.4255 35.387 78.0479 26.4657 75.547C21.6388 74.1531 17.1566 71.719 13.3101 68.497C13.1321 68.3499 12.9531 68.2038 12.7741 68.0587C11.9727 67.3993 11.234 66.6792 10.5005 65.9457C10.4522 65.8973 10.4038 65.849 10.3534 65.7986C8.3556 63.7997 6.59438 61.5375 5.19631 59.0788C5.15722 59.0099 5.11709 58.9409 5.07594 58.87C2.56374 54.5266 0.946543 49.7799 0.329293 44.7987C0.304603 44.6022 0.304603 44.6022 0.279913 44.4016C0.00215026 41.9882 0.036099 39.5531 0.0350702 37.1273C0.0340415 36.6397 0.0330128 36.1531 0.0330128 35.6665C0.0309553 34.4968 0.0299265 33.3271 0.0288978 32.1574C0.027869 31.7161 0.027869 31.2748 0.0268403 30.8334C0.0258115 28.886 0.023754 26.9386 0.0227253 24.9922C0.0227253 24.5179 0.0227253 24.0427 0.0227253 23.5684C0.0227253 23.4511 0.0227253 23.3328 0.0227253 23.2114C0.0216965 21.2959 0.0186103 19.3793 0.015524 17.4638C0.0124378 15.4927 0.0103803 13.5227 0.0103803 11.5516C0.00935152 10.4467 0.00832277 9.34182 0.00626527 8.23694C0.00420777 7.29769 0.00317908 6.35845 0.00420782 5.4192C0.00420782 4.9398 0.00420778 4.46143 0.00215028 3.98203C9.27782e-05 3.54379 0.00112153 3.10554 0.00215028 2.66729C0.00215028 2.50783 0.00215025 2.34941 0.0011215 2.19098C-0.000935995 1.97494 9.27782e-05 1.75993 0.00215028 1.5439C0.00215028 1.36489 0.00215025 1.36489 0.0011215 1.18178C0.064904 0.772334 0.202756 0.552181 0.464059 0.234298C0.777828 0.0367778 1.01856 0.00282906 1.38685 0.00282906Z" fill="white"/>
<path d="M58.6917 18.649C59.1299 18.9494 59.4231 19.3166 59.7143 19.7549C59.7585 19.8217 59.8027 19.8886 59.849 19.9586C61.0794 21.8834 61.4076 24.3256 60.9467 26.5518C60.7183 27.4633 60.3325 28.526 59.6639 29.2019C59.3758 29.494 59.2184 29.671 59.1032 30.0681C59.24 30.7378 59.6001 31.3479 59.9015 31.9548C60.0867 32.3529 60.2122 32.7562 60.3253 33.1801C60.3428 33.2449 60.3613 33.3107 60.3799 33.3776C60.4416 33.6111 60.493 33.8446 60.5434 34.0802C60.5702 34.2047 60.5969 34.3292 60.6237 34.4567C60.8325 35.4875 60.9004 36.4854 60.8922 37.5348C60.8912 37.7837 60.8922 38.0316 60.8942 38.2806C60.8963 39.69 60.7019 41.0479 60.3181 42.4069C60.2976 42.482 60.276 42.5571 60.2544 42.6343C59.992 43.5231 59.6124 44.3585 59.2061 45.1907C59.1557 45.2956 59.1042 45.3995 59.0517 45.5076C58.4252 46.7205 57.5786 47.8109 56.6342 48.7913C56.5797 48.8489 56.5251 48.9076 56.4686 48.9673C55.6764 49.8026 54.8658 50.5515 53.9214 51.213C53.8627 51.2542 53.8041 51.2953 53.7434 51.3385C53.5479 51.4661 53.5479 51.4661 53.299 51.5967C52.8103 51.8591 52.8103 51.8591 52.5459 52.323C52.5223 52.609 52.5254 52.8837 52.5387 53.1697C52.5387 53.3734 52.5367 53.5771 52.5336 53.7797C52.5326 53.8775 52.5315 53.9752 52.5305 54.076C52.476 55.3743 51.7291 56.5759 50.8001 57.4483C49.6901 58.3453 48.5379 58.69 47.1275 58.7188C46.7777 58.6509 46.6718 58.5315 46.4496 58.2558C46.3981 57.9873 46.3981 57.9873 46.3992 57.6756C46.3981 57.4987 46.3981 57.4987 46.3961 57.3176C46.3971 57.188 46.3992 57.0584 46.4002 56.9257C46.4002 56.7878 46.3992 56.65 46.3992 56.5121C46.3981 56.2148 46.3981 55.9175 46.3992 55.6212C46.4012 55.15 46.4002 54.6799 46.3992 54.2098C46.3961 53.1244 46.3971 52.0391 46.3981 50.9548C46.3992 49.9621 46.3992 48.9703 46.3961 47.9776C46.395 47.5116 46.3961 47.0445 46.3981 46.5775C46.3992 46.2863 46.3981 45.9942 46.3971 45.702C46.3961 45.5045 46.3981 45.307 46.4002 45.1094C46.3899 43.6856 45.9342 42.4121 44.9157 41.3936C44.1308 40.763 43.1586 40.3453 42.1484 40.3402C42.0517 40.3402 41.955 40.3391 41.8552 40.3381C41.7502 40.3381 41.6453 40.3381 41.5373 40.3371C41.4262 40.3371 41.314 40.336 41.1999 40.335C40.8305 40.333 40.4622 40.3319 40.0929 40.3309C39.9036 40.3309 39.9036 40.3309 39.7113 40.3299C39.1115 40.3278 38.5117 40.3268 37.912 40.3258C37.2916 40.3247 36.6703 40.3227 36.0499 40.3186C35.3823 40.3144 34.7146 40.3134 34.047 40.3124C33.7929 40.3124 33.5398 40.3114 33.2857 40.3093C32.9297 40.3062 32.5738 40.3062 32.2178 40.3072C32.1139 40.3062 32.01 40.3042 31.9041 40.3031C30.6593 40.3124 29.4567 40.7527 28.5267 41.5901C28.002 42.1384 27.6759 42.731 27.4177 43.4418C27.3817 43.5385 27.3467 43.6342 27.3097 43.733C27.1451 44.3224 27.1831 44.9356 27.1842 45.5425C27.1831 45.6814 27.1831 45.8213 27.1821 45.9602C27.1811 46.2596 27.1811 46.5589 27.1811 46.8583C27.1801 47.3305 27.179 47.8037 27.1759 48.277C27.1718 49.4508 27.1677 50.6246 27.1656 51.7984C27.1646 52.7119 27.1615 53.6254 27.1574 54.54C27.1554 55.0101 27.1543 55.4803 27.1543 55.9504C27.1543 56.2426 27.1533 56.5347 27.1512 56.8269C27.1502 57.0265 27.1512 57.2271 27.1512 57.4277C27.1502 57.546 27.1502 57.6653 27.1492 57.7878C27.1482 57.9431 27.1482 57.9431 27.1482 58.1015C27.1091 58.3587 27.1091 58.3587 26.9671 58.5459C26.5391 58.8577 25.855 58.6941 25.3633 58.6231C23.9487 58.3227 22.6875 57.4493 21.8306 56.2889C21.2627 55.3486 21.022 54.4546 21.0261 53.3693C21.058 52.4804 21.058 52.4804 20.7308 51.6893C20.4335 51.4764 20.1331 51.319 19.8049 51.1575C19.5694 51.0021 19.3389 50.8457 19.1105 50.6822C19.0509 50.639 18.9912 50.5968 18.9295 50.5536C17.7732 49.7193 16.7434 48.7018 15.8957 47.5568C15.8206 47.456 15.7445 47.3552 15.6663 47.2513C13.2168 43.8533 12.1068 39.4925 12.7683 35.3445C13.0553 33.6955 13.5008 32.0176 14.3392 30.5567C14.4842 30.281 14.4842 30.281 14.3927 30.0074C14.2476 29.7554 14.0913 29.528 13.9153 29.2965C13.0399 28.0672 12.4679 26.5426 12.3979 25.0272C12.3928 24.9614 12.3877 24.8945 12.3815 24.8266C12.2807 22.6189 13.2652 20.5089 14.6612 18.8547C14.9997 18.6181 15.2836 18.5862 15.6899 18.649C16.3843 19.0234 16.9584 19.6674 17.5304 20.2034C17.839 20.4915 18.1538 20.7692 18.4717 21.0449C18.7134 21.2558 18.9501 21.4698 19.1877 21.6838C19.3595 21.8381 19.5303 21.9924 19.7021 22.1467C19.7772 22.2146 19.8512 22.2815 19.9284 22.3514C20.1249 22.5263 20.3234 22.6981 20.5251 22.8668C20.5796 22.9142 20.6351 22.9615 20.6917 23.0098C20.8604 23.1497 20.8604 23.1497 21.1423 23.2783C21.5538 23.1714 21.9334 23.0006 22.3202 22.8247C24.7975 21.7002 27.2593 21.3073 29.9669 21.3083C30.1264 21.3083 30.2858 21.3083 30.4453 21.3073C30.8753 21.3073 31.3053 21.3062 31.7354 21.3062C32.0049 21.3062 32.2754 21.3062 32.545 21.3062C33.4914 21.3052 34.4368 21.3042 35.3833 21.3042C36.2588 21.3052 37.1332 21.3031 38.0087 21.3021C38.7648 21.3011 39.522 21.3001 40.2781 21.3001C40.7277 21.3001 41.1772 21.3001 41.6268 21.299C45.2572 21.2908 48.6614 21.4276 51.9709 23.0849C52.2476 23.1899 52.4317 23.2146 52.7249 23.1755C52.9122 23.0469 52.9122 23.0469 53.0655 22.8607C53.3134 22.5942 53.5613 22.3453 53.837 22.1076C54.1508 21.8381 54.4574 21.5634 54.7629 21.2846C55.1168 20.9647 55.4779 20.6591 55.8503 20.3588C56.3348 19.9678 56.7947 19.5553 57.2453 19.1253C57.737 18.6634 58.0179 18.4566 58.6917 18.649Z" fill="#88B4AF"/>
<path d="M30.0173 27.3686C30.3383 27.3676 30.6592 27.3645 30.9802 27.3614C31.187 27.3604 31.3927 27.3604 31.5995 27.3593C31.7415 27.3573 31.7415 27.3573 31.8865 27.3552C32.5552 27.3583 33.19 27.4221 33.6992 27.9015C33.7455 27.9714 33.7928 28.0414 33.8412 28.1134C33.8895 28.1834 33.9379 28.2533 33.9883 28.3253C34.193 28.6772 34.2197 28.9611 34.2187 29.3592C34.2187 29.4672 34.2187 29.5742 34.2187 29.6843C34.2187 29.7995 34.2177 29.9148 34.2177 30.0341C34.2177 30.211 34.2177 30.211 34.2167 30.3921C34.2167 30.7707 34.2156 31.1493 34.2136 31.5278C34.2136 31.784 34.2125 32.0402 34.2125 32.2963C34.2115 32.9249 34.2095 33.5545 34.2074 34.183C34.1045 34.1841 34.0027 34.1851 33.8967 34.1861C31.2395 34.1748 31.2395 34.1748 28.6522 34.6974C28.5359 34.7344 28.4197 34.7715 28.3003 34.8095C26.9856 35.2756 25.7933 35.9412 24.7429 36.8578C24.639 36.9391 24.639 36.9391 24.533 37.0224C22.6371 38.5542 21.4427 41.1765 21.1629 43.5601C21.1073 44.1033 21.0672 44.6465 21.0394 45.1907C19.273 44.0714 18.2278 41.8421 17.7608 39.8576C17.3308 37.689 17.6075 35.4453 18.5704 33.4629C18.6002 33.4012 18.6301 33.3405 18.6609 33.2777C19.091 32.4023 19.557 31.6163 20.2164 30.891C20.2997 30.7985 20.3831 30.7048 20.4695 30.6092C23.0383 27.8891 26.4527 27.3758 30.0173 27.3686Z" fill="white"/>
<path d="M42.1252 27.4316C42.2651 27.4316 42.405 27.4316 42.5449 27.4306C42.8381 27.4306 43.1302 27.4316 43.4234 27.4347C43.7938 27.4388 44.1631 27.4378 44.5335 27.4357C47.4891 27.4234 47.4891 27.4234 48.919 27.9079C49.0497 27.9521 49.0497 27.9521 49.1844 27.9974C49.6577 28.1743 50.1124 28.4027 50.565 28.628C50.673 28.6815 50.7821 28.736 50.8952 28.7906C53.2007 30.0323 54.8456 32.4169 55.5863 34.8808C56.3178 37.4423 56.0575 40.3949 54.7592 42.7363C54.1677 43.7465 53.4476 44.5706 52.6225 45.3966C52.531 45.122 52.498 44.9234 52.4785 44.6395C52.2306 41.4144 50.9868 38.5781 48.5075 36.4465C48.1454 36.1718 47.773 35.9435 47.3759 35.7264C47.2658 35.6647 47.1557 35.604 47.0426 35.5412C45.1651 34.5485 43.2835 34.2625 41.1838 34.2285C40.9359 34.2234 40.689 34.2193 40.4411 34.2131C40.2888 34.21 40.1355 34.2069 39.9833 34.2049C39.4658 34.1946 39.4658 34.1946 39.3516 34.0804C39.3393 33.924 39.3342 33.7677 39.3311 33.6113C39.33 33.5115 39.328 33.4107 39.3259 33.3078C39.3218 32.8469 39.3177 32.386 39.3156 31.9262C39.3136 31.6834 39.3105 31.4406 39.3064 31.1989C39.3012 30.8481 39.2992 30.4983 39.2971 30.1485C39.2951 30.0415 39.293 29.9335 39.2899 29.8234C39.293 29.0138 39.4545 28.4274 40.0327 27.8421C40.6561 27.3678 41.3742 27.4234 42.1252 27.4316Z" fill="white"/>
<path d="M30.8422 43.2874C30.9523 43.2864 31.0624 43.2854 31.1766 43.2844C31.2969 43.2854 31.4173 43.2864 31.5408 43.2874C31.6683 43.2864 31.7949 43.2864 31.9265 43.2854C32.2742 43.2844 32.623 43.2854 32.9717 43.2874C33.3359 43.2885 33.7001 43.2874 34.0643 43.2874C34.6764 43.2874 35.2885 43.2885 35.8996 43.2905C36.6073 43.2936 37.3151 43.2936 38.0229 43.2926C38.7039 43.2916 39.3839 43.2926 40.065 43.2936C40.3551 43.2947 40.6442 43.2947 40.9343 43.2936C41.3386 43.2936 41.7429 43.2957 42.1472 43.2977C42.2675 43.2967 42.3889 43.2967 42.5134 43.2957C42.6224 43.2967 42.7325 43.2977 42.8457 43.2988C42.9414 43.2998 43.037 43.2998 43.1348 43.2998C43.2479 43.3193 43.2479 43.3193 43.3631 43.3389C43.5761 43.6588 43.5956 43.7319 43.5987 44.095C43.5998 44.1845 43.6018 44.275 43.6028 44.3676C43.6028 44.4643 43.6028 44.561 43.6039 44.6619C43.6049 44.8121 43.6049 44.8121 43.6059 44.9653C43.607 45.1783 43.607 45.3912 43.607 45.6032C43.608 45.9272 43.6111 46.2502 43.6152 46.5743C43.6162 46.7811 43.6162 46.9879 43.6162 47.1946C43.6183 47.2913 43.6193 47.387 43.6214 47.4858C43.6162 48.208 43.4547 48.7553 42.9774 49.3077C42.9208 49.354 42.8632 49.4003 42.8035 49.4476C42.7469 49.4949 42.6893 49.5422 42.6307 49.5906C42.0772 49.9527 41.5741 49.9537 40.9332 49.9527C40.8345 49.9537 40.7347 49.9548 40.6328 49.9548C40.3057 49.9568 39.9786 49.9568 39.6514 49.9579C39.423 49.9579 39.1957 49.9589 38.9673 49.9599C38.49 49.9609 38.0116 49.9609 37.5342 49.9609C36.9232 49.9609 36.3121 49.964 35.7 49.9671C35.2298 49.9702 34.7587 49.9702 34.2875 49.9702C34.0622 49.9702 33.8369 49.9712 33.6116 49.9733C33.2968 49.9743 32.981 49.9743 32.6652 49.9733C32.5726 49.9743 32.48 49.9754 32.3854 49.9764C31.6663 49.9692 31.1262 49.7861 30.582 49.3098C30.5264 49.2429 30.4709 49.175 30.4143 49.1061C30.3567 49.0402 30.3001 48.9733 30.2414 48.9044C29.8557 48.3448 29.8536 47.8294 29.8526 47.171C29.8515 47.0259 29.8515 47.0259 29.8495 46.8788C29.8485 46.6751 29.8485 46.4714 29.8485 46.2677C29.8485 45.9571 29.8443 45.6453 29.8402 45.3336C29.8402 45.1361 29.8392 44.9386 29.8392 44.74C29.8382 44.6475 29.8361 44.5538 29.8351 44.4582C29.8361 44.3285 29.8361 44.3285 29.8371 44.1948C29.8361 44.1187 29.8361 44.0426 29.8361 43.9644C29.9616 43.4346 30.3402 43.2874 30.8422 43.2874Z" fill="#88B4AF"/>
</svg>
