<svg width="18" height="20" viewBox="0 0 18 20" fill="none" xmlns="http://www.w3.org/2000/svg">
<path fill-rule="evenodd" clip-rule="evenodd" d="M14.3235 17.647C13.1052 17.647 12.1177 16.6595 12.1177 15.4411C12.1177 14.2227 13.1052 13.2352 14.3235 13.2352C15.5419 13.2352 16.5294 14.2227 16.5294 15.4411C16.5294 16.6595 15.5419 17.647 14.3235 17.647ZM4.02948 11.7646C2.8111 11.7646 1.82361 10.7772 1.82361 9.55878C1.82361 8.34114 2.8111 7.3529 4.02948 7.3529C5.24786 7.3529 6.23535 8.34114 6.23535 9.55878C6.23535 10.7772 5.24786 11.7646 4.02948 11.7646ZM14.3235 1.47058C15.5419 1.47058 16.5294 2.45808 16.5294 3.67645C16.5294 4.89483 15.5419 5.88232 14.3235 5.88232C13.1052 5.88232 12.1177 4.89483 12.1177 3.67645C12.1177 2.45808 13.1052 1.47058 14.3235 1.47058ZM14.3235 11.7646C13.0221 11.7646 11.8861 12.4448 11.2324 13.4646L7.29491 11.2147C7.54932 10.7147 7.70593 10.1573 7.70593 9.55878C7.70593 9.18892 7.63462 8.83892 7.53315 8.50216L11.6294 6.16174C12.3008 6.88968 13.2552 7.3529 14.3235 7.3529C16.3544 7.3529 18 5.70732 18 3.67645C18 1.64558 16.3544 0 14.3235 0C12.2927 0 10.6471 1.64558 10.6471 3.67645C10.6471 4.0463 10.7184 4.39629 10.8199 4.73379L6.72359 7.07349C6.05227 6.34629 5.09786 5.88232 4.02948 5.88232C1.99861 5.88232 0.353027 7.5279 0.353027 9.55878C0.353027 11.5896 1.99861 13.2352 4.02948 13.2352C4.86771 13.2352 5.63167 12.944 6.25005 12.472L6.23535 12.4999L10.6875 15.0441C10.6728 15.1764 10.6471 15.3043 10.6471 15.4411C10.6471 17.472 12.2927 19.1176 14.3235 19.1176C16.3544 19.1176 18 17.472 18 15.4411C18 13.4102 16.3544 11.7646 14.3235 11.7646Z" fill="#545454"/>
</svg>
